<svg width="262" height="105" viewBox="0 0 262 105" fill="none" xmlns="http://www.w3.org/2000/svg">
<path d="M215.244 4.79327V1.49579H207V9.73949H210.905V6.85419V4.79327H215.244Z" fill="#0000FF"/>
<path d="M253.256 101.702V105H261.5V96.7562H257.595V99.6415V101.702H253.256Z" fill="#0000FF"/>
<path d="M210.664 4.24363L257.836 101.794M210.206 3.78564H258.752V102.71H210.206V3.78564Z" stroke="#0000FF" stroke-opacity="0.25" stroke-width="0.915966"/>
<path d="M210.664 102.252L258.752 3.78564" stroke="#0000FF" stroke-opacity="0.25" stroke-width="0.915966"/>
<path d="M146.244 4.29748V1H138V9.2437H141.905V6.3584V4.29748H146.244Z" fill="#0000FF"/>
<path d="M184.256 101.207V104.504H192.5V96.2605H188.595V99.1457V101.207H184.256Z" fill="#0000FF"/>
<path d="M141.664 3.74784L188.836 101.298M141.206 3.28986H189.752V102.214H141.206V3.28986Z" stroke="#0000FF" stroke-opacity="0.25" stroke-width="0.5"/>
<path d="M141.664 101.756L189.752 3.28986" stroke="#0000FF" stroke-opacity="0.25" stroke-width="0.5"/>
<path d="M77.2437 3.80163V0.50415H69V8.74785H72.9049V5.86255V3.80163H77.2437Z" fill="#0000FF"/>
<path d="M115.256 100.711V104.008H123.5V95.7646H119.595V98.6499V100.711H115.256Z" fill="#0000FF"/>
<path d="M72.664 3.25199L119.836 100.802M72.2061 2.79401H120.752V101.718H72.2061V2.79401Z" stroke="#0000FF" stroke-opacity="0.25" stroke-width="0.5"/>
<path d="M72.6641 101.26L120.752 2.79401" stroke="#0000FF" stroke-opacity="0.25" stroke-width="0.5"/>
<path d="M8.2437 3.29748V0H0V8.2437H3.90491V5.3584V3.29748H8.2437Z" fill="#0000FF"/>
<path d="M46.2563 100.207V103.504H54.5V95.2605H50.5951V98.1457V100.207H46.2563Z" fill="#0000FF"/>
<path d="M3.66404 2.74784L50.8363 100.298M3.20605 2.28986H51.7523V101.214H3.20605V2.28986Z" stroke="#0000FF" stroke-opacity="0.25" stroke-width="0.5"/>
<path d="M3.66406 100.756L51.7523 2.28986" stroke="#0000FF" stroke-opacity="0.25" stroke-width="0.5"/>
</svg>
