<svg width="395" height="54" viewBox="0 0 395 54" fill="none" xmlns="http://www.w3.org/2000/svg">
<rect x="223" width="4" height="4" fill="#0000FF"/>
<rect x="168" width="4" height="4" fill="#0000FF"/>
<rect x="144" width="4" height="4" fill="#0000FF"/>
<rect x="120" width="4" height="4" fill="#0000FF"/>
<rect x="96" width="4" height="4" fill="#0000FF"/>
<rect x="72" width="4" height="4" fill="#0000FF"/>
<rect x="48" width="4" height="4" fill="#0000FF"/>
<rect x="24" width="4" height="4" fill="#0000FF"/>
<rect width="4" height="4" fill="#0000FF"/>
<rect x="247" width="4" height="4" fill="#0000FF"/>
<rect x="271" width="4" height="4" fill="#0000FF"/>
<rect x="295" width="4" height="4" fill="#0000FF"/>
<rect x="319" width="4" height="4" fill="#0000FF"/>
<rect x="343" width="4" height="4" fill="#0000FF"/>
<rect x="367" width="4" height="4" fill="#0000FF"/>
<rect x="391" width="4" height="4" fill="#0000FF"/>
<rect x="223" y="25" width="4" height="4" fill="#0000FF"/>
<rect x="168" y="25" width="4" height="4" fill="#0000FF"/>
<rect x="144" y="25" width="4" height="4" fill="#0000FF"/>
<rect x="120" y="25" width="4" height="4" fill="#0000FF"/>
<rect x="96" y="25" width="4" height="4" fill="#0000FF"/>
<rect x="72" y="25" width="4" height="4" fill="#0000FF"/>
<rect x="48" y="25" width="4" height="4" fill="#0000FF"/>
<rect x="24" y="25" width="4" height="4" fill="#0000FF"/>
<rect y="25" width="4" height="4" fill="#0000FF"/>
<rect x="247" y="25" width="4" height="4" fill="#0000FF"/>
<rect x="271" y="25" width="4" height="4" fill="#0000FF"/>
<rect x="295" y="25" width="4" height="4" fill="#0000FF"/>
<rect x="319" y="25" width="4" height="4" fill="#0000FF"/>
<rect x="343" y="25" width="4" height="4" fill="#0000FF"/>
<rect x="367" y="25" width="4" height="4" fill="#0000FF"/>
<rect x="391" y="25" width="4" height="4" fill="#0000FF"/>
<rect x="223" y="50" width="4" height="4" fill="#0000FF"/>
<rect x="168" y="50" width="4" height="4" fill="#0000FF"/>
<rect x="144" y="50" width="4" height="4" fill="#0000FF"/>
<rect x="120" y="50" width="4" height="4" fill="#0000FF"/>
<rect x="96" y="50" width="4" height="4" fill="#0000FF"/>
<rect x="72" y="50" width="4" height="4" fill="#0000FF"/>
<rect x="48" y="50" width="4" height="4" fill="#0000FF"/>
<rect x="24" y="50" width="4" height="4" fill="#0000FF"/>
<rect y="50" width="4" height="4" fill="#0000FF"/>
<rect x="247" y="50" width="4" height="4" fill="#0000FF"/>
<rect x="271" y="50" width="4" height="4" fill="#0000FF"/>
<rect x="295" y="50" width="4" height="4" fill="#0000FF"/>
<rect x="319" y="50" width="4" height="4" fill="#0000FF"/>
<rect x="343" y="50" width="4" height="4" fill="#0000FF"/>
<rect x="367" y="50" width="4" height="4" fill="#0000FF"/>
<rect x="391" y="50" width="4" height="4" fill="#0000FF"/>
</svg>
