<svg width="273" height="13" viewBox="0 0 273 13" fill="none" xmlns="http://www.w3.org/2000/svg">
<path d="M0 11.5L14 0H0V11.5Z" fill="url(#paint0_linear_62_400)"/>
<path d="M8.5 12.5L24.5 0H41.5L26 12.5H8.5Z" fill="url(#paint1_linear_62_400)"/>
<path d="M36.5 12.5L52.5 0H69.5L54 12.5H36.5Z" fill="url(#paint2_linear_62_400)"/>
<path d="M65.5 12.5L81.5 0H98.5L83 12.5H65.5Z" fill="url(#paint3_linear_62_400)"/>
<path d="M94.5 12.5L110.5 0H127.5L112 12.5H94.5Z" fill="url(#paint4_linear_62_400)"/>
<path d="M120.5 12.5H136.5V0L120.5 12.5Z" fill="url(#paint5_linear_62_400)"/>
<path d="M136 11.5L150 0H136V11.5Z" fill="url(#paint6_linear_62_400)"/>
<path d="M144.5 12.5L160.5 0H177.5L162 12.5H144.5Z" fill="url(#paint7_linear_62_400)"/>
<path d="M172.5 12.5L188.5 0H205.5L190 12.5H172.5Z" fill="url(#paint8_linear_62_400)"/>
<path d="M201.5 12.5L217.5 0H234.5L219 12.5H201.5Z" fill="url(#paint9_linear_62_400)"/>
<path d="M230.5 12.5L246.5 0H263.5L248 12.5H230.5Z" fill="url(#paint10_linear_62_400)"/>
<path d="M256.5 12.5H272.5V0L256.5 12.5Z" fill="url(#paint11_linear_62_400)"/>
<defs>
<linearGradient id="paint0_linear_62_400" x1="20.75" y1="0" x2="20.75" y2="12.5" gradientUnits="userSpaceOnUse">
<stop stop-color="#DE0AF0"/>
<stop offset="1" stop-color="#0000FF"/>
</linearGradient>
<linearGradient id="paint1_linear_62_400" x1="20.75" y1="0" x2="20.75" y2="12.5" gradientUnits="userSpaceOnUse">
<stop stop-color="#DE0AF0"/>
<stop offset="1" stop-color="#0000FF"/>
</linearGradient>
<linearGradient id="paint2_linear_62_400" x1="53" y1="0" x2="53" y2="12.5" gradientUnits="userSpaceOnUse">
<stop stop-color="#DE0AF0"/>
<stop offset="1" stop-color="#0000FF"/>
</linearGradient>
<linearGradient id="paint3_linear_62_400" x1="82" y1="0" x2="82" y2="12.5" gradientUnits="userSpaceOnUse">
<stop stop-color="#DE0AF0"/>
<stop offset="1" stop-color="#0000FF"/>
</linearGradient>
<linearGradient id="paint4_linear_62_400" x1="111" y1="0" x2="111" y2="12.5" gradientUnits="userSpaceOnUse">
<stop stop-color="#DE0AF0"/>
<stop offset="1" stop-color="#0000FF"/>
</linearGradient>
<linearGradient id="paint5_linear_62_400" x1="128.5" y1="0" x2="128.5" y2="12.5" gradientUnits="userSpaceOnUse">
<stop stop-color="#DE0AF0"/>
<stop offset="1" stop-color="#0000FF"/>
</linearGradient>
<linearGradient id="paint6_linear_62_400" x1="156.75" y1="0" x2="156.75" y2="12.5" gradientUnits="userSpaceOnUse">
<stop stop-color="#DE0AF0"/>
<stop offset="1" stop-color="#0000FF"/>
</linearGradient>
<linearGradient id="paint7_linear_62_400" x1="156.75" y1="0" x2="156.75" y2="12.5" gradientUnits="userSpaceOnUse">
<stop stop-color="#DE0AF0"/>
<stop offset="1" stop-color="#0000FF"/>
</linearGradient>
<linearGradient id="paint8_linear_62_400" x1="189" y1="0" x2="189" y2="12.5" gradientUnits="userSpaceOnUse">
<stop stop-color="#DE0AF0"/>
<stop offset="1" stop-color="#0000FF"/>
</linearGradient>
<linearGradient id="paint9_linear_62_400" x1="218" y1="0" x2="218" y2="12.5" gradientUnits="userSpaceOnUse">
<stop stop-color="#DE0AF0"/>
<stop offset="1" stop-color="#0000FF"/>
</linearGradient>
<linearGradient id="paint10_linear_62_400" x1="247" y1="0" x2="247" y2="12.5" gradientUnits="userSpaceOnUse">
<stop stop-color="#DE0AF0"/>
<stop offset="1" stop-color="#0000FF"/>
</linearGradient>
<linearGradient id="paint11_linear_62_400" x1="264.5" y1="0" x2="264.5" y2="12.5" gradientUnits="userSpaceOnUse">
<stop stop-color="#DE0AF0"/>
<stop offset="1" stop-color="#0000FF"/>
</linearGradient>
</defs>
</svg>
