<svg width="208" height="512" viewBox="0 0 208 512" fill="none" xmlns="http://www.w3.org/2000/svg">
<path d="M17.4045 244.553L14.5786 247.379V259.212L17.5811 262.215H74.2749L77.454 265.394L53.081 296.302V301.423H47.9591V309.018H44.0735V314.67H39.4815V320.145H34.5363V326.856H29.7676V332.508H24.999V339.219H20.2303V344.694H15.6383V350.523H11.0463V356.174H6.80751V365.359L0.272705 368.538V383.55H15.4617V377.722H20.2303V372.07H25.1756V366.418H29.591V360.766H34.5363V353.878H38.2452V347.52H43.0138V341.692H47.7825V336.217H52.3745V329.505H57.1432V316.436H63.3247L85.0485 286.234H83.8122V283.938H86.2848L88.4042 280.583H92.1132V442.893L94.056 444.836H106.949L108.892 442.893V433.886H107.302V432.649H108.892V431.06H107.302V429.823H108.892V428.234H107.302V426.998H108.892V350.523L109.951 349.463H117.546V341.869H107.302V330.388H109.422V324.913H107.302V321.734H103.593V313.433H107.302V320.851H109.422V280.583H112.071L156.755 340.809H163.996L195.434 383.373H199.673V357.058L188.369 340.809H180.245L174.063 332.685L174.593 331.448H176.183V324.913H168.765L124.434 265.217L126.377 263.274H147.041V259.742H166.998V263.274H183.777L186.78 260.272V247.555L183.777 244.553H17.4045Z" fill="#0000FE" stroke="#0000FE" stroke-width="0.382747"/>
<path d="M80.8097 316.612V313.61H68.4465V316.612H80.8097Z" fill="#0000FE" stroke="#0000FE" stroke-width="0.382747"/>
<path d="M156.225 340.809H147.924L152.163 346.637L156.225 340.809Z" fill="#0000FE" stroke="#0000FE" stroke-width="0.382747"/>
<path d="M46.0963 10.8181H27.7282L24.5491 13.644V26.7136L27.5515 29.7161H138.643L141.646 32.7185V53.3826H152.419V57.9747H141.999V153.347L118.156 184.079V211.101H122.924L160.72 161.119V152.641H159.131V150.698H160.72V148.402H159.131V146.283H160.72V143.987H159.131V142.044H160.72V139.925H159.131V138.335H160.72V67.5119H164.606V63.6264H170.258V61.6836H144.825V60.4473H160.72V41.0195L149.417 29.7161H172.907L175.909 26.7136V13.8206L172.907 10.8181H52.8077V16.9997H46.0963V10.8181Z" fill="#0000FE" stroke="#0100FC" stroke-width="0.765494"/>
<path d="M106.852 127.738V125.972H104.91L99.2578 120.32V50.3803L96.432 47.5544H37.972L35.1461 50.3803V125.972H40.6212V153.348H78.4171V143.81H71.8823V135.333H55.8102L52.9844 132.507V68.2186L55.8102 65.3927H78.4171L81.4196 68.3952V102.306H85.1285V127.738H106.852Z" fill="#0000FE"/>
<path d="M33.9098 127.032H29.4944V139.042H33.9098V127.032Z" fill="#0000FE"/>
<path d="M106.852 127.738V125.972H104.91L99.2578 120.32V50.3803L96.432 47.5544H37.972L35.1461 50.3803V125.972H40.6212V153.348H78.4171V143.81H71.8823V135.333H55.8102L52.9844 132.507V68.2186L55.8102 65.3927H78.4171L81.4196 68.3952V102.306H85.1285V127.738H106.852Z" stroke="#0100FC" stroke-width="0.765494"/>
<path d="M33.9098 127.032H29.4944V139.042H33.9098V127.032Z" stroke="#0100FC" stroke-width="0.765494"/>
<path d="M195.532 7.9304C195.532 8.00994 195.466 8.11932 195.333 8.25852C195.134 8.47727 194.849 8.95786 194.478 9.70028C193.199 12.3187 191.863 14.41 190.471 15.9744C189.569 16.982 188.525 17.9664 187.339 18.9276V20.2102C187.339 20.8002 187.514 21.1714 187.866 21.3239C188.237 21.4896 188.903 21.5724 189.864 21.5724C191.077 21.5724 191.883 21.4432 192.28 21.1847C192.599 20.9858 192.814 20.6345 192.927 20.1307C193.033 19.6733 193.086 18.9673 193.086 18.0128C193.086 17.8338 193.083 17.6449 193.076 17.446C193.262 17.5919 193.586 17.741 194.05 17.8935C194.276 17.9531 194.388 18.0559 194.388 18.2017C194.388 18.2216 194.385 18.2813 194.378 18.3807C194.345 19.6866 194.219 20.6245 194.001 21.1946C193.828 21.6321 193.547 21.9768 193.155 22.2287C192.585 22.6065 191.478 22.7955 189.834 22.7955C188.489 22.7955 187.554 22.6728 187.03 22.4276C186.679 22.2618 186.431 22.0431 186.285 21.7713C186.132 21.4863 186.056 21.0885 186.056 20.5781V19.902C184.611 20.8963 183.129 21.7183 181.611 22.3679C181.432 22.4342 181.323 22.4673 181.283 22.4673C181.23 22.4673 181.137 22.3712 181.005 22.179C180.793 21.8674 180.561 21.6188 180.309 21.4332C182.331 20.6908 184.246 19.6468 186.056 18.3011V12.1662C186.056 11.4635 186.013 10.8935 185.927 10.456C186.384 10.4759 186.842 10.5355 187.299 10.6349C187.471 10.6747 187.557 10.7377 187.557 10.8239C187.557 10.8902 187.524 10.9929 187.458 11.1321C187.378 11.2713 187.339 11.6856 187.339 12.375V17.277C188.134 16.6207 188.84 15.9413 189.457 15.2386C190.862 13.6477 192.131 11.6525 193.265 9.25284C193.649 8.46402 193.905 7.72491 194.03 7.03551C194.494 7.20123 194.929 7.40341 195.333 7.64205C195.466 7.72822 195.532 7.82434 195.532 7.9304ZM198.425 18.6392C198.452 18.6989 198.465 18.7453 198.465 18.7784C198.465 18.858 198.379 18.9342 198.207 19.0071L197.57 19.2955C197.431 19.3684 197.338 19.4048 197.292 19.4048C197.245 19.4048 197.209 19.3617 197.182 19.2756C196.586 16.9953 195.737 14.9635 194.637 13.1804C194.61 13.134 194.597 13.0975 194.597 13.071C194.597 13.0114 194.68 12.9384 194.846 12.8523L195.432 12.5739C195.525 12.5275 195.592 12.5043 195.631 12.5043C195.671 12.5043 195.714 12.5473 195.761 12.6335C196.848 14.357 197.736 16.3589 198.425 18.6392ZM184.008 12.9815C183.497 15.3215 182.798 17.3234 181.91 18.9872C181.877 19.0535 181.837 19.0866 181.79 19.0866C181.757 19.0866 181.678 19.0601 181.552 19.0071L180.896 18.7386C180.73 18.6657 180.647 18.5928 180.647 18.5199C180.647 18.4934 180.657 18.4602 180.677 18.4205C181.247 17.4394 181.701 16.4318 182.039 15.3977C182.278 14.6553 182.506 13.7339 182.725 12.6335C182.745 12.554 182.775 12.5142 182.815 12.5142C182.821 12.5142 182.914 12.5341 183.093 12.5739L183.729 12.7131C183.922 12.7528 184.018 12.8191 184.018 12.9119C184.018 12.9252 184.014 12.9484 184.008 12.9815ZM191.326 7.99006C191.392 8.03646 191.425 8.07623 191.425 8.10938C191.425 8.14252 191.376 8.23201 191.276 8.37784L190.938 8.9446C190.825 9.11695 190.746 9.20313 190.7 9.20313C190.673 9.20313 190.637 9.17992 190.59 9.13352C189.45 8.17898 188.031 7.35038 186.334 6.64773C186.262 6.61458 186.225 6.58144 186.225 6.5483C186.225 6.51515 186.262 6.43892 186.334 6.3196L186.702 5.79261C186.789 5.66004 186.855 5.59375 186.901 5.59375C186.921 5.59375 186.954 5.60369 187.001 5.62358C188.717 6.32623 190.159 7.11506 191.326 7.99006ZM198.147 34.0355C198.147 34.1416 198.094 34.1946 197.988 34.1946L195.293 34.1548H191.913V36.1534H193.295L196.218 36.1136C196.324 36.1136 196.377 36.1667 196.377 36.2727L196.337 37.7642V39.1662L196.377 40.6477C196.377 40.7538 196.324 40.8068 196.218 40.8068L193.295 40.767H185.44L182.506 40.8068C182.4 40.8068 182.347 40.7538 182.347 40.6477L182.387 39.1662V37.7642L182.347 36.2727C182.347 36.1667 182.4 36.1136 182.506 36.1136L185.44 36.1534H186.563V34.1548H183.511L180.826 34.1946C180.713 34.1946 180.657 34.1416 180.657 34.0355V33.1705C180.657 33.0644 180.713 33.0114 180.826 33.0114L183.511 33.0511H195.293L197.988 33.0114C198.094 33.0114 198.147 33.0644 198.147 33.1705V34.0355ZM195.154 39.8125V37.108H191.913V39.8125H195.154ZM190.769 39.8125V37.108H187.707V39.8125H190.769ZM186.563 39.8125V37.108H183.57V39.8125H186.563ZM190.769 36.1534V34.1548H187.707V36.1534H190.769ZM198.415 43.8991C198.415 44.0052 198.359 44.0582 198.246 44.0582L195.641 44.0185H193.384C192.827 45.205 192.121 46.2159 191.266 47.0511C192.652 47.5218 194.428 48.2476 196.596 49.2287C196.669 49.2618 196.705 49.2983 196.705 49.3381C196.705 49.3845 196.669 49.4574 196.596 49.5568L196.188 50.1236C196.056 50.3026 195.973 50.392 195.94 50.392C195.913 50.392 195.877 50.3788 195.83 50.3523C193.828 49.2652 191.995 48.4366 190.332 47.8665C188.442 49.2519 185.632 50.107 181.9 50.4318C181.814 50.4384 181.761 50.4418 181.741 50.4418C181.621 50.4418 181.535 50.4152 181.482 50.3622C181.449 50.3224 181.396 50.223 181.323 50.0639C181.191 49.7789 181.028 49.5502 180.836 49.3778C184.382 49.179 187.07 48.526 188.9 47.419C187.627 47.0743 186.434 46.7959 185.32 46.5838C185.201 46.7429 185.045 46.9318 184.853 47.1506C184.767 47.2367 184.674 47.2798 184.575 47.2798C184.528 47.2798 184.472 47.2732 184.405 47.2599L183.709 47.0909C183.617 47.0777 183.57 47.0313 183.57 46.9517C183.57 46.9119 183.637 46.8224 183.769 46.6832C184.061 46.3651 184.372 45.9872 184.704 45.5497C185.035 45.1387 185.41 44.6283 185.827 44.0185H183.103L180.488 44.0582C180.382 44.0582 180.329 44.0052 180.329 43.8991V43.054C180.329 42.9479 180.382 42.8949 180.488 42.8949L183.103 42.9347H186.523L186.782 42.4872C187.146 41.8641 187.392 41.3205 187.518 40.8565C187.968 40.9295 188.376 41.0388 188.741 41.1847C188.887 41.2377 188.959 41.3106 188.959 41.4034C188.959 41.483 188.893 41.5724 188.761 41.6719C188.595 41.7779 188.369 42.0696 188.084 42.5469L187.846 42.9347H195.641L198.246 42.8949C198.359 42.8949 198.415 42.9479 198.415 43.054V43.8991ZM192.002 44.0185H187.15C186.679 44.7543 186.298 45.3111 186.006 45.6889C187.471 45.9806 188.79 46.2988 189.964 46.6435C190.786 45.9408 191.465 45.0658 192.002 44.0185ZM185.798 63.0739C186.593 63.0076 187.597 62.9115 188.81 62.7855L188.83 64.0483C187.723 64.1809 186.606 64.2737 185.479 64.3267C184.637 67.3958 183.441 70.5412 181.89 73.7628L180.567 73.1463C182.099 70.1965 183.252 67.2798 184.028 64.3963C182.927 64.456 181.827 64.4759 180.726 64.456L180.687 63.1932C181.827 63.233 183.05 63.2197 184.356 63.1534C184.621 62.0199 184.846 60.8731 185.032 59.7131L186.513 59.892C186.328 60.8068 186.089 61.8674 185.798 63.0739ZM190.163 71.4957C190.043 70.044 189.974 68.3139 189.954 66.3054H191.356C191.356 68.0421 191.432 69.8816 191.584 71.8239C193.089 72.4801 194.332 73.2557 195.313 74.1506L194.557 75.5327C193.596 74.5516 192.619 73.8125 191.624 73.3153V73.6534C191.624 75.8144 190.424 76.8949 188.025 76.8949C186.845 76.8949 185.95 76.6132 185.34 76.0497C184.816 75.5724 184.555 74.946 184.555 74.1705C184.555 73.2491 184.985 72.5199 185.847 71.983C186.557 71.5388 187.408 71.3168 188.403 71.3168C189.006 71.3168 189.592 71.3764 190.163 71.4957ZM190.163 72.848C189.533 72.6558 188.969 72.5597 188.472 72.5597C187.544 72.5597 186.851 72.7287 186.394 73.0668C186.023 73.3385 185.837 73.6932 185.837 74.1307C185.837 74.608 186.036 74.9825 186.434 75.2543C186.818 75.5194 187.355 75.652 188.045 75.652C189.47 75.652 190.182 74.9328 190.182 73.4943L190.163 72.848ZM190.242 63.6009L190.888 62.4375C192.817 63.107 194.365 63.8329 195.532 64.6151L194.786 65.8778C193.454 64.9498 191.939 64.1908 190.242 63.6009ZM198.326 102.861C198.034 103.086 197.799 103.361 197.62 103.686C197.501 103.878 197.411 103.974 197.351 103.974C197.279 103.974 197.176 103.928 197.043 103.835C192.88 101.177 190.355 97.4384 189.467 92.6193C188.631 97.6307 186.046 101.363 181.711 103.815C181.545 103.908 181.442 103.955 181.403 103.955C181.356 103.955 181.263 103.852 181.124 103.646C180.912 103.361 180.66 103.119 180.369 102.92C183.219 101.548 185.363 99.4867 186.802 96.7358C188.008 94.4356 188.592 91.8935 188.552 89.1094C188.532 88.0223 188.485 87.2169 188.413 86.6932C188.956 86.7131 189.463 86.7661 189.934 86.8523C190.126 86.8987 190.222 86.9815 190.222 87.1009C190.222 87.1804 190.182 87.313 190.103 87.4986C189.984 87.7704 189.924 88.1515 189.924 88.642C189.924 89.1193 189.914 89.474 189.894 89.706C190.365 92.8414 191.299 95.4863 192.698 97.6406C194.077 99.7751 195.953 101.515 198.326 102.861ZM198.147 129.205C198.147 129.311 198.094 129.364 197.988 129.364L195.293 129.324H183.471L180.776 129.364C180.67 129.364 180.617 129.311 180.617 129.205V128.18C180.617 128.074 180.67 128.021 180.776 128.021L183.471 128.061H188.522V116.845H184.833L181.999 116.885C181.893 116.885 181.84 116.832 181.84 116.726V115.722C181.84 115.616 181.893 115.563 181.999 115.563L184.833 115.602H193.931L196.765 115.563C196.871 115.563 196.924 115.616 196.924 115.722V116.726C196.924 116.832 196.871 116.885 196.765 116.885L193.931 116.845H189.864V128.061H195.293L197.988 128.021C198.094 128.021 198.147 128.074 198.147 128.18V129.205ZM197.53 157.278C197.53 157.391 197.477 157.447 197.371 157.447H196.427C196.321 157.447 196.268 157.391 196.268 157.278V155.857H191.485V157.447C191.485 157.554 191.432 157.607 191.326 157.607H190.401C190.295 157.607 190.242 157.554 190.242 157.447L190.282 151.989V146.629L190.242 142.433C190.242 142.34 190.295 142.294 190.401 142.294L192.609 142.334H195.164L197.371 142.294C197.477 142.294 197.53 142.34 197.53 142.433L197.491 146.122V151.879L197.53 157.278ZM196.268 154.713V143.457H191.485V154.713H196.268ZM189.447 149.224C189.447 149.344 189.394 149.403 189.288 149.403L186.782 149.364H185.698C185.645 149.675 185.612 149.894 185.599 150.02C186.573 152.062 187.823 153.682 189.347 154.882C189.128 155.081 188.94 155.353 188.78 155.697C188.701 155.876 188.631 155.966 188.572 155.966C188.519 155.966 188.423 155.896 188.283 155.757C186.997 154.471 185.986 153.066 185.251 151.541C184.594 153.821 183.279 155.8 181.303 157.477C181.177 157.597 181.088 157.656 181.035 157.656C180.962 157.656 180.869 157.567 180.756 157.388C180.597 157.156 180.365 156.95 180.06 156.771C181.28 155.87 182.231 154.892 182.914 153.838C183.458 152.99 183.878 152.015 184.177 150.915C184.303 150.464 184.409 149.947 184.495 149.364H183.033L180.528 149.403C180.422 149.403 180.369 149.344 180.369 149.224V148.389C180.369 148.29 180.422 148.24 180.528 148.24L183.033 148.28H184.644C184.737 147.16 184.783 145.9 184.783 144.501H182.934C182.51 145.317 182.049 146.039 181.552 146.669C181.426 146.835 181.336 146.918 181.283 146.918C181.237 146.918 181.141 146.858 180.995 146.739C180.809 146.566 180.581 146.43 180.309 146.331C181.535 144.972 182.41 143.348 182.934 141.459C183.053 141.041 183.119 140.657 183.133 140.305C183.564 140.378 183.958 140.484 184.316 140.624C184.455 140.683 184.525 140.753 184.525 140.832C184.525 140.912 184.485 140.991 184.405 141.071C184.266 141.21 184.15 141.436 184.057 141.747C183.872 142.33 183.666 142.887 183.441 143.418H186.663L188.86 143.378C188.966 143.378 189.019 143.431 189.019 143.537V144.372C189.019 144.485 188.966 144.541 188.86 144.541L186.663 144.501H185.967C185.94 146.198 185.887 147.458 185.807 148.28H186.782L189.288 148.24C189.394 148.24 189.447 148.29 189.447 148.389V149.224ZM188.432 183.393C188.432 184.063 188.297 184.504 188.025 184.716C187.693 184.961 186.994 185.084 185.927 185.084C185.728 185.084 185.602 185.061 185.549 185.014C185.509 184.974 185.466 184.862 185.42 184.676C185.347 184.411 185.237 184.152 185.092 183.901C185.529 183.954 185.95 183.98 186.354 183.98C186.712 183.98 186.958 183.911 187.09 183.771C187.209 183.652 187.269 183.45 187.269 183.165V180.868H182.954V182.578L182.994 185.104C182.994 185.21 182.941 185.263 182.834 185.263H181.95C181.843 185.263 181.79 185.21 181.79 185.104L181.83 182.598V176.722L181.79 174.186C181.79 174.08 181.843 174.027 181.95 174.027L184.008 174.067H186.235L188.293 174.027C188.386 174.027 188.432 174.08 188.432 174.186L188.413 176.851V180.709L188.432 183.393ZM187.269 179.893V177.925H182.954V179.893H187.269ZM187.269 176.95V175.081H182.954V176.95H187.269ZM198.306 182.389C198.187 183.317 197.902 183.97 197.451 184.348C196.907 184.766 195.847 184.974 194.269 184.974C192.698 184.974 191.681 184.865 191.217 184.646C190.713 184.421 190.461 183.92 190.461 183.145V178.422C190.461 177.474 190.421 176.788 190.342 176.364C190.812 176.384 191.246 176.423 191.644 176.483C191.81 176.503 191.893 176.566 191.893 176.672C191.893 176.725 191.85 176.848 191.763 177.04C191.697 177.219 191.664 177.673 191.664 178.402V179.705C193.122 179.201 194.418 178.617 195.552 177.955C196.056 177.663 196.417 177.391 196.636 177.139C197.013 177.431 197.292 177.676 197.471 177.875C197.577 177.981 197.63 178.08 197.63 178.173C197.63 178.286 197.54 178.356 197.361 178.382C197.216 178.395 196.911 178.525 196.447 178.77C195.068 179.519 193.474 180.205 191.664 180.828V182.757C191.664 183.221 191.84 183.533 192.191 183.692C192.503 183.811 193.209 183.871 194.309 183.871C195.529 183.871 196.311 183.722 196.655 183.423C196.861 183.238 196.997 182.986 197.063 182.668C197.11 182.436 197.149 182.025 197.182 181.435C197.414 181.594 197.693 181.743 198.018 181.882C198.23 181.968 198.336 182.058 198.336 182.151C198.336 182.184 198.326 182.263 198.306 182.389ZM198.157 172.983C198.097 173.566 198.001 173.997 197.869 174.276C197.769 174.501 197.607 174.71 197.381 174.902C196.924 175.267 195.814 175.449 194.05 175.449C192.559 175.449 191.594 175.366 191.157 175.2C190.878 175.101 190.686 174.952 190.58 174.753C190.474 174.561 190.421 174.276 190.421 173.898V169.403C190.421 168.455 190.381 167.763 190.302 167.325C190.739 167.345 191.164 167.385 191.575 167.445C191.753 167.464 191.843 167.524 191.843 167.624C191.843 167.696 191.803 167.813 191.724 167.972C191.657 168.144 191.624 168.605 191.624 169.354V170.825C193.056 170.328 194.286 169.785 195.313 169.195C195.863 168.87 196.221 168.598 196.387 168.379C196.692 168.625 196.977 168.89 197.242 169.175C197.335 169.268 197.381 169.35 197.381 169.423C197.381 169.529 197.292 169.596 197.113 169.622C196.987 169.649 196.689 169.778 196.218 170.01C195.098 170.6 193.566 171.246 191.624 171.949V173.391C191.624 173.676 191.661 173.875 191.734 173.987C191.8 174.087 191.932 174.166 192.131 174.226C192.416 174.305 193.076 174.345 194.11 174.345C195.489 174.345 196.324 174.209 196.616 173.938C196.854 173.712 197.003 173.076 197.063 172.028C197.275 172.188 197.54 172.337 197.859 172.476C198.071 172.575 198.177 172.685 198.177 172.804C198.177 172.844 198.17 172.903 198.157 172.983ZM189.526 172.456C189.546 172.502 189.556 172.542 189.556 172.575C189.556 172.635 189.5 172.705 189.387 172.784L188.87 173.072C188.757 173.139 188.678 173.172 188.631 173.172C188.585 173.172 188.535 173.125 188.482 173.033C188.356 172.728 188.187 172.38 187.975 171.989C186.152 172.307 184.091 172.598 181.79 172.864C181.366 172.917 181.081 172.993 180.935 173.092C180.862 173.145 180.78 173.172 180.687 173.172C180.607 173.172 180.541 173.089 180.488 172.923C180.395 172.612 180.312 172.221 180.239 171.75C181.081 171.75 181.671 171.733 182.009 171.7C182.665 170.54 183.176 169.483 183.54 168.528C183.719 168.045 183.849 167.584 183.928 167.146C184.319 167.206 184.697 167.305 185.062 167.445C185.254 167.524 185.35 167.614 185.35 167.713C185.35 167.819 185.284 167.929 185.151 168.041C185.039 168.127 184.923 168.303 184.803 168.568C184.266 169.715 183.749 170.719 183.252 171.581C184.869 171.422 186.262 171.253 187.428 171.074C187.137 170.616 186.789 170.143 186.384 169.652C186.358 169.612 186.344 169.579 186.344 169.553C186.344 169.5 186.407 169.437 186.533 169.364L186.961 169.115C187.027 169.075 187.084 169.055 187.13 169.055C187.176 169.055 187.223 169.082 187.269 169.135C188.071 170.017 188.824 171.124 189.526 172.456Z" fill="#0000FE"/>
<path d="M202.779 58.2727L204.103 54.7702H204.652L205.971 58.2727H205.518L205.156 57.3156H203.583L203.222 58.2727H202.779ZM203.716 56.9338H205.024L204.383 55.2182H204.357L203.716 56.9338ZM203.146 71.2727V67.7702H204.754C204.975 67.7702 205.15 67.7973 205.279 67.8516C205.411 67.9025 205.508 67.9772 205.569 68.0756C205.633 68.1706 205.676 68.2826 205.696 68.4116C205.716 68.5406 205.727 68.678 205.727 68.824C205.727 68.9496 205.715 69.0802 205.691 69.216C205.671 69.3483 205.621 69.4688 205.543 69.5774C205.469 69.686 205.35 69.7658 205.187 69.8167L205.778 71.2727H205.309L204.729 69.8014L204.851 69.8625C204.827 69.8693 204.798 69.8744 204.764 69.8778C204.731 69.8812 204.685 69.8829 204.627 69.8829H203.583V71.2727H203.146ZM203.583 69.5011H204.566C204.736 69.5011 204.868 69.4875 204.963 69.4603C205.061 69.4332 205.133 69.3908 205.177 69.3331C205.224 69.2754 205.255 69.2058 205.268 69.1243C205.282 69.0395 205.289 68.9394 205.289 68.824C205.289 68.7086 205.282 68.6102 205.268 68.5287C205.258 68.4439 205.231 68.3743 205.187 68.32C205.146 68.2623 205.078 68.2199 204.983 68.1927C204.892 68.1622 204.764 68.1469 204.602 68.1469H203.583V69.5011ZM203.894 84.2727V81.1571H202.789V80.7702H205.442V81.1571H204.332V84.2727H203.894ZM203.146 97.2727V93.7702H203.583V97.2727H203.146ZM203.146 110.273V106.77H205.319V107.147H203.583V108.394H205.131V108.771H203.583V110.273H203.146ZM203.146 123.273V119.77H203.583V123.273H203.146ZM204.434 136.313C204.189 136.313 203.984 136.3 203.818 136.273C203.651 136.242 203.516 136.191 203.41 136.12C203.305 136.045 203.224 135.942 203.166 135.809C203.112 135.674 203.074 135.501 203.054 135.29C203.034 135.08 203.023 134.823 203.023 134.521C203.023 134.219 203.034 133.965 203.054 133.758C203.074 133.547 203.112 133.376 203.166 133.244C203.224 133.108 203.305 133.003 203.41 132.928C203.516 132.853 203.651 132.802 203.818 132.775C203.984 132.745 204.189 132.729 204.434 132.729C204.529 132.729 204.625 132.733 204.724 132.74C204.826 132.746 204.922 132.755 205.014 132.765C205.106 132.775 205.185 132.789 205.253 132.806V133.157C205.175 133.147 205.094 133.138 205.009 133.132C204.927 133.121 204.846 133.115 204.764 133.111C204.683 133.108 204.61 133.106 204.546 133.106C204.349 133.106 204.184 133.115 204.052 133.132C203.919 133.149 203.814 133.183 203.736 133.233C203.658 133.281 203.599 133.357 203.558 133.463C203.521 133.564 203.495 133.702 203.482 133.875C203.468 134.045 203.461 134.26 203.461 134.521C203.461 134.783 203.468 135 203.482 135.173C203.495 135.343 203.521 135.48 203.558 135.585C203.599 135.687 203.658 135.764 203.736 135.815C203.814 135.862 203.919 135.894 204.052 135.911C204.184 135.928 204.349 135.937 204.546 135.937C204.661 135.937 204.787 135.932 204.922 135.921C205.058 135.911 205.175 135.899 205.274 135.886V136.247C205.202 136.261 205.117 136.271 205.019 136.278C204.924 136.288 204.826 136.296 204.724 136.303C204.622 136.31 204.525 136.313 204.434 136.313ZM203.146 149.273V145.77H203.583V149.273H203.146ZM202.779 162.273L204.103 158.77H204.652L205.971 162.273H205.518L205.156 161.316H203.583L203.222 162.273H202.779ZM203.716 160.934H205.024L204.383 159.218H204.357L203.716 160.934ZM203.146 175.273V171.77H203.583V174.886H205.218V175.273H203.146ZM204.311 188.313C204.186 188.313 204.048 188.31 203.899 188.303C203.75 188.296 203.604 188.288 203.461 188.278C203.322 188.268 203.195 188.256 203.079 188.242V187.871C203.202 187.881 203.329 187.891 203.461 187.901C203.597 187.911 203.728 187.92 203.853 187.927C203.982 187.933 204.091 187.937 204.179 187.937C204.359 187.937 204.503 187.93 204.612 187.916C204.72 187.899 204.812 187.869 204.887 187.825C204.938 187.794 204.975 187.753 204.999 187.703C205.022 187.652 205.036 187.592 205.039 187.524C205.046 187.456 205.05 187.383 205.05 187.305C205.05 187.19 205.046 187.097 205.039 187.025C205.033 186.954 205.014 186.9 204.983 186.863C204.956 186.822 204.91 186.793 204.846 186.776C204.781 186.756 204.695 186.74 204.586 186.73L203.716 186.633C203.553 186.613 203.422 186.579 203.324 186.532C203.225 186.481 203.151 186.418 203.1 186.343C203.052 186.265 203.02 186.174 203.003 186.068C202.986 185.96 202.978 185.839 202.978 185.707C202.978 185.493 203.005 185.322 203.059 185.193C203.117 185.064 203.2 184.965 203.308 184.897C203.417 184.83 203.548 184.785 203.7 184.765C203.857 184.741 204.035 184.729 204.235 184.729C204.364 184.729 204.496 184.733 204.632 184.74C204.768 184.746 204.895 184.757 205.014 184.77C205.136 184.78 205.236 184.794 205.314 184.811V185.172C205.226 185.159 205.124 185.147 205.009 185.137C204.893 185.127 204.775 185.12 204.652 185.116C204.534 185.11 204.42 185.106 204.311 185.106C204.125 185.106 203.974 185.115 203.858 185.132C203.743 185.149 203.651 185.179 203.583 185.223C203.509 185.267 203.461 185.33 203.441 185.412C203.424 185.49 203.415 185.585 203.415 185.697C203.415 185.829 203.424 185.933 203.441 186.007C203.461 186.079 203.502 186.129 203.563 186.16C203.628 186.187 203.723 186.207 203.848 186.221L204.698 186.318C204.82 186.328 204.927 186.345 205.019 186.369C205.114 186.389 205.196 186.425 205.263 186.476C205.331 186.527 205.382 186.599 205.416 186.695C205.436 186.742 205.452 186.795 205.462 186.852C205.472 186.91 205.479 186.975 205.482 187.046C205.489 187.114 205.492 187.19 205.492 187.275C205.492 187.468 205.474 187.63 205.436 187.759C205.399 187.884 205.347 187.984 205.279 188.059C205.211 188.134 205.128 188.19 205.029 188.227C204.931 188.264 204.82 188.288 204.698 188.298C204.58 188.308 204.451 188.313 204.311 188.313ZM203.146 201.273V197.77H203.583V201.273H203.146ZM203.146 214.273V210.77H203.594L205.411 213.453H205.431V210.77H205.854V214.273H205.431L203.588 211.539H203.568V214.273H203.146ZM204.51 227.313C204.262 227.313 204.052 227.3 203.879 227.273C203.706 227.242 203.563 227.19 203.451 227.115C203.342 227.04 203.256 226.937 203.191 226.804C203.13 226.669 203.086 226.497 203.059 226.29C203.035 226.08 203.023 225.823 203.023 225.521C203.023 225.219 203.035 224.965 203.059 224.758C203.086 224.547 203.132 224.376 203.196 224.244C203.261 224.108 203.349 224.003 203.461 223.928C203.573 223.853 203.714 223.802 203.884 223.775C204.057 223.745 204.266 223.729 204.51 223.729C204.625 223.729 204.749 223.735 204.882 223.745C205.014 223.755 205.143 223.767 205.268 223.78C205.397 223.794 205.513 223.811 205.615 223.831V224.188C205.506 224.171 205.396 224.157 205.284 224.147C205.172 224.133 205.067 224.123 204.968 224.116C204.873 224.11 204.792 224.106 204.724 224.106C204.513 224.106 204.333 224.111 204.184 224.121C204.038 224.132 203.918 224.159 203.823 224.203C203.728 224.247 203.655 224.32 203.604 224.422C203.553 224.52 203.516 224.658 203.492 224.834C203.471 225.011 203.461 225.24 203.461 225.521C203.461 225.769 203.468 225.978 203.482 226.148C203.495 226.314 203.522 226.45 203.563 226.555C203.607 226.66 203.667 226.742 203.741 226.799C203.819 226.857 203.921 226.896 204.047 226.916C204.176 226.933 204.333 226.942 204.52 226.942C204.591 226.942 204.669 226.94 204.754 226.937C204.839 226.933 204.922 226.928 205.004 226.921C205.085 226.915 205.153 226.908 205.207 226.901V225.761H204.413V225.389H205.63V227.212C205.518 227.232 205.394 227.251 205.258 227.268C205.126 227.281 204.994 227.291 204.861 227.298C204.732 227.308 204.615 227.313 204.51 227.313ZM203.146 240.273V236.77H203.583V240.273H203.146ZM203.146 253.273V249.77H203.594L205.411 252.453H205.431V249.77H205.854V253.273H205.431L203.588 250.539H203.568V253.273H203.146ZM204.51 266.313C204.262 266.313 204.052 266.3 203.879 266.273C203.706 266.242 203.563 266.19 203.451 266.115C203.342 266.04 203.256 265.937 203.191 265.804C203.13 265.669 203.086 265.497 203.059 265.29C203.035 265.08 203.023 264.823 203.023 264.521C203.023 264.219 203.035 263.965 203.059 263.758C203.086 263.547 203.132 263.376 203.196 263.244C203.261 263.108 203.349 263.003 203.461 262.928C203.573 262.853 203.714 262.802 203.884 262.775C204.057 262.745 204.266 262.729 204.51 262.729C204.625 262.729 204.749 262.735 204.882 262.745C205.014 262.755 205.143 262.767 205.268 262.78C205.397 262.794 205.513 262.811 205.615 262.831V263.188C205.506 263.171 205.396 263.157 205.284 263.147C205.172 263.133 205.067 263.123 204.968 263.116C204.873 263.11 204.792 263.106 204.724 263.106C204.513 263.106 204.333 263.111 204.184 263.121C204.038 263.132 203.918 263.159 203.823 263.203C203.728 263.247 203.655 263.32 203.604 263.422C203.553 263.52 203.516 263.658 203.492 263.834C203.471 264.011 203.461 264.24 203.461 264.521C203.461 264.769 203.468 264.978 203.482 265.148C203.495 265.314 203.522 265.45 203.563 265.555C203.607 265.66 203.667 265.742 203.741 265.799C203.819 265.857 203.921 265.896 204.047 265.916C204.176 265.933 204.333 265.942 204.52 265.942C204.591 265.942 204.669 265.94 204.754 265.937C204.839 265.933 204.922 265.928 205.004 265.921C205.085 265.915 205.153 265.908 205.207 265.901V264.761H204.413V264.389H205.63V266.212C205.518 266.232 205.394 266.251 205.258 266.268C205.126 266.281 204.994 266.291 204.861 266.298C204.732 266.308 204.615 266.313 204.51 266.313ZM204.311 279.313C204.186 279.313 204.048 279.31 203.899 279.303C203.75 279.296 203.604 279.288 203.461 279.278C203.322 279.268 203.195 279.256 203.079 279.242V278.871C203.202 278.881 203.329 278.891 203.461 278.901C203.597 278.911 203.728 278.92 203.853 278.927C203.982 278.933 204.091 278.937 204.179 278.937C204.359 278.937 204.503 278.93 204.612 278.916C204.72 278.899 204.812 278.869 204.887 278.825C204.938 278.794 204.975 278.753 204.999 278.703C205.022 278.652 205.036 278.592 205.039 278.524C205.046 278.456 205.05 278.383 205.05 278.305C205.05 278.19 205.046 278.097 205.039 278.025C205.033 277.954 205.014 277.9 204.983 277.863C204.956 277.822 204.91 277.793 204.846 277.776C204.781 277.756 204.695 277.74 204.586 277.73L203.716 277.633C203.553 277.613 203.422 277.579 203.324 277.532C203.225 277.481 203.151 277.418 203.1 277.343C203.052 277.265 203.02 277.174 203.003 277.068C202.986 276.96 202.978 276.839 202.978 276.707C202.978 276.493 203.005 276.322 203.059 276.193C203.117 276.064 203.2 275.965 203.308 275.897C203.417 275.83 203.548 275.785 203.7 275.765C203.857 275.741 204.035 275.729 204.235 275.729C204.364 275.729 204.496 275.733 204.632 275.74C204.768 275.746 204.895 275.757 205.014 275.77C205.136 275.78 205.236 275.794 205.314 275.811V276.172C205.226 276.159 205.124 276.147 205.009 276.137C204.893 276.127 204.775 276.12 204.652 276.116C204.534 276.11 204.42 276.106 204.311 276.106C204.125 276.106 203.974 276.115 203.858 276.132C203.743 276.149 203.651 276.179 203.583 276.223C203.509 276.267 203.461 276.33 203.441 276.412C203.424 276.49 203.415 276.585 203.415 276.697C203.415 276.829 203.424 276.933 203.441 277.007C203.461 277.079 203.502 277.129 203.563 277.16C203.628 277.187 203.723 277.207 203.848 277.221L204.698 277.318C204.82 277.328 204.927 277.345 205.019 277.369C205.114 277.389 205.196 277.425 205.263 277.476C205.331 277.527 205.382 277.599 205.416 277.695C205.436 277.742 205.452 277.795 205.462 277.852C205.472 277.91 205.479 277.975 205.482 278.046C205.489 278.114 205.492 278.19 205.492 278.275C205.492 278.468 205.474 278.63 205.436 278.759C205.399 278.884 205.347 278.984 205.279 279.059C205.211 279.134 205.128 279.19 205.029 279.227C204.931 279.264 204.82 279.288 204.698 279.298C204.58 279.308 204.451 279.313 204.311 279.313ZM203.965 292.273V290.934L202.698 288.77H203.166L204.179 290.496H204.215L205.218 288.77H205.676L204.403 290.934V292.273H203.965ZM203.146 305.273V301.77H203.594L205.411 304.453H205.431V301.77H205.854V305.273H205.431L203.588 302.539H203.568V305.273H203.146ZM203.894 318.273V315.157H202.789V314.77H205.442V315.157H204.332V318.273H203.894ZM203.146 331.273V327.77H203.583V329.313H205.416V327.77H205.854V331.273H205.416V329.7H203.583V331.273H203.146ZM203.146 344.273V340.77H205.421V341.147H203.583V342.313H205.182V342.695H203.583V343.896H205.421V344.273H203.146ZM204.311 357.313C204.186 357.313 204.048 357.31 203.899 357.303C203.75 357.296 203.604 357.288 203.461 357.278C203.322 357.268 203.195 357.256 203.079 357.242V356.871C203.202 356.881 203.329 356.891 203.461 356.901C203.597 356.911 203.728 356.92 203.853 356.927C203.982 356.933 204.091 356.937 204.179 356.937C204.359 356.937 204.503 356.93 204.612 356.916C204.72 356.899 204.812 356.869 204.887 356.825C204.938 356.794 204.975 356.753 204.999 356.703C205.022 356.652 205.036 356.592 205.039 356.524C205.046 356.456 205.05 356.383 205.05 356.305C205.05 356.19 205.046 356.097 205.039 356.025C205.033 355.954 205.014 355.9 204.983 355.863C204.956 355.822 204.91 355.793 204.846 355.776C204.781 355.756 204.695 355.74 204.586 355.73L203.716 355.633C203.553 355.613 203.422 355.579 203.324 355.532C203.225 355.481 203.151 355.418 203.1 355.343C203.052 355.265 203.02 355.174 203.003 355.068C202.986 354.96 202.978 354.839 202.978 354.707C202.978 354.493 203.005 354.322 203.059 354.193C203.117 354.064 203.2 353.965 203.308 353.897C203.417 353.83 203.548 353.785 203.7 353.765C203.857 353.741 204.035 353.729 204.235 353.729C204.364 353.729 204.496 353.733 204.632 353.74C204.768 353.746 204.895 353.757 205.014 353.77C205.136 353.78 205.236 353.794 205.314 353.811V354.172C205.226 354.159 205.124 354.147 205.009 354.137C204.893 354.127 204.775 354.12 204.652 354.116C204.534 354.11 204.42 354.106 204.311 354.106C204.125 354.106 203.974 354.115 203.858 354.132C203.743 354.149 203.651 354.179 203.583 354.223C203.509 354.267 203.461 354.33 203.441 354.412C203.424 354.49 203.415 354.585 203.415 354.697C203.415 354.829 203.424 354.933 203.441 355.007C203.461 355.079 203.502 355.129 203.563 355.16C203.628 355.187 203.723 355.207 203.848 355.221L204.698 355.318C204.82 355.328 204.927 355.345 205.019 355.369C205.114 355.389 205.196 355.425 205.263 355.476C205.331 355.527 205.382 355.599 205.416 355.695C205.436 355.742 205.452 355.795 205.462 355.852C205.472 355.91 205.479 355.975 205.482 356.046C205.489 356.114 205.492 356.19 205.492 356.275C205.492 356.468 205.474 356.63 205.436 356.759C205.399 356.884 205.347 356.984 205.279 357.059C205.211 357.134 205.128 357.19 205.029 357.227C204.931 357.264 204.82 357.288 204.698 357.298C204.58 357.308 204.451 357.313 204.311 357.313ZM203.146 370.273V366.77H203.583V370.273H203.146ZM202.906 383.273V382.911L204.882 380.147H202.962V379.77H205.436V380.121L203.456 382.896H205.467V383.273H202.906ZM203.146 396.273V392.77H205.421V393.147H203.583V394.313H205.182V394.695H203.583V395.896H205.421V396.273H203.146ZM203.146 409.273V405.77H204.754C204.975 405.77 205.15 405.797 205.279 405.852C205.411 405.903 205.508 405.977 205.569 406.076C205.633 406.171 205.676 406.283 205.696 406.412C205.716 406.541 205.727 406.678 205.727 406.824C205.727 406.95 205.715 407.08 205.691 407.216C205.671 407.348 205.621 407.469 205.543 407.577C205.469 407.686 205.35 407.766 205.187 407.817L205.778 409.273H205.309L204.729 407.801L204.851 407.863C204.827 407.869 204.798 407.874 204.764 407.878C204.731 407.881 204.685 407.883 204.627 407.883H203.583V409.273H203.146ZM203.583 407.501H204.566C204.736 407.501 204.868 407.487 204.963 407.46C205.061 407.433 205.133 407.391 205.177 407.333C205.224 407.275 205.255 407.206 205.268 407.124C205.282 407.039 205.289 406.939 205.289 406.824C205.289 406.709 205.282 406.61 205.268 406.529C205.258 406.444 205.231 406.374 205.187 406.32C205.146 406.262 205.078 406.22 204.983 406.193C204.892 406.162 204.764 406.147 204.602 406.147H203.583V407.501Z" fill="#0000FE"/>
<path d="M80.1365 484.591H85.5456L79.1819 497.954L85.5456 511H80.4547L74.7274 499.227V496.364L80.1365 484.591Z" fill="#0000FE"/>
<path d="M69.6365 484.909H74.091V511H69.6365V484.909Z" fill="#0000FE"/>
<path d="M102.091 511H97.0001L93.8183 496.364H93.1819L90.0001 511H85.8637L85.2274 509.727L91.2728 484.909H96.3637L102.091 511Z" fill="#0000FE"/>
<path d="M80.1365 484.591H85.5456L79.1819 497.954L85.5456 511H80.4547L74.7274 499.227V496.364L80.1365 484.591Z" stroke="#0000FE" stroke-width="0.636364"/>
<path d="M69.6365 484.909H74.091V511H69.6365V484.909Z" stroke="#0000FE" stroke-width="0.636364"/>
<path d="M102.091 511H97.0001L93.8183 496.364H93.1819L90.0001 511H85.8637L85.2274 509.727L91.2728 484.909H96.3637L102.091 511Z" stroke="#0000FE" stroke-width="0.636364"/>
<path d="M109.409 511H104V484.591H118.318V489.045H109.091V495.091H117.364V500.182H109.409V511Z" fill="#0000FE"/>
<path d="M119.909 486.182V484.273H125.636V486.182H123.727V506.545H124.364V507.182H125.636V508.455H130.727V507.182H132.636V487.136L131.364 486.182V484.273H138.364V485.545L137.091 486.818V505.909H135.818V507.818H134.545V509.727H132.636V511H125V509.727H123.727V508.455H122.455V505.909H121.182V486.182H119.909Z" fill="#0000FE"/>
<path d="M109.409 511H104V484.591H118.318V489.045H109.091V495.091H117.364V500.182H109.409V511Z" stroke="#0000FE" stroke-width="0.636364"/>
<path d="M119.909 486.182V484.273H125.636V486.182H123.727V506.545H124.364V507.182H125.636V508.455H130.727V507.182H132.636V487.136L131.364 486.182V484.273H138.364V485.545L137.091 486.818V505.909H135.818V507.818H134.545V509.727H132.636V511H125V509.727H123.727V508.455H122.455V505.909H121.182V486.182H119.909Z" stroke="#0000FE" stroke-width="0.636364"/>
</svg>
