<svg width="30" height="23" viewBox="0 0 30 23" fill="none" xmlns="http://www.w3.org/2000/svg">
<path id="discord-log" d="M25.0219 1.91211C25.0219 1.91211 29.5942 7.20783 29.5942 16.747V18.7474C29.5942 18.7474 23.82 22.5102 22.0603 22.5102L20.3531 20.0281C21.4141 19.553 22.8615 18.7282 22.8615 18.7282L22.3327 18.3188C22.3327 18.3188 18.9496 19.8862 14.7976 19.8862C10.6457 19.8862 7.26263 18.3188 7.26263 18.3188L6.73378 18.7282C6.73378 18.7282 8.18115 19.553 9.24216 20.0281L7.53501 22.5102C5.77416 22.5102 0 18.7474 0 18.7474V16.747C0 7.20783 4.5723 1.91211 4.5723 1.91211C4.5723 1.91211 7.69997 0.398426 10.5881 0L11.4842 1.69893C11.4842 1.69893 12.9085 1.36901 14.7971 1.36901C16.6856 1.36901 18.11 1.69893 18.11 1.69893L19.0061 0C21.8942 0.398426 25.0219 1.91211 25.0219 1.91211ZM9.87021 15.3534C11.3258 15.3534 12.5052 14.0282 12.5052 12.3934C12.5052 10.7586 11.3253 9.43342 9.87021 9.43342C8.41516 9.43342 7.23523 10.7586 7.23523 12.3934C7.23523 14.0282 8.41462 15.3534 9.87021 15.3534ZM19.724 15.3534C21.1796 15.3534 22.359 14.0282 22.359 12.3934C22.359 10.7586 21.179 9.43342 19.724 9.43342C18.2684 9.43342 17.089 10.7586 17.089 12.3934C17.089 14.0282 18.2684 15.3534 19.724 15.3534Z" fill="#0000FE"/>
</svg>
