<svg width="33" height="36" viewBox="0 0 33 36" fill="none" xmlns="http://www.w3.org/2000/svg">
<path id="Ellipse 5" d="M23.2104 35.409C25.5749 34.095 27.6232 32.2794 29.2114 30.0897C30.7997 27.9 31.8894 25.3891 32.4041 22.7335C32.9189 20.0778 32.8461 17.3417 32.191 14.7171C31.5358 12.0926 30.3142 9.64325 28.6118 7.54103C26.9094 5.4388 24.7676 3.73466 22.3365 2.54821C19.9055 1.36176 17.2443 0.721769 14.5397 0.673155C11.835 0.624542 9.15252 1.16849 6.68045 2.2668C4.20838 3.36512 2.00665 4.9912 0.229824 7.03088L4.77478 10.9901C5.97382 9.6137 7.45959 8.5164 9.12779 7.77523C10.796 7.03406 12.6062 6.667 14.4313 6.69981C16.2565 6.73261 18.0523 7.16449 19.6928 7.96513C21.3333 8.76577 22.7787 9.91576 23.9275 11.3344C25.0763 12.753 25.9007 14.4059 26.3428 16.177C26.7849 17.9481 26.834 19.7945 26.4866 21.5865C26.1393 23.3786 25.4039 25.073 24.3321 26.5507C23.2603 28.0283 21.8781 29.2535 20.2825 30.1402L23.2104 35.409Z" fill="url(#paint0_linear_62_428)"/>
<defs>
<linearGradient id="paint0_linear_62_428" x1="30.4091" y1="10.2026" x2="-1.99601" y2="28.2102" gradientUnits="userSpaceOnUse">
<stop stop-color="#0000FE"/>
<stop offset="0.607292" stop-color="#F510EC"/>
</linearGradient>
</defs>
</svg>
