<svg width="693" height="539" viewBox="0 0 693 539" fill="none" xmlns="http://www.w3.org/2000/svg">
<path d="M360.773 187.297L356.332 191.738V210.333L361.05 215.051H450.141L455.136 220.047L416.836 268.616V276.665H408.787V288.599H402.681V297.481H395.465V306.084H387.694V316.631H380.201V325.512H372.707V336.059H365.214V344.662H357.998V353.821H350.781V362.702H344.121V377.135L333.852 382.13V405.721H357.72V396.562H365.214V387.681H372.985V378.8H379.923V369.918H387.694V359.094H393.523V349.103H401.016V339.944H408.51V331.34H415.726V320.794H423.219V300.256H432.933L467.071 252.797H465.128V249.189H469.013L472.344 243.915H478.172V498.975L481.225 502.027H501.486L504.539 498.975V484.82H502.041V482.877H504.539V480.379H502.041V478.437H504.539V475.939H502.041V473.996H504.539V353.821L506.204 352.156H518.138V340.222H502.041V322.182H505.371V313.578H502.041V308.582H496.212V295.538H502.041V307.194H505.371V243.915H509.534L579.752 338.556H591.131L640.533 405.444H647.194V364.09L629.432 338.556H616.665L606.951 325.79L607.783 323.847H610.281V313.578H598.625L528.962 219.769L532.015 216.716H564.487V211.166H595.849V216.716H622.215L626.934 211.998V192.015L622.215 187.297H360.773Z" fill="#0000FE" stroke="#0000FE" stroke-width="0.601459"/>
<path d="M460.41 300.534V295.815H440.982V300.534H460.41Z" fill="#0000FE" stroke="#0000FE" stroke-width="0.601459"/>
<path d="M578.919 338.557H565.875L572.536 347.715L578.919 338.557Z" fill="#0000FE" stroke="#0000FE" stroke-width="0.601459"/>
<path d="M78.8599 187.297H49.9957L45 191.738V212.276L49.7182 216.994H224.291L229.009 221.712V254.184H245.939V261.4H229.564V411.272L192.096 459.564V502.027H199.59L258.983 423.484V410.162H256.485V407.109H258.983V403.501H256.485V400.17H258.983V396.562H256.485V393.509H258.983V390.179H256.485V387.681H258.983V276.388H265.089V270.282H273.97V267.229H234.005V265.286H258.983V234.757L241.221 216.994H278.133L282.852 212.276V192.015L278.133 187.297H89.4064V197.011H78.8599V187.297Z" fill="#0000FE" stroke="#0100FC" stroke-width="1.20292"/>
<path d="M174.333 371.029V368.253H171.281L162.399 359.372V249.466L157.959 245.026H66.0929L61.6523 249.466V368.253H70.256V411.272H129.65V396.285H119.381V382.963H94.1244L89.6838 378.522V277.498L94.1244 273.057H129.65L134.368 277.775V331.063H140.196V371.029H174.333Z" fill="#0000FE"/>
<path d="M59.7095 369.918H52.771V388.791H59.7095V369.918Z" fill="#0000FE"/>
<path d="M174.333 371.029V368.253H171.281L162.399 359.372V249.466L157.959 245.026H66.0929L61.6523 249.466V368.253H70.256V411.272H129.65V396.285H119.381V382.963H94.1244L89.6838 378.522V277.498L94.1244 273.057H129.65L134.368 277.775V331.063H140.196V371.029H174.333Z" stroke="#0100FC" stroke-width="1.20292"/>
<path d="M59.7095 369.918H52.771V388.791H59.7095V369.918Z" stroke="#0100FC" stroke-width="1.20292"/>
<path d="M216.109 86.3633C216.109 86.5195 215.979 86.7344 215.719 87.0078C215.328 87.4375 214.768 88.3815 214.039 89.8398C211.526 94.9831 208.902 99.0911 206.168 102.164C204.397 104.143 202.346 106.077 200.016 107.965V110.484C200.016 111.643 200.361 112.372 201.051 112.672C201.78 112.997 203.089 113.16 204.977 113.16C207.359 113.16 208.941 112.906 209.723 112.398C210.348 112.008 210.771 111.318 210.992 110.328C211.201 109.43 211.305 108.043 211.305 106.168C211.305 105.816 211.298 105.445 211.285 105.055C211.65 105.341 212.288 105.634 213.199 105.934C213.642 106.051 213.863 106.253 213.863 106.539C213.863 106.578 213.857 106.695 213.844 106.891C213.779 109.456 213.531 111.298 213.102 112.418C212.763 113.277 212.21 113.954 211.441 114.449C210.322 115.191 208.147 115.562 204.918 115.562C202.275 115.562 200.439 115.322 199.41 114.84C198.72 114.514 198.232 114.085 197.945 113.551C197.646 112.991 197.496 112.21 197.496 111.207V109.879C194.658 111.832 191.747 113.447 188.766 114.723C188.414 114.853 188.199 114.918 188.121 114.918C188.017 114.918 187.835 114.729 187.574 114.352C187.158 113.74 186.702 113.251 186.207 112.887C190.178 111.428 193.941 109.378 197.496 106.734V94.6836C197.496 93.3034 197.411 92.1836 197.242 91.3242C198.141 91.3633 199.039 91.4805 199.938 91.6758C200.276 91.7539 200.445 91.8776 200.445 92.0469C200.445 92.1771 200.38 92.3789 200.25 92.6523C200.094 92.9258 200.016 93.7396 200.016 95.0938V104.723C201.578 103.434 202.965 102.099 204.176 100.719C206.936 97.5938 209.43 93.6745 211.656 88.9609C212.411 87.4115 212.913 85.9596 213.16 84.6055C214.072 84.931 214.924 85.3281 215.719 85.7969C215.979 85.9661 216.109 86.1549 216.109 86.3633ZM221.793 107.398C221.845 107.516 221.871 107.607 221.871 107.672C221.871 107.828 221.702 107.978 221.363 108.121L220.113 108.688C219.84 108.831 219.658 108.902 219.566 108.902C219.475 108.902 219.404 108.818 219.352 108.648C218.18 104.169 216.513 100.178 214.352 96.6758C214.299 96.5846 214.273 96.513 214.273 96.4609C214.273 96.3438 214.436 96.2005 214.762 96.0312L215.914 95.4844C216.096 95.3932 216.227 95.3477 216.305 95.3477C216.383 95.3477 216.467 95.4323 216.559 95.6016C218.694 98.987 220.439 102.919 221.793 107.398ZM193.473 96.2852C192.47 100.882 191.096 104.814 189.352 108.082C189.286 108.212 189.208 108.277 189.117 108.277C189.052 108.277 188.896 108.225 188.648 108.121L187.359 107.594C187.034 107.451 186.871 107.307 186.871 107.164C186.871 107.112 186.891 107.047 186.93 106.969C188.049 105.042 188.941 103.062 189.605 101.031C190.074 99.5729 190.523 97.763 190.953 95.6016C190.992 95.4453 191.051 95.3672 191.129 95.3672C191.142 95.3672 191.324 95.4062 191.676 95.4844L192.926 95.7578C193.303 95.8359 193.492 95.9661 193.492 96.1484C193.492 96.1745 193.486 96.2201 193.473 96.2852ZM207.848 86.4805C207.978 86.5716 208.043 86.6497 208.043 86.7148C208.043 86.7799 207.945 86.9557 207.75 87.2422L207.086 88.3555C206.865 88.694 206.708 88.8633 206.617 88.8633C206.565 88.8633 206.493 88.8177 206.402 88.7266C204.163 86.8516 201.376 85.224 198.043 83.8438C197.9 83.7786 197.828 83.7135 197.828 83.6484C197.828 83.5833 197.9 83.4336 198.043 83.1992L198.766 82.1641C198.935 81.9036 199.065 81.7734 199.156 81.7734C199.195 81.7734 199.26 81.793 199.352 81.832C202.724 83.2122 205.556 84.7617 207.848 86.4805ZM267.446 84.6055C267.446 84.8138 267.342 84.918 267.134 84.918L261.841 84.8398H255.2V88.7656H257.915L263.657 88.6875C263.865 88.6875 263.97 88.7917 263.97 89L263.891 91.9297V94.6836L263.97 97.5938C263.97 97.8021 263.865 97.9062 263.657 97.9062L257.915 97.8281H242.485L236.723 97.9062C236.515 97.9062 236.411 97.8021 236.411 97.5938L236.489 94.6836V91.9297L236.411 89C236.411 88.7917 236.515 88.6875 236.723 88.6875L242.485 88.7656H244.692V84.8398H238.696L233.423 84.918C233.201 84.918 233.091 84.8138 233.091 84.6055V82.9062C233.091 82.6979 233.201 82.5938 233.423 82.5938L238.696 82.6719H261.841L267.134 82.5938C267.342 82.5938 267.446 82.6979 267.446 82.9062V84.6055ZM261.567 95.9531V90.6406H255.2V95.9531H261.567ZM252.954 95.9531V90.6406H246.938V95.9531H252.954ZM244.692 95.9531V90.6406H238.813V95.9531H244.692ZM252.954 88.7656V84.8398H246.938V88.7656H252.954ZM267.973 103.98C267.973 104.189 267.863 104.293 267.641 104.293L262.524 104.215H258.091C256.997 106.546 255.61 108.531 253.93 110.172C256.652 111.096 260.141 112.522 264.399 114.449C264.542 114.514 264.614 114.586 264.614 114.664C264.614 114.755 264.542 114.898 264.399 115.094L263.598 116.207C263.338 116.559 263.175 116.734 263.11 116.734C263.058 116.734 262.986 116.708 262.895 116.656C258.963 114.521 255.363 112.893 252.095 111.773C248.384 114.495 242.863 116.174 235.532 116.812C235.363 116.826 235.259 116.832 235.22 116.832C234.985 116.832 234.816 116.78 234.712 116.676C234.647 116.598 234.542 116.402 234.399 116.09C234.139 115.53 233.82 115.081 233.442 114.742C240.408 114.352 245.688 113.069 249.282 110.895C246.782 110.217 244.438 109.671 242.251 109.254C242.016 109.566 241.71 109.938 241.333 110.367C241.164 110.536 240.981 110.621 240.786 110.621C240.695 110.621 240.584 110.608 240.454 110.582L239.087 110.25C238.904 110.224 238.813 110.133 238.813 109.977C238.813 109.898 238.943 109.723 239.204 109.449C239.777 108.824 240.389 108.082 241.04 107.223C241.691 106.415 242.427 105.413 243.247 104.215H237.895L232.759 104.293C232.55 104.293 232.446 104.189 232.446 103.98V102.32C232.446 102.112 232.55 102.008 232.759 102.008L237.895 102.086H244.614L245.122 101.207C245.838 99.9831 246.32 98.9154 246.567 98.0039C247.453 98.1471 248.253 98.362 248.97 98.6484C249.256 98.7526 249.399 98.8958 249.399 99.0781C249.399 99.2344 249.269 99.4102 249.009 99.6055C248.683 99.8138 248.24 100.387 247.68 101.324L247.212 102.086H262.524L267.641 102.008C267.863 102.008 267.973 102.112 267.973 102.32V103.98ZM255.376 104.215H245.845C244.92 105.66 244.171 106.754 243.598 107.496C246.476 108.069 249.067 108.694 251.372 109.371C252.986 107.991 254.321 106.272 255.376 104.215ZM289.388 88.6094C290.951 88.4792 292.923 88.2904 295.306 88.043L295.345 90.5234C293.171 90.7839 290.977 90.9661 288.763 91.0703C287.11 97.099 284.759 103.277 281.713 109.605L279.115 108.395C282.123 102.6 284.388 96.8711 285.912 91.207C283.75 91.3242 281.589 91.3633 279.427 91.3242L279.349 88.8438C281.589 88.9219 283.991 88.8958 286.556 88.7656C287.077 86.5391 287.52 84.2865 287.884 82.0078L290.795 82.3594C290.43 84.1562 289.961 86.2396 289.388 88.6094ZM297.963 105.152C297.728 102.301 297.591 98.9023 297.552 94.957H300.306C300.306 98.3685 300.456 101.982 300.755 105.797C303.711 107.086 306.153 108.609 308.08 110.367L306.595 113.082C304.707 111.155 302.787 109.703 300.834 108.727V109.391C300.834 113.635 298.477 115.758 293.763 115.758C291.446 115.758 289.688 115.204 288.49 114.098C287.461 113.16 286.947 111.93 286.947 110.406C286.947 108.596 287.793 107.164 289.486 106.109C290.879 105.237 292.552 104.801 294.505 104.801C295.69 104.801 296.843 104.918 297.963 105.152ZM297.963 107.809C296.726 107.431 295.619 107.242 294.642 107.242C292.819 107.242 291.459 107.574 290.56 108.238C289.831 108.772 289.466 109.469 289.466 110.328C289.466 111.266 289.857 112.001 290.638 112.535C291.393 113.056 292.448 113.316 293.802 113.316C296.602 113.316 298.002 111.904 298.002 109.078L297.963 107.809ZM298.119 89.6445L299.388 87.3594C303.177 88.6745 306.218 90.1003 308.509 91.6367L307.045 94.1172C304.427 92.2943 301.452 90.8034 298.119 89.6445ZM354.416 113.727C353.843 114.169 353.381 114.71 353.03 115.348C352.795 115.725 352.62 115.914 352.502 115.914C352.359 115.914 352.157 115.823 351.897 115.641C343.72 110.419 338.759 103.076 337.014 93.6094C335.373 103.453 330.295 110.784 321.78 115.602C321.454 115.784 321.252 115.875 321.174 115.875C321.083 115.875 320.901 115.673 320.627 115.27C320.211 114.71 319.716 114.234 319.143 113.844C324.742 111.148 328.954 107.099 331.78 101.695C334.149 97.1771 335.295 92.1836 335.217 86.7148C335.178 84.5794 335.087 82.9974 334.944 81.9688C336.011 82.0078 337.008 82.112 337.932 82.2812C338.31 82.3724 338.498 82.5352 338.498 82.7695C338.498 82.9258 338.42 83.1862 338.264 83.5508C338.03 84.0846 337.913 84.8333 337.913 85.7969C337.913 86.7344 337.893 87.431 337.854 87.8867C338.778 94.0456 340.614 99.2409 343.362 103.473C346.07 107.665 349.755 111.083 354.416 113.727ZM400.265 112.438C400.265 112.646 400.161 112.75 399.952 112.75L394.659 112.672H371.437L366.144 112.75C365.935 112.75 365.831 112.646 365.831 112.438V110.426C365.831 110.217 365.935 110.113 366.144 110.113L371.437 110.191H381.359V88.1602H374.113L368.546 88.2383C368.338 88.2383 368.234 88.1341 368.234 87.9258V85.9531C368.234 85.7448 368.338 85.6406 368.546 85.6406L374.113 85.7188H391.984L397.55 85.6406C397.758 85.6406 397.863 85.7448 397.863 85.9531V87.9258C397.863 88.1341 397.758 88.2383 397.55 88.2383L391.984 88.1602H383.995V110.191H394.659L399.952 110.113C400.161 110.113 400.265 110.217 400.265 110.426V112.438ZM445.254 114.547C445.254 114.768 445.15 114.879 444.941 114.879H443.086C442.878 114.879 442.773 114.768 442.773 114.547V111.754H433.379V114.879C433.379 115.087 433.275 115.191 433.066 115.191H431.25C431.042 115.191 430.938 115.087 430.938 114.879L431.016 104.156V93.6289L430.938 85.3867C430.938 85.2044 431.042 85.1133 431.25 85.1133L435.586 85.1914H440.605L444.941 85.1133C445.15 85.1133 445.254 85.2044 445.254 85.3867L445.176 92.6328V103.941L445.254 114.547ZM442.773 109.508V87.3984H433.379V109.508H442.773ZM429.375 98.7266C429.375 98.9609 429.271 99.0781 429.062 99.0781L424.141 99H422.012C421.908 99.612 421.842 100.042 421.816 100.289C423.73 104.299 426.185 107.483 429.18 109.84C428.75 110.23 428.379 110.764 428.066 111.441C427.91 111.793 427.773 111.969 427.656 111.969C427.552 111.969 427.363 111.832 427.09 111.559C424.564 109.033 422.578 106.272 421.133 103.277C419.844 107.757 417.259 111.643 413.379 114.938C413.132 115.172 412.956 115.289 412.852 115.289C412.708 115.289 412.526 115.113 412.305 114.762C411.992 114.306 411.536 113.902 410.938 113.551C413.333 111.78 415.202 109.859 416.543 107.789C417.611 106.122 418.438 104.208 419.023 102.047C419.271 101.161 419.479 100.146 419.648 99H416.777L411.855 99.0781C411.647 99.0781 411.543 98.9609 411.543 98.7266V97.0859C411.543 96.8906 411.647 96.793 411.855 96.793L416.777 96.8711H419.941C420.124 94.6706 420.215 92.1966 420.215 89.4492H416.582C415.749 91.0508 414.844 92.4701 413.867 93.707C413.62 94.0326 413.444 94.1953 413.34 94.1953C413.249 94.1953 413.06 94.0781 412.773 93.8438C412.409 93.5052 411.96 93.2383 411.426 93.043C413.835 90.3737 415.553 87.1836 416.582 83.4727C416.816 82.6523 416.947 81.8971 416.973 81.207C417.819 81.3503 418.594 81.5586 419.297 81.832C419.57 81.9492 419.707 82.0859 419.707 82.2422C419.707 82.3984 419.629 82.5547 419.473 82.7109C419.199 82.9844 418.971 83.4271 418.789 84.0391C418.424 85.1849 418.021 86.2786 417.578 87.3203H423.906L428.223 87.2422C428.431 87.2422 428.535 87.3464 428.535 87.5547V89.1953C428.535 89.4167 428.431 89.5273 428.223 89.5273L423.906 89.4492H422.539C422.487 92.7826 422.383 95.2565 422.227 96.8711H424.141L429.062 96.793C429.271 96.793 429.375 96.8906 429.375 97.0859V98.7266ZM473.583 112.809C473.583 114.124 473.316 114.99 472.782 115.406C472.131 115.888 470.757 116.129 468.661 116.129C468.27 116.129 468.023 116.083 467.919 115.992C467.841 115.914 467.756 115.693 467.665 115.328C467.522 114.807 467.307 114.299 467.02 113.805C467.88 113.909 468.707 113.961 469.501 113.961C470.204 113.961 470.686 113.824 470.946 113.551C471.18 113.316 471.298 112.919 471.298 112.359V107.848H462.821V111.207L462.899 116.168C462.899 116.376 462.795 116.48 462.587 116.48H460.848C460.64 116.48 460.536 116.376 460.536 116.168L460.614 111.246V99.7031L460.536 94.7227C460.536 94.5143 460.64 94.4102 460.848 94.4102L464.891 94.4883H469.266L473.309 94.4102C473.492 94.4102 473.583 94.5143 473.583 94.7227L473.544 99.957V107.535L473.583 112.809ZM471.298 105.934V102.066H462.821V105.934H471.298ZM471.298 100.152V96.4805H462.821V100.152H471.298ZM492.977 110.836C492.743 112.659 492.183 113.941 491.298 114.684C490.23 115.504 488.147 115.914 485.048 115.914C481.962 115.914 479.963 115.699 479.052 115.27C478.062 114.827 477.567 113.844 477.567 112.32V103.043C477.567 101.181 477.489 99.8333 477.333 99C478.257 99.0391 479.11 99.1172 479.891 99.2344C480.217 99.2734 480.38 99.3971 480.38 99.6055C480.38 99.7096 480.295 99.9505 480.126 100.328C479.996 100.68 479.93 101.572 479.93 103.004V105.562C482.795 104.573 485.341 103.427 487.567 102.125C488.557 101.552 489.266 101.018 489.696 100.523C490.438 101.096 490.985 101.578 491.337 101.969C491.545 102.177 491.649 102.372 491.649 102.555C491.649 102.776 491.473 102.913 491.122 102.965C490.835 102.991 490.236 103.245 489.325 103.727C486.617 105.198 483.485 106.546 479.93 107.77V111.559C479.93 112.47 480.276 113.082 480.966 113.395C481.578 113.629 482.964 113.746 485.126 113.746C487.522 113.746 489.058 113.453 489.735 112.867C490.139 112.503 490.406 112.008 490.536 111.383C490.627 110.927 490.705 110.12 490.77 108.961C491.226 109.273 491.773 109.566 492.411 109.84C492.828 110.009 493.036 110.185 493.036 110.367C493.036 110.432 493.016 110.589 492.977 110.836ZM492.684 92.3594C492.567 93.5052 492.378 94.3516 492.118 94.8984C491.923 95.3411 491.604 95.7513 491.161 96.1289C490.263 96.8451 488.082 97.2031 484.618 97.2031C481.688 97.2031 479.794 97.0404 478.934 96.7148C478.388 96.5195 478.01 96.2266 477.802 95.8359C477.593 95.4583 477.489 94.8984 477.489 94.1562V85.3281C477.489 83.4661 477.411 82.1055 477.255 81.2461C478.114 81.2852 478.947 81.3633 479.755 81.4805C480.106 81.5195 480.282 81.6367 480.282 81.832C480.282 81.9753 480.204 82.2031 480.048 82.5156C479.917 82.8542 479.852 83.7591 479.852 85.2305V88.1211C482.665 87.1445 485.08 86.0768 487.098 84.918C488.179 84.2799 488.882 83.7461 489.208 83.3164C489.807 83.7982 490.367 84.319 490.888 84.8789C491.07 85.0612 491.161 85.224 491.161 85.3672C491.161 85.5755 490.985 85.7057 490.634 85.7578C490.386 85.8099 489.8 86.0638 488.876 86.5195C486.675 87.6784 483.667 88.9479 479.852 90.3281V93.1602C479.852 93.7201 479.924 94.1107 480.067 94.332C480.197 94.5273 480.458 94.6836 480.848 94.8008C481.408 94.957 482.704 95.0352 484.735 95.0352C487.444 95.0352 489.084 94.7682 489.657 94.2344C490.126 93.7917 490.419 92.5417 490.536 90.4844C490.953 90.7969 491.473 91.0898 492.098 91.3633C492.515 91.5586 492.723 91.7734 492.723 92.0078C492.723 92.0859 492.71 92.2031 492.684 92.3594ZM475.731 91.3242C475.77 91.4154 475.79 91.4935 475.79 91.5586C475.79 91.6758 475.679 91.8125 475.458 91.9688L474.442 92.5352C474.221 92.6654 474.065 92.7305 473.973 92.7305C473.882 92.7305 473.785 92.6393 473.68 92.457C473.433 91.8581 473.101 91.1745 472.684 90.4062C469.104 91.0312 465.054 91.6042 460.536 92.125C459.703 92.2292 459.143 92.3789 458.856 92.5742C458.713 92.6784 458.55 92.7305 458.368 92.7305C458.212 92.7305 458.082 92.5677 457.977 92.2422C457.795 91.6302 457.632 90.862 457.489 89.9375C459.143 89.9375 460.302 89.9049 460.966 89.8398C462.255 87.5612 463.257 85.4844 463.973 83.6094C464.325 82.6589 464.579 81.7539 464.735 80.8945C465.503 81.0117 466.246 81.207 466.962 81.4805C467.339 81.6367 467.528 81.8125 467.528 82.0078C467.528 82.2161 467.398 82.431 467.138 82.6523C466.916 82.8216 466.688 83.1667 466.454 83.6875C465.399 85.9401 464.384 87.9128 463.407 89.6055C466.584 89.293 469.319 88.9609 471.61 88.6094C471.037 87.7109 470.354 86.7799 469.559 85.8164C469.507 85.7383 469.481 85.6732 469.481 85.6211C469.481 85.5169 469.605 85.3932 469.852 85.25L470.692 84.7617C470.822 84.6836 470.933 84.6445 471.024 84.6445C471.115 84.6445 471.207 84.6966 471.298 84.8008C472.873 86.5326 474.351 88.707 475.731 91.3242Z" fill="#0000FE"/>
<path d="M299.5 496.5H308L298 517.5L308 538H300L291 519.5V515L299.5 496.5Z" fill="#0000FE"/>
<path d="M283 497H290V538H283V497Z" fill="#0000FE"/>
<path d="M334 538H326L321 515H320L315 538H308.5L307.5 536L317 497H325L334 538Z" fill="#0000FE"/>
<path d="M299.5 496.5H308L298 517.5L308 538H300L291 519.5V515L299.5 496.5Z" stroke="#0000FE"/>
<path d="M283 497H290V538H283V497Z" stroke="#0000FE"/>
<path d="M334 538H326L321 515H320L315 538H308.5L307.5 536L317 497H325L334 538Z" stroke="#0000FE"/>
<path d="M345.5 538H337V496.5H359.5V503.5H345V513H358V521H345.5V538Z" fill="#0000FE"/>
<path d="M362 499V496H371V499H368V531H369V532H371V534H379V532H382V500.5L380 499V496H391V498L389 500V530H387V533H385V536H382V538H370V536H368V534H366V530H364V499H362Z" fill="#0000FE"/>
<path d="M345.5 538H337V496.5H359.5V503.5H345V513H358V521H345.5V538Z" stroke="#0000FE"/>
<path d="M362 499V496H371V499H368V531H369V532H371V534H379V532H382V500.5L380 499V496H391V498L389 500V530H387V533H385V536H382V538H370V536H368V534H366V530H364V499H362Z" stroke="#0000FE"/>
<path d="M0.672 28L6.912 11.488H9.504L15.72 28H13.584L11.88 23.488H4.464L2.76 28H0.672ZM5.088 21.688H11.256L8.232 13.6H8.112L5.088 21.688ZM28.4063 28V11.488H35.9903C37.0303 11.488 37.8543 11.616 38.4623 11.872C39.0863 12.112 39.5423 12.464 39.8303 12.928C40.1343 13.376 40.3343 13.904 40.4303 14.512C40.5263 15.12 40.5743 15.768 40.5743 16.456C40.5743 17.048 40.5183 17.664 40.4063 18.304C40.3103 18.928 40.0783 19.496 39.7103 20.008C39.3583 20.52 38.7983 20.896 38.0303 21.136L40.8143 28H38.6063L35.8703 21.064L36.4463 21.352C36.3343 21.384 36.1983 21.408 36.0383 21.424C35.8783 21.44 35.6623 21.448 35.3903 21.448H30.4703V28H28.4063ZM30.4703 19.648H35.1023C35.9023 19.648 36.5263 19.584 36.9743 19.456C37.4383 19.328 37.7743 19.128 37.9823 18.856C38.2063 18.584 38.3503 18.256 38.4143 17.872C38.4783 17.472 38.5103 17 38.5103 16.456C38.5103 15.912 38.4783 15.448 38.4143 15.064C38.3663 14.664 38.2383 14.336 38.0303 14.08C37.8383 13.808 37.5183 13.608 37.0703 13.48C36.6383 13.336 36.0383 13.264 35.2703 13.264H30.4703V19.648ZM57.8702 28V13.312H52.6622V11.488H65.1662V13.312H59.9342V28H57.8702ZM77.8875 28V11.488H79.9515V28H77.8875ZM94.3547 28V11.488H104.603V13.264H96.4187V19.144H103.715V20.92H96.4187V28H94.3547ZM117.525 28V11.488H119.589V28H117.525ZM140.064 28.192C138.912 28.192 137.944 28.128 137.16 28C136.376 27.856 135.736 27.616 135.24 27.28C134.744 26.928 134.36 26.44 134.088 25.816C133.832 25.176 133.656 24.36 133.56 23.368C133.464 22.376 133.416 21.168 133.416 19.744C133.416 18.32 133.464 17.12 133.56 16.144C133.656 15.152 133.832 14.344 134.088 13.72C134.36 13.08 134.744 12.584 135.24 12.232C135.736 11.88 136.376 11.64 137.16 11.512C137.944 11.368 138.912 11.296 140.064 11.296C140.512 11.296 140.968 11.312 141.432 11.344C141.912 11.376 142.368 11.416 142.8 11.464C143.232 11.512 143.608 11.576 143.928 11.656V13.312C143.56 13.264 143.176 13.224 142.776 13.192C142.392 13.144 142.008 13.112 141.624 13.096C141.24 13.08 140.896 13.072 140.592 13.072C139.664 13.072 138.888 13.112 138.264 13.192C137.64 13.272 137.144 13.432 136.776 13.672C136.408 13.896 136.128 14.256 135.936 14.752C135.76 15.232 135.64 15.88 135.576 16.696C135.512 17.496 135.48 18.512 135.48 19.744C135.48 20.976 135.512 22 135.576 22.816C135.64 23.616 135.76 24.264 135.936 24.76C136.128 25.24 136.408 25.6 136.776 25.84C137.144 26.064 137.64 26.216 138.264 26.296C138.888 26.376 139.664 26.416 140.592 26.416C141.136 26.416 141.728 26.392 142.368 26.344C143.008 26.296 143.56 26.24 144.024 26.176V27.88C143.688 27.944 143.288 27.992 142.824 28.024C142.376 28.072 141.912 28.112 141.432 28.144C140.952 28.176 140.496 28.192 140.064 28.192ZM157.397 28V11.488H159.461V28H157.397ZM172.136 28L178.376 11.488H180.968L187.184 28H185.048L183.344 23.488H175.928L174.224 28H172.136ZM176.552 21.688H182.72L179.696 13.6H179.576L176.552 21.688ZM199.87 28V11.488H201.934V26.176H209.638V28H199.87ZM243.129 28.192C242.537 28.192 241.889 28.176 241.185 28.144C240.481 28.112 239.793 28.072 239.121 28.024C238.465 27.976 237.865 27.92 237.321 27.856V26.104C237.897 26.152 238.497 26.2 239.121 26.248C239.761 26.296 240.377 26.336 240.969 26.368C241.577 26.4 242.089 26.416 242.505 26.416C243.353 26.416 244.033 26.384 244.545 26.32C245.057 26.24 245.489 26.096 245.841 25.888C246.081 25.744 246.257 25.552 246.369 25.312C246.481 25.072 246.545 24.792 246.561 24.472C246.593 24.152 246.609 23.808 246.609 23.44C246.609 22.896 246.593 22.456 246.561 22.12C246.529 21.784 246.441 21.528 246.297 21.352C246.169 21.16 245.953 21.024 245.649 20.944C245.345 20.848 244.937 20.776 244.425 20.728L240.321 20.272C239.553 20.176 238.937 20.016 238.473 19.792C238.009 19.552 237.657 19.256 237.417 18.904C237.193 18.536 237.041 18.104 236.961 17.608C236.881 17.096 236.841 16.528 236.841 15.904C236.841 14.896 236.969 14.088 237.225 13.48C237.497 12.872 237.889 12.408 238.401 12.088C238.913 11.768 239.529 11.56 240.249 11.464C240.985 11.352 241.825 11.296 242.769 11.296C243.377 11.296 244.001 11.312 244.641 11.344C245.281 11.376 245.881 11.424 246.441 11.488C247.017 11.536 247.489 11.6 247.857 11.68V13.384C247.441 13.32 246.961 13.264 246.417 13.216C245.873 13.168 245.313 13.136 244.737 13.12C244.177 13.088 243.641 13.072 243.129 13.072C242.249 13.072 241.537 13.112 240.993 13.192C240.449 13.272 240.017 13.416 239.697 13.624C239.345 13.832 239.121 14.128 239.025 14.512C238.945 14.88 238.905 15.328 238.905 15.856C238.905 16.48 238.945 16.968 239.025 17.32C239.121 17.656 239.313 17.896 239.601 18.04C239.905 18.168 240.353 18.264 240.945 18.328L244.953 18.784C245.529 18.832 246.033 18.912 246.465 19.024C246.913 19.12 247.297 19.288 247.617 19.528C247.937 19.768 248.177 20.112 248.337 20.56C248.433 20.784 248.505 21.032 248.553 21.304C248.601 21.576 248.633 21.88 248.649 22.216C248.681 22.536 248.697 22.896 248.697 23.296C248.697 24.208 248.609 24.968 248.433 25.576C248.257 26.168 248.009 26.64 247.689 26.992C247.369 27.344 246.977 27.608 246.513 27.784C246.049 27.96 245.529 28.072 244.953 28.12C244.393 28.168 243.785 28.192 243.129 28.192ZM262.303 28V11.488H264.367V28H262.303ZM278.77 28V11.488H280.882L289.45 24.136H289.546V11.488H291.538V28H289.546L280.858 15.112H280.762V28H278.77ZM312.357 28.192C311.189 28.192 310.197 28.128 309.381 28C308.565 27.856 307.893 27.608 307.365 27.256C306.853 26.904 306.445 26.416 306.141 25.792C305.853 25.152 305.645 24.344 305.517 23.368C305.405 22.376 305.349 21.168 305.349 19.744C305.349 18.32 305.405 17.12 305.517 16.144C305.645 15.152 305.861 14.344 306.165 13.72C306.469 13.08 306.885 12.584 307.413 12.232C307.941 11.88 308.605 11.64 309.405 11.512C310.221 11.368 311.205 11.296 312.357 11.296C312.901 11.296 313.485 11.32 314.109 11.368C314.733 11.416 315.341 11.472 315.933 11.536C316.541 11.6 317.085 11.68 317.565 11.776V13.456C317.053 13.376 316.533 13.312 316.005 13.264C315.477 13.2 314.981 13.152 314.517 13.12C314.069 13.088 313.685 13.072 313.365 13.072C312.373 13.072 311.525 13.096 310.821 13.144C310.133 13.192 309.565 13.32 309.117 13.528C308.669 13.736 308.325 14.08 308.085 14.56C307.845 15.024 307.669 15.672 307.557 16.504C307.461 17.336 307.413 18.416 307.413 19.744C307.413 20.912 307.445 21.896 307.509 22.696C307.573 23.48 307.701 24.12 307.893 24.616C308.101 25.112 308.381 25.496 308.733 25.768C309.101 26.04 309.581 26.224 310.173 26.32C310.781 26.4 311.525 26.44 312.405 26.44C312.741 26.44 313.109 26.432 313.509 26.416C313.909 26.4 314.301 26.376 314.685 26.344C315.069 26.312 315.389 26.28 315.645 26.248V20.872H311.901V19.12H317.637V27.712C317.109 27.808 316.525 27.896 315.885 27.976C315.261 28.04 314.637 28.088 314.013 28.12C313.405 28.168 312.853 28.192 312.357 28.192ZM331.744 28V11.488H333.808V28H331.744ZM348.211 28V11.488H350.323L358.891 24.136H358.987V11.488H360.979V28H358.987L350.299 15.112H350.203V28H348.211ZM381.798 28.192C380.63 28.192 379.638 28.128 378.822 28C378.006 27.856 377.334 27.608 376.806 27.256C376.294 26.904 375.886 26.416 375.582 25.792C375.294 25.152 375.086 24.344 374.958 23.368C374.846 22.376 374.79 21.168 374.79 19.744C374.79 18.32 374.846 17.12 374.958 16.144C375.086 15.152 375.302 14.344 375.606 13.72C375.91 13.08 376.326 12.584 376.854 12.232C377.382 11.88 378.046 11.64 378.846 11.512C379.662 11.368 380.646 11.296 381.798 11.296C382.342 11.296 382.926 11.32 383.55 11.368C384.174 11.416 384.782 11.472 385.374 11.536C385.982 11.6 386.526 11.68 387.006 11.776V13.456C386.494 13.376 385.974 13.312 385.446 13.264C384.918 13.2 384.422 13.152 383.958 13.12C383.51 13.088 383.126 13.072 382.806 13.072C381.814 13.072 380.966 13.096 380.262 13.144C379.574 13.192 379.006 13.32 378.558 13.528C378.11 13.736 377.766 14.08 377.526 14.56C377.286 15.024 377.11 15.672 376.998 16.504C376.902 17.336 376.854 18.416 376.854 19.744C376.854 20.912 376.886 21.896 376.95 22.696C377.014 23.48 377.142 24.12 377.334 24.616C377.542 25.112 377.822 25.496 378.174 25.768C378.542 26.04 379.022 26.224 379.614 26.32C380.222 26.4 380.966 26.44 381.846 26.44C382.182 26.44 382.55 26.432 382.95 26.416C383.35 26.4 383.742 26.376 384.126 26.344C384.51 26.312 384.83 26.28 385.086 26.248V20.872H381.342V19.12H387.078V27.712C386.55 27.808 385.966 27.896 385.326 27.976C384.702 28.04 384.078 28.088 383.454 28.12C382.846 28.168 382.294 28.192 381.798 28.192ZM421.929 28.192C421.337 28.192 420.689 28.176 419.985 28.144C419.281 28.112 418.593 28.072 417.921 28.024C417.265 27.976 416.665 27.92 416.121 27.856V26.104C416.697 26.152 417.297 26.2 417.921 26.248C418.561 26.296 419.177 26.336 419.769 26.368C420.377 26.4 420.889 26.416 421.305 26.416C422.153 26.416 422.833 26.384 423.345 26.32C423.857 26.24 424.289 26.096 424.641 25.888C424.881 25.744 425.057 25.552 425.169 25.312C425.281 25.072 425.345 24.792 425.361 24.472C425.393 24.152 425.409 23.808 425.409 23.44C425.409 22.896 425.393 22.456 425.361 22.12C425.329 21.784 425.241 21.528 425.097 21.352C424.969 21.16 424.753 21.024 424.449 20.944C424.145 20.848 423.737 20.776 423.225 20.728L419.121 20.272C418.353 20.176 417.737 20.016 417.273 19.792C416.809 19.552 416.457 19.256 416.217 18.904C415.993 18.536 415.841 18.104 415.761 17.608C415.681 17.096 415.641 16.528 415.641 15.904C415.641 14.896 415.769 14.088 416.025 13.48C416.297 12.872 416.689 12.408 417.201 12.088C417.713 11.768 418.329 11.56 419.049 11.464C419.785 11.352 420.625 11.296 421.569 11.296C422.177 11.296 422.801 11.312 423.441 11.344C424.081 11.376 424.681 11.424 425.241 11.488C425.817 11.536 426.289 11.6 426.657 11.68V13.384C426.241 13.32 425.761 13.264 425.217 13.216C424.673 13.168 424.113 13.136 423.537 13.12C422.977 13.088 422.441 13.072 421.929 13.072C421.049 13.072 420.337 13.112 419.793 13.192C419.249 13.272 418.817 13.416 418.497 13.624C418.145 13.832 417.921 14.128 417.825 14.512C417.745 14.88 417.705 15.328 417.705 15.856C417.705 16.48 417.745 16.968 417.825 17.32C417.921 17.656 418.113 17.896 418.401 18.04C418.705 18.168 419.153 18.264 419.745 18.328L423.753 18.784C424.329 18.832 424.833 18.912 425.265 19.024C425.713 19.12 426.097 19.288 426.417 19.528C426.737 19.768 426.977 20.112 427.137 20.56C427.233 20.784 427.305 21.032 427.353 21.304C427.401 21.576 427.433 21.88 427.449 22.216C427.481 22.536 427.497 22.896 427.497 23.296C427.497 24.208 427.409 24.968 427.233 25.576C427.057 26.168 426.809 26.64 426.489 26.992C426.169 27.344 425.777 27.608 425.313 27.784C424.849 27.96 424.329 28.072 423.753 28.12C423.193 28.168 422.585 28.192 421.929 28.192ZM444.967 28V21.688L438.991 11.488H441.199L445.975 19.624H446.143L450.871 11.488H453.031L447.031 21.688V28H444.967ZM465.328 28V11.488H467.44L476.008 24.136H476.104V11.488H478.096V28H476.104L467.416 15.112H467.32V28H465.328ZM496.011 28V13.312H490.803V11.488H503.307V13.312H498.075V28H496.011ZM516.028 28V11.488H518.092V18.76H526.732V11.488H528.796V28H526.732V20.584H518.092V28H516.028ZM543.183 28V11.488H553.911V13.264H545.247V18.76H552.783V20.56H545.247V26.224H553.911V28H543.183ZM572.74 28.192C572.148 28.192 571.5 28.176 570.796 28.144C570.092 28.112 569.404 28.072 568.732 28.024C568.076 27.976 567.476 27.92 566.932 27.856V26.104C567.508 26.152 568.108 26.2 568.732 26.248C569.372 26.296 569.988 26.336 570.58 26.368C571.188 26.4 571.7 26.416 572.116 26.416C572.964 26.416 573.644 26.384 574.156 26.32C574.668 26.24 575.1 26.096 575.452 25.888C575.692 25.744 575.868 25.552 575.98 25.312C576.092 25.072 576.156 24.792 576.172 24.472C576.204 24.152 576.22 23.808 576.22 23.44C576.22 22.896 576.204 22.456 576.172 22.12C576.14 21.784 576.052 21.528 575.908 21.352C575.78 21.16 575.564 21.024 575.26 20.944C574.956 20.848 574.548 20.776 574.036 20.728L569.932 20.272C569.164 20.176 568.548 20.016 568.084 19.792C567.62 19.552 567.268 19.256 567.028 18.904C566.804 18.536 566.652 18.104 566.572 17.608C566.492 17.096 566.452 16.528 566.452 15.904C566.452 14.896 566.58 14.088 566.836 13.48C567.108 12.872 567.5 12.408 568.012 12.088C568.524 11.768 569.14 11.56 569.86 11.464C570.596 11.352 571.436 11.296 572.38 11.296C572.988 11.296 573.612 11.312 574.252 11.344C574.892 11.376 575.492 11.424 576.052 11.488C576.628 11.536 577.1 11.6 577.468 11.68V13.384C577.052 13.32 576.572 13.264 576.028 13.216C575.484 13.168 574.924 13.136 574.348 13.12C573.788 13.088 573.252 13.072 572.74 13.072C571.86 13.072 571.148 13.112 570.604 13.192C570.06 13.272 569.628 13.416 569.308 13.624C568.956 13.832 568.732 14.128 568.636 14.512C568.556 14.88 568.516 15.328 568.516 15.856C568.516 16.48 568.556 16.968 568.636 17.32C568.732 17.656 568.924 17.896 569.212 18.04C569.516 18.168 569.964 18.264 570.556 18.328L574.564 18.784C575.14 18.832 575.644 18.912 576.076 19.024C576.524 19.12 576.908 19.288 577.228 19.528C577.548 19.768 577.788 20.112 577.948 20.56C578.044 20.784 578.116 21.032 578.164 21.304C578.212 21.576 578.244 21.88 578.26 22.216C578.292 22.536 578.308 22.896 578.308 23.296C578.308 24.208 578.22 24.968 578.044 25.576C577.868 26.168 577.62 26.64 577.3 26.992C576.98 27.344 576.588 27.608 576.124 27.784C575.66 27.96 575.14 28.072 574.564 28.12C574.004 28.168 573.396 28.192 572.74 28.192ZM591.914 28V11.488H593.978V28H591.914ZM607.253 28V26.296L616.565 13.264H607.517V11.488H619.181V13.144L609.845 26.224H619.325V28H607.253ZM632.536 28V11.488H643.264V13.264H634.6V18.76H642.136V20.56H634.6V26.224H643.264V28H632.536ZM656.597 28V11.488H664.181C665.221 11.488 666.045 11.616 666.653 11.872C667.277 12.112 667.733 12.464 668.021 12.928C668.325 13.376 668.525 13.904 668.621 14.512C668.717 15.12 668.765 15.768 668.765 16.456C668.765 17.048 668.709 17.664 668.597 18.304C668.501 18.928 668.269 19.496 667.901 20.008C667.549 20.52 666.989 20.896 666.221 21.136L669.005 28H666.797L664.061 21.064L664.637 21.352C664.525 21.384 664.389 21.408 664.229 21.424C664.069 21.44 663.853 21.448 663.581 21.448H658.661V28H656.597ZM658.661 19.648H663.293C664.093 19.648 664.717 19.584 665.165 19.456C665.629 19.328 665.965 19.128 666.173 18.856C666.397 18.584 666.541 18.256 666.605 17.872C666.669 17.472 666.701 17 666.701 16.456C666.701 15.912 666.669 15.448 666.605 15.064C666.557 14.664 666.429 14.336 666.221 14.08C666.029 13.808 665.709 13.608 665.261 13.48C664.829 13.336 664.229 13.264 663.461 13.264H658.661V19.648Z" fill="#0000FE"/>
</svg>
