<svg width="27" height="12" viewBox="0 0 27 12" fill="none" xmlns="http://www.w3.org/2000/svg">
<path d="M4.125 1.06934H6.25L3.75 6.31934L6.25 11.4443H4.25L2 6.81934V5.69434L4.125 1.06934Z" fill="white"/>
<path d="M0 1.19434H1.75V11.4443H0V1.19434Z" fill="white"/>
<path d="M12.75 11.4443H10.75L9.5 5.69434H9.25L8 11.4443H6.375L6.125 10.9443L8.5 1.19434H10.5L12.75 11.4443Z" fill="white"/>
<path d="M15.625 11.4443H13.5V1.06934H19.125V2.81934H15.5V5.19434H18.75V7.19434H15.625V11.4443Z" fill="white"/>
<path d="M19.75 1.69434V0.944336H22V1.69434H21.25V9.69434H21.5V9.94434H22V10.4443H24V9.94434H24.75V2.06934L24.25 1.69434V0.944336H27V1.44434L26.5 1.94434V9.44434H26V10.1943H25.5V10.9443H24.75V11.4443H21.75V10.9443H21.25V10.4443H20.75V9.44434H20.25V1.69434H19.75Z" fill="white"/>
</svg>
