<svg width="127" height="43" viewBox="0 0 127 43" fill="none" xmlns="http://www.w3.org/2000/svg">
<path d="M1.528 8C1.33067 8 1.14933 7.94933 0.984 7.848C0.824 7.74133 0.696 7.60267 0.6 7.432C0.504 7.26133 0.456 7.08 0.456 6.888V3.328C0.456 3.13067 0.504 2.94933 0.6 2.784C0.696 2.61867 0.824 2.488 0.984 2.392C1.14933 2.29067 1.33067 2.24 1.528 2.24H5.112C5.30933 2.24 5.488 2.29067 5.648 2.392C5.81333 2.488 5.944 2.61867 6.04 2.784C6.136 2.94933 6.184 3.13067 6.184 3.328V6.888C6.184 7.08 6.136 7.26133 6.04 7.432C5.944 7.60267 5.81333 7.74133 5.648 7.848C5.488 7.94933 5.30933 8 5.112 8H1.528ZM1.792 7H5.088C5.12533 7 5.15733 6.98667 5.184 6.96C5.216 6.928 5.232 6.89333 5.232 6.856V4.144L1.792 7ZM1.408 6.072L4.848 3.216H1.56C1.51733 3.216 1.48 3.232 1.448 3.264C1.42133 3.29067 1.408 3.32267 1.408 3.36V6.072ZM11.3679 8C11.2025 8 11.0452 7.95733 10.8959 7.872C10.7519 7.78667 10.6265 7.67467 10.5199 7.536C10.4185 7.392 10.3465 7.22933 10.3039 7.048H14.9279C14.9652 7.048 14.9972 7.03467 15.0239 7.008C15.0559 6.976 15.0719 6.93867 15.0719 6.896V5.808C15.0719 5.77067 15.0559 5.73867 15.0239 5.712C14.9972 5.68 14.9652 5.664 14.9279 5.664H11.3679C11.1705 5.664 10.9892 5.616 10.8239 5.52C10.6639 5.41867 10.5359 5.288 10.4399 5.128C10.3439 4.96267 10.2959 4.78133 10.2959 4.584V3.312C10.2959 3.10933 10.3439 2.928 10.4399 2.768C10.5359 2.608 10.6639 2.48 10.8239 2.384C10.9892 2.288 11.1705 2.24 11.3679 2.24H14.9599C15.1519 2.24 15.3279 2.288 15.4879 2.384C15.6532 2.48 15.7839 2.608 15.8799 2.768C15.9812 2.928 16.0319 3.10933 16.0319 3.312V6.928C16.0319 7.12533 15.9812 7.304 15.8799 7.464C15.7839 7.624 15.6532 7.75467 15.4879 7.856C15.3279 7.952 15.1519 8 14.9599 8H11.3679ZM11.3999 4.704H15.0719V3.344C15.0719 3.30133 15.0559 3.26667 15.0239 3.24C14.9972 3.208 14.9652 3.192 14.9279 3.192H11.3999C11.3625 3.192 11.3279 3.208 11.2959 3.24C11.2692 3.26667 11.2559 3.30133 11.2559 3.344V4.552C11.2559 4.59467 11.2692 4.632 11.2959 4.664C11.3279 4.69067 11.3625 4.704 11.3999 4.704ZM21.2249 8C21.0275 8 20.8462 7.94933 20.6809 7.848C20.5209 7.74133 20.3929 7.60267 20.2969 7.432C20.2009 7.26133 20.1529 7.08 20.1529 6.888V3.328C20.1529 3.13067 20.2009 2.94933 20.2969 2.784C20.3929 2.61867 20.5209 2.488 20.6809 2.392C20.8462 2.29067 21.0275 2.24 21.2249 2.24H24.8089C25.0062 2.24 25.1849 2.29067 25.3449 2.392C25.5102 2.488 25.6409 2.61867 25.7369 2.784C25.8329 2.94933 25.8809 3.13067 25.8809 3.328V6.888C25.8809 7.08 25.8329 7.26133 25.7369 7.432C25.6409 7.60267 25.5102 7.74133 25.3449 7.848C25.1849 7.94933 25.0062 8 24.8089 8H21.2249ZM21.4889 7H24.7849C24.8222 7 24.8542 6.98667 24.8809 6.96C24.9129 6.928 24.9289 6.89333 24.9289 6.856V4.144L21.4889 7ZM21.1049 6.072L24.5449 3.216H21.2569C21.2142 3.216 21.1769 3.232 21.1449 3.264C21.1182 3.29067 21.1049 3.32267 21.1049 3.36V6.072ZM31.0728 8C30.8701 8 30.6888 7.952 30.5288 7.856C30.3688 7.75467 30.2381 7.624 30.1368 7.464C30.0408 7.304 29.9928 7.12533 29.9928 6.928V6.632H30.9528V6.896C30.9528 6.93867 30.9661 6.976 30.9928 7.008C31.0248 7.03467 31.0594 7.048 31.0968 7.048H34.6248C34.6674 7.048 34.7021 7.03467 34.7288 7.008C34.7608 6.976 34.7768 6.93867 34.7768 6.896V5.704C34.7768 5.66133 34.7608 5.62667 34.7288 5.6C34.7021 5.57333 34.6674 5.56 34.6248 5.56H31.0088V4.6H34.3928C34.4301 4.6 34.4621 4.58667 34.4888 4.56C34.5208 4.528 34.5368 4.49333 34.5368 4.456V3.344C34.5368 3.30133 34.5208 3.26667 34.4888 3.24C34.4621 3.208 34.4301 3.192 34.3928 3.192H31.0968C31.0594 3.192 31.0248 3.208 30.9928 3.24C30.9661 3.26667 30.9528 3.30133 30.9528 3.344V3.68H29.9928V3.312C29.9928 3.10933 30.0408 2.928 30.1368 2.768C30.2381 2.608 30.3688 2.48 30.5288 2.384C30.6888 2.288 30.8701 2.24 31.0728 2.24H34.4248C34.6221 2.24 34.8008 2.288 34.9608 2.384C35.1261 2.48 35.2568 2.608 35.3528 2.768C35.4488 2.928 35.4968 3.10933 35.4968 3.312V4.488C35.4968 4.552 35.4888 4.61867 35.4728 4.688C35.4621 4.75733 35.4461 4.82133 35.4248 4.88C35.5261 4.992 35.6008 5.11733 35.6488 5.256C35.7021 5.39467 35.7288 5.53333 35.7288 5.672V6.928C35.7288 7.12533 35.6808 7.304 35.5848 7.464C35.4888 7.624 35.3581 7.75467 35.1928 7.856C35.0328 7.952 34.8541 8 34.6568 8H31.0728ZM39.8101 8.96V8.008H45.5461V8.96H39.8101ZM49.6351 8V3.36H55.4751C55.6778 3.36 55.8591 3.41067 56.0191 3.512C56.1791 3.608 56.3071 3.736 56.4031 3.896C56.4991 4.056 56.5471 4.23467 56.5471 4.432V8H55.5951V4.464C55.5951 4.42133 55.5791 4.38667 55.5471 4.36C55.5205 4.328 55.4858 4.312 55.4431 4.312H53.7231C53.6858 4.312 53.6511 4.328 53.6191 4.36C53.5925 4.38667 53.5791 4.42133 53.5791 4.464V8H52.6111V4.464C52.6111 4.42133 52.5978 4.38667 52.5711 4.36C52.5445 4.328 52.5098 4.312 52.4671 4.312H50.7391C50.7018 4.312 50.6671 4.328 50.6351 4.36C50.6085 4.38667 50.5951 4.42133 50.5951 4.464V8H49.6351ZM61.5786 8C61.3813 8 61.2 7.952 61.0346 7.856C60.8746 7.75467 60.7466 7.624 60.6506 7.464C60.5546 7.304 60.5066 7.12533 60.5066 6.928V5.2H64.2666V4.464C64.2666 4.42133 64.2506 4.38667 64.2186 4.36C64.192 4.328 64.1573 4.312 64.1146 4.312H60.5066V3.36H64.1466C64.3493 3.36 64.5306 3.41067 64.6906 3.512C64.8506 3.608 64.9786 3.736 65.0746 3.896C65.1706 4.056 65.2186 4.23467 65.2186 4.432V8H61.5786ZM61.6106 7.048H64.2666V6.072H61.4586V6.896C61.4586 6.93867 61.472 6.976 61.4986 7.008C61.5306 7.03467 61.568 7.048 61.6106 7.048ZM69.2613 8V3.36H70.2133V8H69.2613ZM69.2613 2.8V1.84H70.2133V2.8H69.2613ZM74.3445 8V3.36H77.9925C78.1845 3.36 78.3605 3.41067 78.5205 3.512C78.6858 3.608 78.8165 3.736 78.9125 3.896C79.0085 4.056 79.0565 4.23467 79.0565 4.432V8H78.1045V4.464C78.1045 4.42133 78.0885 4.38667 78.0565 4.36C78.0298 4.328 77.9978 4.312 77.9605 4.312H75.4485C75.4112 4.312 75.3765 4.328 75.3445 4.36C75.3125 4.38667 75.2965 4.42133 75.2965 4.464V8H74.3445ZM84.1788 8C84.0135 8 83.8561 7.95733 83.7068 7.872C83.5628 7.78667 83.4375 7.67467 83.3308 7.536C83.2295 7.392 83.1575 7.22933 83.1148 7.048H87.7388C87.7761 7.048 87.8081 7.03467 87.8348 7.008C87.8668 6.976 87.8828 6.93867 87.8828 6.896V5.808C87.8828 5.77067 87.8668 5.73867 87.8348 5.712C87.8081 5.68 87.7761 5.664 87.7388 5.664H84.1788C83.9815 5.664 83.8001 5.616 83.6348 5.52C83.4748 5.41867 83.3468 5.288 83.2508 5.128C83.1548 4.96267 83.1068 4.78133 83.1068 4.584V3.312C83.1068 3.10933 83.1548 2.928 83.2508 2.768C83.3468 2.608 83.4748 2.48 83.6348 2.384C83.8001 2.288 83.9815 2.24 84.1788 2.24H87.7708C87.9628 2.24 88.1388 2.288 88.2988 2.384C88.4641 2.48 88.5948 2.608 88.6908 2.768C88.7921 2.928 88.8428 3.10933 88.8428 3.312V6.928C88.8428 7.12533 88.7921 7.304 88.6908 7.464C88.5948 7.624 88.4641 7.75467 88.2988 7.856C88.1388 7.952 87.9628 8 87.7708 8H84.1788ZM84.2108 4.704H87.8828V3.344C87.8828 3.30133 87.8668 3.26667 87.8348 3.24C87.8081 3.208 87.7761 3.192 87.7388 3.192H84.2108C84.1735 3.192 84.1388 3.208 84.1068 3.24C84.0801 3.26667 84.0668 3.30133 84.0668 3.344V4.552C84.0668 4.59467 84.0801 4.632 84.1068 4.664C84.1388 4.69067 84.1735 4.704 84.2108 4.704ZM94.0038 8C93.8385 8 93.6811 7.95733 93.5318 7.872C93.3878 7.78667 93.2625 7.67467 93.1558 7.536C93.0545 7.392 92.9825 7.22933 92.9398 7.048H97.5638C97.6011 7.048 97.6331 7.03467 97.6598 7.008C97.6918 6.976 97.7078 6.93867 97.7078 6.896V5.808C97.7078 5.77067 97.6918 5.73867 97.6598 5.712C97.6331 5.68 97.6011 5.664 97.5638 5.664H94.0038C93.8065 5.664 93.6251 5.616 93.4598 5.52C93.2998 5.41867 93.1718 5.288 93.0758 5.128C92.9798 4.96267 92.9318 4.78133 92.9318 4.584V3.312C92.9318 3.10933 92.9798 2.928 93.0758 2.768C93.1718 2.608 93.2998 2.48 93.4598 2.384C93.6251 2.288 93.8065 2.24 94.0038 2.24H97.5958C97.7878 2.24 97.9638 2.288 98.1238 2.384C98.2891 2.48 98.4198 2.608 98.5158 2.768C98.6171 2.928 98.6678 3.10933 98.6678 3.312V6.928C98.6678 7.12533 98.6171 7.304 98.5158 7.464C98.4198 7.624 98.2891 7.75467 98.1238 7.856C97.9638 7.952 97.7878 8 97.5958 8H94.0038ZM94.0358 4.704H97.7078V3.344C97.7078 3.30133 97.6918 3.26667 97.6598 3.24C97.6331 3.208 97.6011 3.192 97.5638 3.192H94.0358C93.9985 3.192 93.9638 3.208 93.9318 3.24C93.9051 3.26667 93.8918 3.30133 93.8918 3.344V4.552C93.8918 4.59467 93.9051 4.632 93.9318 4.664C93.9638 4.69067 93.9985 4.704 94.0358 4.704ZM102.789 8V5.8C102.789 5.60267 102.837 5.424 102.933 5.264C103.029 5.09867 103.157 4.97067 103.317 4.88C103.482 4.784 103.663 4.736 103.861 4.736H107.421C107.458 4.736 107.49 4.72267 107.517 4.696C107.549 4.664 107.565 4.62667 107.565 4.584V3.344C107.565 3.30133 107.549 3.26667 107.517 3.24C107.49 3.208 107.458 3.192 107.421 3.192H103.893C103.85 3.192 103.813 3.208 103.781 3.24C103.754 3.26667 103.741 3.30133 103.741 3.344V3.696H102.789V3.312C102.789 3.10933 102.837 2.928 102.933 2.768C103.029 2.608 103.157 2.48 103.317 2.384C103.482 2.288 103.663 2.24 103.861 2.24H107.445C107.642 2.24 107.821 2.288 107.981 2.384C108.146 2.48 108.277 2.608 108.373 2.768C108.469 2.928 108.517 3.10933 108.517 3.312V4.616C108.517 4.81333 108.469 4.99467 108.373 5.16C108.277 5.32 108.146 5.45067 107.981 5.552C107.821 5.648 107.642 5.696 107.445 5.696H103.893C103.85 5.696 103.813 5.70933 103.781 5.736C103.754 5.76267 103.741 5.79733 103.741 5.84V6.896C103.741 6.93867 103.754 6.976 103.781 7.008C103.813 7.03467 103.85 7.048 103.893 7.048H108.517V8H102.789ZM112.725 8L113.125 6.688H112.429V5.728H113.421L113.829 4.456H112.669V3.496H114.133L114.549 2.24H115.525L115.093 3.496H116.661L117.077 2.24H118.045L117.613 3.496H118.261V4.456H117.317L116.909 5.728H118.021V6.688H116.597L116.205 8H115.245L115.645 6.688H114.077L113.685 8H112.725ZM114.389 5.728H115.941L116.357 4.456H114.797L114.389 5.728Z" fill="white"/>
<path d="M0.456 21V15.24H1.416V17.64H5.384V15.24H6.344V21H5.384V18.6H1.416V21H0.456ZM11.5007 21C11.3034 21 11.122 20.952 10.9567 20.856C10.7967 20.76 10.6687 20.6293 10.5727 20.464C10.4767 20.2987 10.4287 20.1173 10.4287 19.92V19.536H11.3887V19.888C11.3887 19.9307 11.402 19.9653 11.4287 19.992C11.4554 20.0187 11.49 20.032 11.5327 20.032H15.0687C15.1114 20.032 15.146 20.0187 15.1727 19.992C15.2047 19.9653 15.2207 19.9307 15.2207 19.888V18.744C15.2207 18.7067 15.2047 18.6747 15.1727 18.648C15.146 18.616 15.1114 18.6 15.0687 18.6H11.5007C11.3034 18.6 11.122 18.552 10.9567 18.456C10.7967 18.36 10.6687 18.232 10.5727 18.072C10.4767 17.9067 10.4287 17.7253 10.4287 17.528V16.32C10.4287 16.1227 10.4767 15.9413 10.5727 15.776C10.6687 15.6107 10.7967 15.48 10.9567 15.384C11.122 15.288 11.3034 15.24 11.5007 15.24H15.1087C15.306 15.24 15.4847 15.288 15.6447 15.384C15.81 15.48 15.9407 15.6107 16.0367 15.776C16.138 15.9413 16.1887 16.1227 16.1887 16.32V16.704H15.2207V16.352C15.2207 16.3093 15.2047 16.2747 15.1727 16.248C15.146 16.2213 15.1114 16.208 15.0687 16.208H11.5327C11.49 16.208 11.4554 16.2213 11.4287 16.248C11.402 16.2747 11.3887 16.3093 11.3887 16.352V17.496C11.3887 17.5333 11.402 17.568 11.4287 17.6C11.4554 17.6267 11.49 17.64 11.5327 17.64H15.1087C15.306 17.64 15.4847 17.688 15.6447 17.784C15.81 17.88 15.9407 18.0107 16.0367 18.176C16.138 18.336 16.1887 18.5147 16.1887 18.712V19.92C16.1887 20.1173 16.138 20.2987 16.0367 20.464C15.9407 20.6293 15.81 20.76 15.6447 20.856C15.4847 20.952 15.306 21 15.1087 21H11.5007ZM22.3662 21V16.208H19.9662V15.24H25.7262V16.208H23.3262V21H22.3662ZM29.5246 21V15.248H34.2046C34.4019 15.248 34.5806 15.2987 34.7406 15.4C34.9059 15.496 35.0366 15.6267 35.1326 15.792C35.2339 15.952 35.2846 16.1307 35.2846 16.328V17.912C35.2846 18.104 35.2339 18.2827 35.1326 18.448C35.0366 18.6133 34.9059 18.744 34.7406 18.84C34.5806 18.936 34.4019 18.984 34.2046 18.984L30.4846 18.992V21H29.5246ZM30.6286 18.016H34.1726C34.2099 18.016 34.2419 18.0027 34.2686 17.976C34.3006 17.9493 34.3166 17.9147 34.3166 17.872V16.352C34.3166 16.3147 34.3006 16.2827 34.2686 16.256C34.2419 16.224 34.2099 16.208 34.1726 16.208H30.6286C30.5912 16.208 30.5566 16.224 30.5246 16.256C30.4979 16.2827 30.4846 16.3147 30.4846 16.352V17.872C30.4846 17.9147 30.4979 17.9493 30.5246 17.976C30.5566 18.0027 30.5912 18.016 30.6286 18.016ZM45.6835 21C45.4862 21 45.3075 20.952 45.1475 20.856C44.9875 20.76 44.8568 20.632 44.7555 20.472C44.6595 20.312 44.6115 20.1307 44.6115 19.928V18.336C44.6115 18.2187 44.6595 18.1013 44.7555 17.984C44.8568 17.8613 44.9928 17.7787 45.1635 17.736C45.0035 17.5813 44.9235 17.3867 44.9235 17.152V16.32C44.9235 16.1173 44.9715 15.936 45.0675 15.776C45.1688 15.616 45.2995 15.488 45.4595 15.392C45.6195 15.296 45.7955 15.248 45.9875 15.248H49.0355C49.2062 15.248 49.3662 15.288 49.5155 15.368C49.6648 15.448 49.7928 15.5573 49.8995 15.696C50.0062 15.8293 50.0755 15.976 50.1075 16.136V16.712H49.1475V16.36C49.1475 16.3227 49.1315 16.2907 49.0995 16.264C49.0728 16.232 49.0408 16.216 49.0035 16.216H46.0275C45.9848 16.216 45.9475 16.232 45.9155 16.264C45.8888 16.2907 45.8755 16.3227 45.8755 16.36V17.344L49.3875 19.112V18.184H50.3395V19.488L51.3315 20.08V21.016L50.2195 20.384C50.1235 20.5653 49.9902 20.7147 49.8195 20.832C49.6488 20.944 49.4648 21 49.2675 21H45.6835ZM45.7155 20.048H48.7635C48.8222 20.048 48.8782 20.0347 48.9315 20.008C48.9848 19.9813 49.0355 19.9493 49.0835 19.912L45.8435 18.272L45.7235 18.24C45.6755 18.24 45.6355 18.2667 45.6035 18.32C45.5768 18.368 45.5635 18.456 45.5635 18.584V19.896C45.5635 19.9387 45.5768 19.976 45.6035 20.008C45.6355 20.0347 45.6728 20.048 45.7155 20.048ZM55.3273 21.96V21.008H61.0633V21.96H55.3273ZM68.5843 21V16.336C68.5843 16.2987 68.5683 16.2667 68.5363 16.24C68.5096 16.208 68.4776 16.192 68.4403 16.192H64.7443V15.232H68.4723C68.6643 15.232 68.8403 15.28 69.0003 15.376C69.1656 15.472 69.2963 15.6027 69.3923 15.768C69.4883 15.928 69.5363 16.1067 69.5363 16.304V21H68.5843ZM73.6736 19.112V18.16H76.9056V19.112H73.6736ZM82.0304 21C81.833 21 81.6517 20.952 81.4864 20.856C81.3264 20.7547 81.1984 20.624 81.1024 20.464C81.0064 20.304 80.9584 20.1253 80.9584 19.928V14.912H81.9104V16.36H83.7664V17.312H81.9104V19.896C81.9104 19.9387 81.9237 19.976 81.9504 20.008C81.9824 20.0347 82.0197 20.048 82.0624 20.048H83.7664V21H82.0304ZM88.3546 22.744V21.784H91.1786C91.2159 21.784 91.2479 21.768 91.2746 21.736C91.3066 21.7093 91.3226 21.6773 91.3226 21.64V21H88.6346C88.4426 21 88.2639 20.952 88.0986 20.856C87.9386 20.7547 87.8079 20.624 87.7066 20.464C87.6106 20.304 87.5626 20.1253 87.5626 19.928V16.376H88.5146V19.896C88.5146 19.9387 88.5279 19.976 88.5546 20.008C88.5866 20.0347 88.6239 20.048 88.6666 20.048H91.1786C91.2159 20.048 91.2479 20.0347 91.2746 20.008C91.3066 19.976 91.3226 19.9387 91.3226 19.896V16.376H92.2746V21.672C92.2746 21.8747 92.2266 22.056 92.1306 22.216C92.0399 22.376 91.9119 22.504 91.7466 22.6C91.5866 22.696 91.4079 22.744 91.2106 22.744H88.3546ZM96.2961 22.84V16.36H99.9441C100.136 16.36 100.312 16.4107 100.472 16.512C100.637 16.608 100.768 16.736 100.864 16.896C100.96 17.056 101.008 17.2347 101.008 17.432V19.928C101.008 20.1253 100.96 20.304 100.864 20.464C100.768 20.624 100.637 20.7547 100.472 20.856C100.312 20.952 100.136 21 99.9441 21H97.2481V22.84H96.2961ZM97.4001 20.048H99.9121C99.9494 20.048 99.9814 20.0347 100.008 20.008C100.04 19.976 100.056 19.9387 100.056 19.896V17.464C100.056 17.4213 100.04 17.3867 100.008 17.36C99.9814 17.328 99.9494 17.312 99.9121 17.312H97.4001C97.3627 17.312 97.3281 17.328 97.2961 17.36C97.2641 17.3867 97.2481 17.4213 97.2481 17.464V19.896C97.2481 19.9387 97.2641 19.976 97.2961 20.008C97.3281 20.0347 97.3627 20.048 97.4001 20.048ZM105.857 21C105.659 21 105.481 20.952 105.321 20.856C105.161 20.7547 105.03 20.624 104.929 20.464C104.833 20.304 104.785 20.1253 104.785 19.928V17.432C104.785 17.2347 104.833 17.056 104.929 16.896C105.03 16.736 105.161 16.608 105.321 16.512C105.481 16.4107 105.659 16.36 105.857 16.36H108.425C108.627 16.36 108.809 16.4107 108.969 16.512C109.129 16.608 109.257 16.736 109.353 16.896C109.449 17.056 109.497 17.2347 109.497 17.432V19.16H105.737V19.896C105.737 19.9387 105.75 19.976 105.777 20.008C105.809 20.0347 105.846 20.048 105.889 20.048H109.497V21H105.857ZM105.737 18.288H108.545V17.464C108.545 17.4213 108.529 17.3867 108.497 17.36C108.47 17.328 108.435 17.312 108.393 17.312H105.889C105.846 17.312 105.809 17.328 105.777 17.36C105.75 17.3867 105.737 17.4213 105.737 17.464V18.288Z" fill="white"/>
<path d="M1.528 33C1.33067 33 1.14933 32.9493 0.984 32.848C0.824 32.7413 0.696 32.6027 0.6 32.432C0.504 32.2613 0.456 32.08 0.456 31.888V28.328C0.456 28.1307 0.504 27.9493 0.6 27.784C0.696 27.6187 0.824 27.488 0.984 27.392C1.14933 27.2907 1.33067 27.24 1.528 27.24H5.112C5.30933 27.24 5.488 27.2907 5.648 27.392C5.81333 27.488 5.944 27.6187 6.04 27.784C6.136 27.9493 6.184 28.1307 6.184 28.328V31.888C6.184 32.08 6.136 32.2613 6.04 32.432C5.944 32.6027 5.81333 32.7413 5.648 32.848C5.488 32.9493 5.30933 33 5.112 33H1.528ZM1.792 32H5.088C5.12533 32 5.15733 31.9867 5.184 31.96C5.216 31.928 5.232 31.8933 5.232 31.856V29.144L1.792 32ZM1.408 31.072L4.848 28.216H1.56C1.51733 28.216 1.48 28.232 1.448 28.264C1.42133 28.2907 1.408 28.3227 1.408 28.36V31.072ZM10.3279 33V30.8C10.3279 30.6027 10.3759 30.424 10.4719 30.264C10.5679 30.0987 10.6959 29.9707 10.8559 29.88C11.0212 29.784 11.2025 29.736 11.3999 29.736H14.9599C14.9972 29.736 15.0292 29.7227 15.0559 29.696C15.0879 29.664 15.1039 29.6267 15.1039 29.584V28.344C15.1039 28.3013 15.0879 28.2667 15.0559 28.24C15.0292 28.208 14.9972 28.192 14.9599 28.192H11.4319C11.3892 28.192 11.3519 28.208 11.3199 28.24C11.2932 28.2667 11.2799 28.3013 11.2799 28.344V28.696H10.3279V28.312C10.3279 28.1093 10.3759 27.928 10.4719 27.768C10.5679 27.608 10.6959 27.48 10.8559 27.384C11.0212 27.288 11.2025 27.24 11.3999 27.24H14.9839C15.1812 27.24 15.3599 27.288 15.5199 27.384C15.6852 27.48 15.8159 27.608 15.9119 27.768C16.0079 27.928 16.0559 28.1093 16.0559 28.312V29.616C16.0559 29.8133 16.0079 29.9947 15.9119 30.16C15.8159 30.32 15.6852 30.4507 15.5199 30.552C15.3599 30.648 15.1812 30.696 14.9839 30.696H11.4319C11.3892 30.696 11.3519 30.7093 11.3199 30.736C11.2932 30.7627 11.2799 30.7973 11.2799 30.84V31.896C11.2799 31.9387 11.2932 31.976 11.3199 32.008C11.3519 32.0347 11.3892 32.048 11.4319 32.048H16.0559V33H10.3279ZM21.2085 33C21.0432 33 20.8858 32.9573 20.7365 32.872C20.5925 32.7867 20.4672 32.6747 20.3605 32.536C20.2592 32.392 20.1872 32.2293 20.1445 32.048H24.7685C24.8058 32.048 24.8378 32.0347 24.8645 32.008C24.8965 31.976 24.9125 31.9387 24.9125 31.896V30.808C24.9125 30.7707 24.8965 30.7387 24.8645 30.712C24.8378 30.68 24.8058 30.664 24.7685 30.664H21.2085C21.0112 30.664 20.8298 30.616 20.6645 30.52C20.5045 30.4187 20.3765 30.288 20.2805 30.128C20.1845 29.9627 20.1365 29.7813 20.1365 29.584V28.312C20.1365 28.1093 20.1845 27.928 20.2805 27.768C20.3765 27.608 20.5045 27.48 20.6645 27.384C20.8298 27.288 21.0112 27.24 21.2085 27.24H24.8005C24.9925 27.24 25.1685 27.288 25.3285 27.384C25.4938 27.48 25.6245 27.608 25.7205 27.768C25.8218 27.928 25.8725 28.1093 25.8725 28.312V31.928C25.8725 32.1253 25.8218 32.304 25.7205 32.464C25.6245 32.624 25.4938 32.7547 25.3285 32.856C25.1685 32.952 24.9925 33 24.8005 33H21.2085ZM21.2405 29.704H24.9125V28.344C24.9125 28.3013 24.8965 28.2667 24.8645 28.24C24.8378 28.208 24.8058 28.192 24.7685 28.192H21.2405C21.2032 28.192 21.1685 28.208 21.1365 28.24C21.1098 28.2667 21.0965 28.3013 21.0965 28.344V29.552C21.0965 29.5947 21.1098 29.632 21.1365 29.664C21.1685 29.6907 21.2032 29.704 21.2405 29.704ZM31.0415 33C30.8388 33 30.6575 32.952 30.4975 32.856C30.3375 32.7547 30.2068 32.624 30.1055 32.464C30.0095 32.304 29.9615 32.1253 29.9615 31.928V31.632H30.9215V31.896C30.9215 31.9387 30.9348 31.976 30.9615 32.008C30.9935 32.0347 31.0282 32.048 31.0655 32.048H34.5935C34.6362 32.048 34.6708 32.0347 34.6975 32.008C34.7295 31.976 34.7455 31.9387 34.7455 31.896V30.704C34.7455 30.6613 34.7295 30.6267 34.6975 30.6C34.6708 30.5733 34.6362 30.56 34.5935 30.56H30.9775V29.6H34.3615C34.3988 29.6 34.4308 29.5867 34.4575 29.56C34.4895 29.528 34.5055 29.4933 34.5055 29.456V28.344C34.5055 28.3013 34.4895 28.2667 34.4575 28.24C34.4308 28.208 34.3988 28.192 34.3615 28.192H31.0655C31.0282 28.192 30.9935 28.208 30.9615 28.24C30.9348 28.2667 30.9215 28.3013 30.9215 28.344V28.68H29.9615V28.312C29.9615 28.1093 30.0095 27.928 30.1055 27.768C30.2068 27.608 30.3375 27.48 30.4975 27.384C30.6575 27.288 30.8388 27.24 31.0415 27.24H34.3935C34.5908 27.24 34.7695 27.288 34.9295 27.384C35.0948 27.48 35.2255 27.608 35.3215 27.768C35.4175 27.928 35.4655 28.1093 35.4655 28.312V29.488C35.4655 29.552 35.4575 29.6187 35.4415 29.688C35.4308 29.7573 35.4148 29.8213 35.3935 29.88C35.4948 29.992 35.5695 30.1173 35.6175 30.256C35.6708 30.3947 35.6975 30.5333 35.6975 30.672V31.928C35.6975 32.1253 35.6495 32.304 35.5535 32.464C35.4575 32.624 35.3268 32.7547 35.1615 32.856C35.0015 32.952 34.8228 33 34.6255 33H31.0415ZM40.8749 33C40.6775 33 40.4962 32.952 40.3309 32.856C40.1709 32.7547 40.0429 32.624 39.9469 32.464C39.8509 32.304 39.8029 32.1253 39.8029 31.928V30.648C39.8029 30.5467 39.8189 30.448 39.8509 30.352C39.8882 30.2507 39.9335 30.152 39.9869 30.056C39.9335 29.9653 39.8882 29.8693 39.8509 29.768C39.8189 29.6613 39.8029 29.5573 39.8029 29.456V28.312C39.8029 28.1093 39.8509 27.928 39.9469 27.768C40.0429 27.608 40.1709 27.48 40.3309 27.384C40.4962 27.288 40.6775 27.24 40.8749 27.24H44.4589C44.6295 27.24 44.7895 27.28 44.9389 27.36C45.0882 27.44 45.2162 27.5467 45.3229 27.68C45.4295 27.8133 45.4989 27.96 45.5309 28.12V29.456C45.5309 29.6587 45.4695 29.8587 45.3469 30.056C45.4695 30.2373 45.5309 30.4347 45.5309 30.648V31.928C45.5309 32.1253 45.4829 32.304 45.3869 32.464C45.2909 32.624 45.1602 32.7547 44.9949 32.856C44.8349 32.952 44.6562 33 44.4589 33H40.8749ZM40.9069 32.048H44.4349C44.4722 32.048 44.5042 32.0347 44.5309 32.008C44.5629 31.976 44.5789 31.9387 44.5789 31.896V30.688C44.5789 30.6453 44.5629 30.6107 44.5309 30.584C44.5042 30.552 44.4722 30.536 44.4349 30.536H40.9069C40.8642 30.536 40.8269 30.552 40.7949 30.584C40.7682 30.6107 40.7549 30.6453 40.7549 30.688V31.896C40.7549 31.9387 40.7682 31.976 40.7949 32.008C40.8269 32.0347 40.8642 32.048 40.9069 32.048ZM40.9069 29.664H44.4349C44.4722 29.664 44.5042 29.6507 44.5309 29.624C44.5629 29.592 44.5789 29.5547 44.5789 29.512V28.352C44.5789 28.3093 44.5629 28.2747 44.5309 28.248C44.5042 28.216 44.4722 28.2 44.4349 28.2H40.9069C40.8642 28.2 40.8269 28.216 40.7949 28.248C40.7682 28.2747 40.7549 28.3093 40.7549 28.352V29.512C40.7549 29.5547 40.7682 29.592 40.7949 29.624C40.8269 29.6507 40.8642 29.664 40.9069 29.664ZM49.6508 33.96V33.008H55.3868V33.96H49.6508ZM60.5478 33C60.3451 33 60.1638 32.952 60.0038 32.856C59.8438 32.7547 59.7131 32.624 59.6118 32.464C59.5158 32.304 59.4678 32.1253 59.4678 31.928V31.632H60.4278V31.896C60.4278 31.9387 60.4411 31.976 60.4678 32.008C60.4998 32.0347 60.5344 32.048 60.5718 32.048H64.0998C64.1424 32.048 64.1771 32.0347 64.2038 32.008C64.2358 31.976 64.2518 31.9387 64.2518 31.896V30.704C64.2518 30.6613 64.2358 30.6267 64.2038 30.6C64.1771 30.5733 64.1424 30.56 64.0998 30.56H60.4838V29.6H63.8678C63.9051 29.6 63.9371 29.5867 63.9638 29.56C63.9958 29.528 64.0118 29.4933 64.0118 29.456V28.344C64.0118 28.3013 63.9958 28.2667 63.9638 28.24C63.9371 28.208 63.9051 28.192 63.8678 28.192H60.5718C60.5344 28.192 60.4998 28.208 60.4678 28.24C60.4411 28.2667 60.4278 28.3013 60.4278 28.344V28.68H59.4678V28.312C59.4678 28.1093 59.5158 27.928 59.6118 27.768C59.7131 27.608 59.8438 27.48 60.0038 27.384C60.1638 27.288 60.3451 27.24 60.5478 27.24H63.8998C64.0971 27.24 64.2758 27.288 64.4358 27.384C64.6011 27.48 64.7318 27.608 64.8278 27.768C64.9238 27.928 64.9718 28.1093 64.9718 28.312V29.488C64.9718 29.552 64.9638 29.6187 64.9478 29.688C64.9371 29.7573 64.9211 29.8213 64.8998 29.88C65.0011 29.992 65.0758 30.1173 65.1238 30.256C65.1771 30.3947 65.2038 30.5333 65.2038 30.672V31.928C65.2038 32.1253 65.1558 32.304 65.0598 32.464C64.9638 32.624 64.8331 32.7547 64.6678 32.856C64.5078 32.952 64.3291 33 64.1318 33H60.5478ZM70.3491 33C70.1838 33 70.0265 32.9573 69.8771 32.872C69.7331 32.7867 69.6078 32.6747 69.5011 32.536C69.3998 32.392 69.3278 32.2293 69.2851 32.048H73.9091C73.9465 32.048 73.9785 32.0347 74.0051 32.008C74.0371 31.976 74.0531 31.9387 74.0531 31.896V30.808C74.0531 30.7707 74.0371 30.7387 74.0051 30.712C73.9785 30.68 73.9465 30.664 73.9091 30.664H70.3491C70.1518 30.664 69.9705 30.616 69.8051 30.52C69.6451 30.4187 69.5171 30.288 69.4211 30.128C69.3251 29.9627 69.2771 29.7813 69.2771 29.584V28.312C69.2771 28.1093 69.3251 27.928 69.4211 27.768C69.5171 27.608 69.6451 27.48 69.8051 27.384C69.9705 27.288 70.1518 27.24 70.3491 27.24H73.9411C74.1331 27.24 74.3091 27.288 74.4691 27.384C74.6345 27.48 74.7651 27.608 74.8611 27.768C74.9625 27.928 75.0131 28.1093 75.0131 28.312V31.928C75.0131 32.1253 74.9625 32.304 74.8611 32.464C74.7651 32.624 74.6345 32.7547 74.4691 32.856C74.3091 32.952 74.1331 33 73.9411 33H70.3491ZM70.3811 29.704H74.0531V28.344C74.0531 28.3013 74.0371 28.2667 74.0051 28.24C73.9785 28.208 73.9465 28.192 73.9091 28.192H70.3811C70.3438 28.192 70.3091 28.208 70.2771 28.24C70.2505 28.2667 70.2371 28.3013 70.2371 28.344V29.552C70.2371 29.5947 70.2505 29.632 70.2771 29.664C70.3091 29.6907 70.3438 29.704 70.3811 29.704Z" fill="white"/>
</svg>
