<svg width="30" height="22" viewBox="0 0 30 22" fill="none" xmlns="http://www.w3.org/2000/svg">
<path d="M2.91443e-07 10.2134C2.91443e-07 4.57368 5.59592 0 12.5 0C19.4041 0 25 4.57368 25 10.2134C25 13.1561 23.4695 15.7993 21.0318 17.6639C21.6432 19.2386 22.5046 20.703 23.5827 22C21.0854 22 17.8696 21.6706 15.3942 20.1414C14.4632 20.323 13.4965 20.4289 12.5 20.4289C5.59592 20.4269 2.91443e-07 15.8552 2.91443e-07 10.2134Z" fill="white"/>
<path d="M4.736 13V7.496H5.64V12.208H8.08V13H4.736ZM9.0485 13V7.496H9.9525V13H9.0485ZM11.4157 13V7.496H12.3197V9.816H13.0877L14.8877 7.496H15.8797L13.8237 10.144L15.9037 13H14.8557L13.0877 10.584H12.3197V13H11.4157ZM16.7985 13V7.496H20.4625V8.264H17.7025V9.84H20.0865V10.608H17.7025V12.232H20.4625V13H16.7985Z" fill="#0000FF"/>
</svg>
