<svg width="46" height="149" viewBox="0 0 46 149" fill="none" xmlns="http://www.w3.org/2000/svg">
<rect x="39.9963" y="4" width="4" height="4" transform="rotate(-90 39.9963 4)" fill="#0000FF"/>
<rect x="40.2881" y="27.9982" width="4" height="4" transform="rotate(-90 40.2881 27.9982)" fill="#0000FF"/>
<rect x="40.5798" y="51.9965" width="4" height="4" transform="rotate(-90 40.5798 51.9965)" fill="#0000FF"/>
<rect x="40.8715" y="75.9947" width="4" height="4" transform="rotate(-90 40.8715 75.9947)" fill="#0000FF"/>
<rect x="41.1633" y="99.9929" width="4" height="4" transform="rotate(-90 41.1633 99.9929)" fill="#0000FF"/>
<rect x="41.455" y="123.991" width="4" height="4" transform="rotate(-90 41.455 123.991)" fill="#0000FF"/>
<rect x="41.7467" y="147.989" width="4" height="4" transform="rotate(-90 41.7467 147.989)" fill="#0000FF"/>
<rect x="14.9982" y="4.30389" width="4" height="4" transform="rotate(-90 14.9982 4.30389)" fill="#0000FF"/>
<rect x="15.2899" y="28.3021" width="4" height="4" transform="rotate(-90 15.2899 28.3021)" fill="#0000FF"/>
<rect x="15.5817" y="52.3004" width="4" height="4" transform="rotate(-90 15.5817 52.3004)" fill="#0000FF"/>
<rect x="15.8733" y="76.2986" width="4" height="4" transform="rotate(-90 15.8733 76.2986)" fill="#0000FF"/>
<rect x="16.165" y="100.297" width="4" height="4" transform="rotate(-90 16.165 100.297)" fill="#0000FF"/>
<rect x="16.4568" y="124.295" width="4" height="4" transform="rotate(-90 16.4568 124.295)" fill="#0000FF"/>
<rect x="16.7485" y="148.293" width="4" height="4" transform="rotate(-90 16.7485 148.293)" fill="#0000FF"/>
</svg>
