<svg width="91" height="56" viewBox="0 0 91 56" fill="none" xmlns="http://www.w3.org/2000/svg">
<path d="M1 6L32 38" stroke="#0000FF"/>
<path d="M46.5 40C51 44.8333 60.1 54.5 60.5 54.5C60.9 54.5 80.3333 54.5 90 54.5" stroke="#0000FF"/>
<rect y="5" width="3" height="3" fill="#0000FF"/>
<rect x="31" y="36" width="3" height="3" fill="#0000FF"/>
<rect x="46" y="39" width="3" height="3" fill="#0000FF"/>
<rect x="88" y="53" width="3" height="3" fill="#0000FF"/>
<rect x="85" y="47" width="3" height="3" fill="#0000FF"/>
<rect x="31" y="30" width="3" height="3" fill="#0000FF"/>
<rect x="35" y="34" width="3" height="3" fill="#0000FF"/>
<rect x="3" width="3" height="3" fill="#0000FF"/>
<rect x="5" y="4" width="2" height="2" fill="#0000FF"/>
<rect x="82" y="51" width="2" height="2" fill="#0000FF"/>
<rect x="86" y="52" width="1" height="1" fill="#0000FF"/>
</svg>
