<svg width="604" height="317" viewBox="0 0 604 317" fill="none" xmlns="http://www.w3.org/2000/svg">
<g id="logo">
<g id="letter-logo-2">
<path id="Vector 3" d="M316.773 1L312.332 5.44064V24.0358L317.05 28.754H406.141L411.136 33.7497L372.836 82.3192V90.3678H364.787V102.302H358.681V111.183H351.465V119.787H343.694V130.334H336.201V139.215H328.707V149.761H321.214V158.365H313.998V167.524H306.781V176.405H300.121V190.837L289.852 195.833V219.424H313.72V210.265H321.214V201.384H328.985V192.503H335.923V183.621H343.694V172.797H349.523V162.806H357.016V153.647H364.51V145.043H371.726V134.497H379.219V113.959H388.933L423.071 66.4994H421.128V62.8914H425.013L428.344 57.6181H434.172V312.677L437.225 315.73H457.486L460.539 312.677V298.523H458.041V296.58H460.539V294.082H458.041V292.139H460.539V289.641H458.041V287.699H460.539V167.524L462.204 165.859H474.138V153.924H458.041V135.884H461.371V127.281H458.041V122.285H452.212V109.241H458.041V120.897H461.371V57.6181H465.534L535.752 152.259H547.131L596.533 219.146H603.194V177.793L585.432 152.259H572.665L562.951 139.492L563.783 137.55H566.281V127.281H554.625L484.962 33.4722L488.015 30.4192H520.487V24.8684H551.849V30.4192H578.215L582.934 25.701V5.71818L578.215 1H316.773Z" fill="white" stroke="white" stroke-width="1.4"/>
<path id="Vector 4" d="M416.41 114.236V109.518H396.982V114.236H416.41Z" fill="white" stroke="white" stroke-width="0.601459"/>
<path id="Vector 5" d="M534.919 152.259H521.875L528.536 161.418L534.919 152.259Z" fill="white" stroke="white" stroke-width="0.601459"/>
</g>
<g id="letter-logo-1">
<path id="Vector 1" d="M34.8599 1H5.99572L1 5.44064V25.9786L5.71818 30.6968H180.291L185.009 35.4149V67.8871H201.939V75.1031H185.564V224.975L148.096 273.267V315.73H155.59L214.983 237.186V223.865H212.485V220.812H214.983V217.204H212.485V213.873H214.983V210.265H212.485V207.212H214.983V203.882H212.485V201.384H214.983V90.0903H221.089V83.9844H229.97V80.9315H190.005V78.9887H214.983V48.4593L197.221 30.6968H234.133L238.852 25.9786V5.71818L234.133 1H45.4064V10.7139H34.8599V1Z" fill="white" stroke="white" stroke-width="1.4"/>
<g id="Vector 2">
<path d="M130.334 184.731V181.956H127.281L118.399 173.075V63.1689L113.959 58.7283H22.0932L17.6525 63.1689V181.956H26.2563V224.975H85.6498V209.988H75.3808V196.666H50.1247L45.684 192.225V91.2004L50.1247 86.7598H85.6498L90.368 91.478V144.766H96.1963V184.731H130.334Z" fill="white"/>
<path d="M15.7097 183.621H8.77124V202.494H15.7097V183.621Z" fill="white"/>
<path d="M130.334 184.731V181.956H127.281L118.399 173.075V63.1689L113.959 58.7283H22.0932L17.6525 63.1689V181.956H26.2563V224.975H85.6498V209.988H75.3808V196.666H50.1247L45.684 192.225V91.2004L50.1247 86.7598H85.6498L90.368 91.478V144.766H96.1963V184.731H130.334Z" stroke="white" stroke-width="1.4"/>
<path d="M15.7097 183.621H8.77124V202.494H15.7097V183.621Z" stroke="white" stroke-width="1.4"/>
</g>
</g>
</g>
</svg>
