<svg width="289" height="289" viewBox="0 0 289 289" fill="none" xmlns="http://www.w3.org/2000/svg">
<rect width="289" height="289" rx="144.5" fill="#0000FF"/>
<path d="M154.623 105L153.291 106.332V111.91L154.706 113.325H181.431L182.929 114.824L171.44 129.393V131.808H169.026V135.388H167.194V138.052H165.03V140.633H162.698V143.797H160.451V146.461H158.203V149.624H155.955V152.205H153.79V154.953H151.626V157.617H149.628V161.946L146.547 163.444V170.521H153.707V167.774H155.955V165.11H158.286V162.446H160.367V159.781H162.698V156.534H164.447V153.537H166.695V150.79H168.943V148.209H171.107V145.045H173.355V138.885H176.269L186.509 124.648H185.926V123.566H187.092L188.091 121.984H189.839V198.494L190.755 199.41H196.833L197.749 198.494V194.249H196.999V193.666H197.749V192.916H196.999V192.334H197.749V191.584H196.999V191.002H197.749V154.953L198.248 154.453H201.828V150.873H196.999V145.461H197.998V142.881H196.999V141.382H195.251V137.469H196.999V140.966H197.998V121.984H199.247L220.311 150.373H223.724L238.543 170.438H240.541V158.033L235.213 150.373H231.383L228.469 146.544L228.719 145.961H229.468V142.881H225.972L205.075 114.741L205.991 113.825H215.731V112.16H225.139V113.825H233.048L234.464 112.41V106.415L233.048 105H154.623Z" fill="white" stroke="white" stroke-width="0.419961"/>
<path d="M184.511 138.967V137.552H178.683V138.967H184.511Z" fill="white" stroke="white" stroke-width="0.180421"/>
<path d="M220.06 150.374H216.147L218.146 153.121L220.06 150.374Z" fill="white" stroke="white" stroke-width="0.180421"/>
<path d="M94.7969 160.114V159.282H93.8811L91.2167 156.618V123.649L89.8849 122.317H62.3277L60.9956 123.649V159.282H63.5765V172.186H81.3929V167.691H78.3125V163.694H70.7364L69.4043 162.362V132.058L70.7364 130.726H81.3929L82.8082 132.141V148.126H84.5566V160.114H94.7969Z" fill="white"/>
<path d="M66.157 105H57.4986L56 106.332V112.493L57.4153 113.908H109.782L111.198 115.324V125.064H116.276V127.229H111.364V172.186L100.125 186.672V199.41H102.373L120.189 175.849V171.853H119.44V170.937H120.189V169.855H119.44V168.856H120.189V167.774H119.44V166.858H120.189V165.859H119.44V165.11H120.189V131.725H122.021V129.893H124.685V128.977H112.696V128.394H120.189V119.236L114.861 113.908H125.933L127.349 112.493V106.415L125.933 105H69.3207V107.914H66.157V105Z" fill="white" stroke="white" stroke-width="0.419961"/>
<path d="M60.4129 159.781H58.3315V165.443H60.4129V159.781Z" fill="white"/>
<path d="M94.7969 160.114V159.282H93.8811L91.2167 156.618V123.649L89.8849 122.317H62.3277L60.9956 123.649V159.282H63.5765V172.186H81.3929V167.691H78.3125V163.694H70.7364L69.4043 162.362V132.058L70.7364 130.726H81.3929L82.8082 132.141V148.126H84.5566V160.114H94.7969Z" stroke="white" stroke-width="0.419961"/>
<path d="M60.4129 159.781H58.3315V165.443H60.4129V159.781Z" stroke="white" stroke-width="0.419961"/>
</svg>
