<svg width="248" height="75" viewBox="0 0 248 75" fill="none" xmlns="http://www.w3.org/2000/svg">
<path d="M0.28 12L2.88 5.12H3.96L6.55 12H5.66L4.95 10.12H1.86L1.15 12H0.28ZM2.12 9.37H4.69L3.43 6H3.38L2.12 9.37ZM11.8359 12V5.12H14.9959C15.4293 5.12 15.7726 5.17333 16.0259 5.28C16.2859 5.38 16.4759 5.52667 16.5959 5.72C16.7226 5.90667 16.8059 6.12667 16.8459 6.38C16.8859 6.63333 16.9059 6.90333 16.9059 7.19C16.9059 7.43667 16.8826 7.69333 16.8359 7.96C16.7959 8.22 16.6993 8.45667 16.5459 8.67C16.3993 8.88333 16.1659 9.04 15.8459 9.14L17.0059 12H16.0859L14.9459 9.11L15.1859 9.23C15.1393 9.24333 15.0826 9.25333 15.0159 9.26C14.9493 9.26667 14.8593 9.27 14.7459 9.27H12.6959V12H11.8359ZM12.6959 8.52H14.6259C14.9593 8.52 15.2193 8.49333 15.4059 8.44C15.5993 8.38667 15.7393 8.30333 15.8259 8.19C15.9193 8.07667 15.9793 7.94 16.0059 7.78C16.0326 7.61333 16.0459 7.41667 16.0459 7.19C16.0459 6.96333 16.0326 6.77 16.0059 6.61C15.9859 6.44333 15.9326 6.30667 15.8459 6.2C15.7659 6.08667 15.6326 6.00333 15.4459 5.95C15.2659 5.89 15.0159 5.86 14.6959 5.86H12.6959V8.52ZM24.1126 12V5.88H21.9426V5.12H27.1526V5.88H24.9726V12H24.1126ZM32.4531 12V5.12H33.3131V12H32.4531ZM39.3145 12V5.12H43.5845V5.86H40.1745V8.31H43.2145V9.05H40.1745V12H39.3145ZM48.9688 12V5.12H49.8288V12H48.9688ZM58.3601 12.08C57.8801 12.08 57.4767 12.0533 57.1501 12C56.8234 11.94 56.5567 11.84 56.3501 11.7C56.1434 11.5533 55.9834 11.35 55.8701 11.09C55.7634 10.8233 55.6901 10.4833 55.6501 10.07C55.6101 9.65667 55.5901 9.15333 55.5901 8.56C55.5901 7.96667 55.6101 7.46667 55.6501 7.06C55.6901 6.64667 55.7634 6.31 55.8701 6.05C55.9834 5.78333 56.1434 5.57667 56.3501 5.43C56.5567 5.28333 56.8234 5.18333 57.1501 5.13C57.4767 5.07 57.8801 5.04 58.3601 5.04C58.5467 5.04 58.7367 5.04667 58.9301 5.06C59.1301 5.07333 59.3201 5.09 59.5001 5.11C59.6801 5.13 59.8367 5.15667 59.9701 5.19V5.88C59.8167 5.86 59.6567 5.84333 59.4901 5.83C59.3301 5.81 59.1701 5.79667 59.0101 5.79C58.8501 5.78333 58.7067 5.78 58.5801 5.78C58.1934 5.78 57.8701 5.79667 57.6101 5.83C57.3501 5.86333 57.1434 5.93 56.9901 6.03C56.8367 6.12333 56.7201 6.27333 56.6401 6.48C56.5667 6.68 56.5167 6.95 56.4901 7.29C56.4634 7.62333 56.4501 8.04667 56.4501 8.56C56.4501 9.07333 56.4634 9.5 56.4901 9.84C56.5167 10.1733 56.5667 10.4433 56.6401 10.65C56.7201 10.85 56.8367 11 56.9901 11.1C57.1434 11.1933 57.3501 11.2567 57.6101 11.29C57.8701 11.3233 58.1934 11.34 58.5801 11.34C58.8067 11.34 59.0534 11.33 59.3201 11.31C59.5867 11.29 59.8167 11.2667 60.0101 11.24V11.95C59.8701 11.9767 59.7034 11.9967 59.5101 12.01C59.3234 12.03 59.1301 12.0467 58.9301 12.06C58.7301 12.0733 58.5401 12.08 58.3601 12.08ZM65.582 12V5.12H66.442V12H65.582ZM71.7234 12L74.3234 5.12H75.4034L77.9934 12H77.1034L76.3934 10.12H73.3034L72.5934 12H71.7234ZM73.5634 9.37H76.1334L74.8734 6H74.8234L73.5634 9.37ZM83.2793 12V5.12H84.1393V11.24H87.3493V12H83.2793ZM101.304 12.08C101.057 12.08 100.787 12.0733 100.494 12.06C100.2 12.0467 99.9137 12.03 99.6337 12.01C99.3603 11.99 99.1103 11.9667 98.8837 11.94V11.21C99.1237 11.23 99.3737 11.25 99.6337 11.27C99.9003 11.29 100.157 11.3067 100.404 11.32C100.657 11.3333 100.87 11.34 101.044 11.34C101.397 11.34 101.68 11.3267 101.894 11.3C102.107 11.2667 102.287 11.2067 102.434 11.12C102.534 11.06 102.607 10.98 102.654 10.88C102.7 10.78 102.727 10.6633 102.734 10.53C102.747 10.3967 102.754 10.2533 102.754 10.1C102.754 9.87333 102.747 9.69 102.734 9.55C102.72 9.41 102.684 9.30333 102.624 9.23C102.57 9.15 102.48 9.09333 102.354 9.06C102.227 9.02 102.057 8.99 101.844 8.97L100.134 8.78C99.8137 8.74 99.557 8.67333 99.3637 8.58C99.1703 8.48 99.0237 8.35667 98.9237 8.21C98.8303 8.05667 98.767 7.87667 98.7337 7.67C98.7003 7.45667 98.6837 7.22 98.6837 6.96C98.6837 6.54 98.737 6.20333 98.8437 5.95C98.957 5.69667 99.1203 5.50333 99.3337 5.37C99.547 5.23667 99.8037 5.15 100.104 5.11C100.41 5.06333 100.76 5.04 101.154 5.04C101.407 5.04 101.667 5.04667 101.934 5.06C102.2 5.07333 102.45 5.09333 102.684 5.12C102.924 5.14 103.12 5.16667 103.274 5.2V5.91C103.1 5.88333 102.9 5.86 102.674 5.84C102.447 5.82 102.214 5.80667 101.974 5.8C101.74 5.78667 101.517 5.78 101.304 5.78C100.937 5.78 100.64 5.79667 100.414 5.83C100.187 5.86333 100.007 5.92333 99.8737 6.01C99.727 6.09667 99.6337 6.22 99.5937 6.38C99.5603 6.53333 99.5437 6.72 99.5437 6.94C99.5437 7.2 99.5603 7.40333 99.5937 7.55C99.6337 7.69 99.7137 7.79 99.8337 7.85C99.9603 7.90333 100.147 7.94333 100.394 7.97L102.064 8.16C102.304 8.18 102.514 8.21333 102.694 8.26C102.88 8.3 103.04 8.37 103.174 8.47C103.307 8.57 103.407 8.71333 103.474 8.9C103.514 8.99333 103.544 9.09667 103.564 9.21C103.584 9.32333 103.597 9.45 103.604 9.59C103.617 9.72333 103.624 9.87333 103.624 10.04C103.624 10.42 103.587 10.7367 103.514 10.99C103.44 11.2367 103.337 11.4333 103.204 11.58C103.07 11.7267 102.907 11.8367 102.714 11.91C102.52 11.9833 102.304 12.03 102.064 12.05C101.83 12.07 101.577 12.08 101.304 12.08ZM109.293 12V5.12H110.153V12H109.293ZM116.154 12V5.12H117.034L120.604 10.39H120.644V5.12H121.474V12H120.644L117.024 6.63H116.984V12H116.154ZM130.149 12.08C129.662 12.08 129.249 12.0533 128.909 12C128.569 11.94 128.289 11.8367 128.069 11.69C127.855 11.5433 127.685 11.34 127.559 11.08C127.439 10.8133 127.352 10.4767 127.299 10.07C127.252 9.65667 127.229 9.15333 127.229 8.56C127.229 7.96667 127.252 7.46667 127.299 7.06C127.352 6.64667 127.442 6.31 127.569 6.05C127.695 5.78333 127.869 5.57667 128.089 5.43C128.309 5.28333 128.585 5.18333 128.919 5.13C129.259 5.07 129.669 5.04 130.149 5.04C130.375 5.04 130.619 5.05 130.879 5.07C131.139 5.09 131.392 5.11333 131.639 5.14C131.892 5.16667 132.119 5.2 132.319 5.24V5.94C132.105 5.90667 131.889 5.88 131.669 5.86C131.449 5.83333 131.242 5.81333 131.049 5.8C130.862 5.78667 130.702 5.78 130.569 5.78C130.155 5.78 129.802 5.79 129.509 5.81C129.222 5.83 128.985 5.88333 128.799 5.97C128.612 6.05667 128.469 6.2 128.369 6.4C128.269 6.59333 128.195 6.86333 128.149 7.21C128.109 7.55667 128.089 8.00667 128.089 8.56C128.089 9.04667 128.102 9.45667 128.129 9.79C128.155 10.1167 128.209 10.3833 128.289 10.59C128.375 10.7967 128.492 10.9567 128.639 11.07C128.792 11.1833 128.992 11.26 129.239 11.3C129.492 11.3333 129.802 11.35 130.169 11.35C130.309 11.35 130.462 11.3467 130.629 11.34C130.795 11.3333 130.959 11.3233 131.119 11.31C131.279 11.2967 131.412 11.2833 131.519 11.27V9.03H129.959V8.3H132.349V11.88C132.129 11.92 131.885 11.9567 131.619 11.99C131.359 12.0167 131.099 12.0367 130.839 12.05C130.585 12.07 130.355 12.08 130.149 12.08ZM138.227 12V5.12H139.087V12H138.227ZM145.088 12V5.12H145.968L149.538 10.39H149.578V5.12H150.408V12H149.578L145.958 6.63H145.918V12H145.088ZM159.082 12.08C158.596 12.08 158.182 12.0533 157.842 12C157.502 11.94 157.222 11.8367 157.002 11.69C156.789 11.5433 156.619 11.34 156.492 11.08C156.372 10.8133 156.286 10.4767 156.232 10.07C156.186 9.65667 156.162 9.15333 156.162 8.56C156.162 7.96667 156.186 7.46667 156.232 7.06C156.286 6.64667 156.376 6.31 156.502 6.05C156.629 5.78333 156.802 5.57667 157.022 5.43C157.242 5.28333 157.519 5.18333 157.852 5.13C158.192 5.07 158.602 5.04 159.082 5.04C159.309 5.04 159.552 5.05 159.812 5.07C160.072 5.09 160.326 5.11333 160.572 5.14C160.826 5.16667 161.052 5.2 161.252 5.24V5.94C161.039 5.90667 160.822 5.88 160.602 5.86C160.382 5.83333 160.176 5.81333 159.982 5.8C159.796 5.78667 159.636 5.78 159.502 5.78C159.089 5.78 158.736 5.79 158.442 5.81C158.156 5.83 157.919 5.88333 157.732 5.97C157.546 6.05667 157.402 6.2 157.302 6.4C157.202 6.59333 157.129 6.86333 157.082 7.21C157.042 7.55667 157.022 8.00667 157.022 8.56C157.022 9.04667 157.036 9.45667 157.062 9.79C157.089 10.1167 157.142 10.3833 157.222 10.59C157.309 10.7967 157.426 10.9567 157.572 11.07C157.726 11.1833 157.926 11.26 158.172 11.3C158.426 11.3333 158.736 11.35 159.102 11.35C159.242 11.35 159.396 11.3467 159.562 11.34C159.729 11.3333 159.892 11.3233 160.052 11.31C160.212 11.2967 160.346 11.2833 160.452 11.27V9.03H158.892V8.3H161.282V11.88C161.062 11.92 160.819 11.9567 160.552 11.99C160.292 12.0167 160.032 12.0367 159.772 12.05C159.519 12.07 159.289 12.08 159.082 12.08ZM3.29 29.08C3.04333 29.08 2.77333 29.0733 2.48 29.06C2.18667 29.0467 1.9 29.03 1.62 29.01C1.34667 28.99 1.09667 28.9667 0.87 28.94V28.21C1.11 28.23 1.36 28.25 1.62 28.27C1.88667 28.29 2.14333 28.3067 2.39 28.32C2.64333 28.3333 2.85667 28.34 3.03 28.34C3.38333 28.34 3.66667 28.3267 3.88 28.3C4.09333 28.2667 4.27333 28.2067 4.42 28.12C4.52 28.06 4.59333 27.98 4.64 27.88C4.68667 27.78 4.71333 27.6633 4.72 27.53C4.73333 27.3967 4.74 27.2533 4.74 27.1C4.74 26.8733 4.73333 26.69 4.72 26.55C4.70667 26.41 4.67 26.3033 4.61 26.23C4.55667 26.15 4.46667 26.0933 4.34 26.06C4.21333 26.02 4.04333 25.99 3.83 25.97L2.12 25.78C1.8 25.74 1.54333 25.6733 1.35 25.58C1.15667 25.48 1.01 25.3567 0.91 25.21C0.816667 25.0567 0.753333 24.8767 0.72 24.67C0.686667 24.4567 0.67 24.22 0.67 23.96C0.67 23.54 0.723333 23.2033 0.83 22.95C0.943333 22.6967 1.10667 22.5033 1.32 22.37C1.53333 22.2367 1.79 22.15 2.09 22.11C2.39667 22.0633 2.74667 22.04 3.14 22.04C3.39333 22.04 3.65333 22.0467 3.92 22.06C4.18667 22.0733 4.43667 22.0933 4.67 22.12C4.91 22.14 5.10667 22.1667 5.26 22.2V22.91C5.08667 22.8833 4.88667 22.86 4.66 22.84C4.43333 22.82 4.2 22.8067 3.96 22.8C3.72667 22.7867 3.50333 22.78 3.29 22.78C2.92333 22.78 2.62667 22.7967 2.4 22.83C2.17333 22.8633 1.99333 22.9233 1.86 23.01C1.71333 23.0967 1.62 23.22 1.58 23.38C1.54667 23.5333 1.53 23.72 1.53 23.94C1.53 24.2 1.54667 24.4033 1.58 24.55C1.62 24.69 1.7 24.79 1.82 24.85C1.94667 24.9033 2.13333 24.9433 2.38 24.97L4.05 25.16C4.29 25.18 4.5 25.2133 4.68 25.26C4.86667 25.3 5.02667 25.37 5.16 25.47C5.29333 25.57 5.39333 25.7133 5.46 25.9C5.5 25.9933 5.53 26.0967 5.55 26.21C5.57 26.3233 5.58333 26.45 5.59 26.59C5.60333 26.7233 5.61 26.8733 5.61 27.04C5.61 27.42 5.57333 27.7367 5.5 27.99C5.42667 28.2367 5.32333 28.4333 5.19 28.58C5.05667 28.7267 4.89333 28.8367 4.7 28.91C4.50667 28.9833 4.29 29.03 4.05 29.05C3.81667 29.07 3.56333 29.08 3.29 29.08ZM12.8893 29V26.37L10.3993 22.12H11.3193L13.3093 25.51H13.3793L15.3493 22.12H16.2493L13.7493 26.37V29H12.8893ZM21.373 29V22.12H22.253L25.823 27.39H25.863V22.12H26.693V29H25.863L22.243 23.63H22.203V29H21.373ZM34.1575 29V22.88H31.9875V22.12H37.1975V22.88H35.0175V29H34.1575ZM42.498 29V22.12H43.358V25.15H46.958V22.12H47.818V29H46.958V25.91H43.358V29H42.498ZM53.8125 29V22.12H58.2825V22.86H54.6725V25.15H57.8125V25.9H54.6725V28.26H58.2825V29H53.8125ZM66.1279 29.08C65.8812 29.08 65.6112 29.0733 65.3179 29.06C65.0246 29.0467 64.7379 29.03 64.4579 29.01C64.1846 28.99 63.9346 28.9667 63.7079 28.94V28.21C63.9479 28.23 64.1979 28.25 64.4579 28.27C64.7246 28.29 64.9812 28.3067 65.2279 28.32C65.4812 28.3333 65.6946 28.34 65.8679 28.34C66.2212 28.34 66.5046 28.3267 66.7179 28.3C66.9312 28.2667 67.1112 28.2067 67.2579 28.12C67.3579 28.06 67.4312 27.98 67.4779 27.88C67.5246 27.78 67.5512 27.6633 67.5579 27.53C67.5712 27.3967 67.5779 27.2533 67.5779 27.1C67.5779 26.8733 67.5712 26.69 67.5579 26.55C67.5446 26.41 67.5079 26.3033 67.4479 26.23C67.3946 26.15 67.3046 26.0933 67.1779 26.06C67.0512 26.02 66.8812 25.99 66.6679 25.97L64.9579 25.78C64.6379 25.74 64.3812 25.6733 64.1879 25.58C63.9946 25.48 63.8479 25.3567 63.7479 25.21C63.6546 25.0567 63.5912 24.8767 63.5579 24.67C63.5246 24.4567 63.5079 24.22 63.5079 23.96C63.5079 23.54 63.5612 23.2033 63.6679 22.95C63.7812 22.6967 63.9446 22.5033 64.1579 22.37C64.3712 22.2367 64.6279 22.15 64.9279 22.11C65.2346 22.0633 65.5846 22.04 65.9779 22.04C66.2312 22.04 66.4912 22.0467 66.7579 22.06C67.0246 22.0733 67.2746 22.0933 67.5079 22.12C67.7479 22.14 67.9446 22.1667 68.0979 22.2V22.91C67.9246 22.8833 67.7246 22.86 67.4979 22.84C67.2712 22.82 67.0379 22.8067 66.7979 22.8C66.5646 22.7867 66.3412 22.78 66.1279 22.78C65.7612 22.78 65.4646 22.7967 65.2379 22.83C65.0112 22.8633 64.8312 22.9233 64.6979 23.01C64.5512 23.0967 64.4579 23.22 64.4179 23.38C64.3846 23.5333 64.3679 23.72 64.3679 23.94C64.3679 24.2 64.3846 24.4033 64.4179 24.55C64.4579 24.69 64.5379 24.79 64.6579 24.85C64.7846 24.9033 64.9712 24.9433 65.2179 24.97L66.8879 25.16C67.1279 25.18 67.3379 25.2133 67.5179 25.26C67.7046 25.3 67.8646 25.37 67.9979 25.47C68.1312 25.57 68.2312 25.7133 68.2979 25.9C68.3379 25.9933 68.3679 26.0967 68.3879 26.21C68.4079 26.3233 68.4212 26.45 68.4279 26.59C68.4412 26.7233 68.4479 26.8733 68.4479 27.04C68.4479 27.42 68.4112 27.7367 68.3379 27.99C68.2646 28.2367 68.1612 28.4333 68.0279 28.58C67.8946 28.7267 67.7312 28.8367 67.5379 28.91C67.3446 28.9833 67.1279 29.03 66.8879 29.05C66.6546 29.07 66.4012 29.08 66.1279 29.08ZM74.1172 29V22.12H74.9772V29H74.1172ZM80.5085 29V28.29L84.3885 22.86H80.6185V22.12H85.4785V22.81L81.5885 28.26H85.5385V29H80.5085ZM91.043 29V22.12H95.513V22.86H91.903V25.15H95.043V25.9H91.903V28.26H95.513V29H91.043ZM101.068 29V22.12H104.228C104.662 22.12 105.005 22.1733 105.258 22.28C105.518 22.38 105.708 22.5267 105.828 22.72C105.955 22.9067 106.038 23.1267 106.078 23.38C106.118 23.6333 106.138 23.9033 106.138 24.19C106.138 24.4367 106.115 24.6933 106.068 24.96C106.028 25.22 105.932 25.4567 105.778 25.67C105.632 25.8833 105.398 26.04 105.078 26.14L106.238 29H105.318L104.178 26.11L104.418 26.23C104.372 26.2433 104.315 26.2533 104.248 26.26C104.182 26.2667 104.092 26.27 103.978 26.27H101.928V29H101.068ZM101.928 25.52H103.858C104.192 25.52 104.452 25.4933 104.638 25.44C104.832 25.3867 104.972 25.3033 105.058 25.19C105.152 25.0767 105.212 24.94 105.238 24.78C105.265 24.6133 105.278 24.4167 105.278 24.19C105.278 23.9633 105.265 23.77 105.238 23.61C105.218 23.4433 105.165 23.3067 105.078 23.2C104.998 23.0867 104.865 23.0033 104.678 22.95C104.498 22.89 104.248 22.86 103.928 22.86H101.928V25.52Z" fill="#0000FE"/>
<path d="M5.832 70.064C5.45867 70.064 5.16533 70.0293 4.952 69.96C4.73867 69.8853 4.58933 69.7733 4.504 69.624C4.41867 69.4693 4.376 69.2747 4.376 69.04C4.376 68.912 4.38933 68.752 4.416 68.56C4.44267 68.368 4.48 68.1573 4.528 67.928C4.61333 67.5333 4.704 67.2027 4.8 66.936C4.90133 66.6693 5.02133 66.4587 5.16 66.304C5.29867 66.144 5.47467 66.0293 5.688 65.96C5.90667 65.8907 6.176 65.856 6.496 65.856C6.69867 65.856 6.90667 65.8667 7.12 65.888C7.33867 65.904 7.52267 65.9253 7.672 65.952L7.584 66.36C7.456 66.3333 7.30133 66.312 7.12 66.296C6.944 66.2747 6.78133 66.264 6.632 66.264C6.36 66.264 6.136 66.288 5.96 66.336C5.784 66.384 5.64 66.4693 5.528 66.592C5.416 66.7147 5.32 66.888 5.24 67.112C5.16533 67.3307 5.09333 67.6107 5.024 67.952C4.97067 68.176 4.93067 68.3707 4.904 68.536C4.88267 68.7013 4.872 68.8453 4.872 68.968C4.872 69.1547 4.90667 69.2987 4.976 69.4C5.04533 69.496 5.15733 69.5627 5.312 69.6C5.46667 69.6373 5.672 69.656 5.928 69.656C6.088 69.656 6.264 69.6453 6.456 69.624C6.648 69.6027 6.808 69.5813 6.936 69.56L6.856 69.96C6.728 69.9867 6.568 70.0107 6.376 70.032C6.18933 70.0533 6.008 70.064 5.832 70.064ZM9.67894 70.064C9.26827 70.064 8.94294 70.04 8.70294 69.992C8.46827 69.9387 8.30027 69.8453 8.19894 69.712C8.10294 69.5787 8.05494 69.3947 8.05494 69.16C8.05494 69.016 8.07094 68.8453 8.10294 68.648C8.14027 68.4507 8.1856 68.224 8.23894 67.968C8.3136 67.6213 8.38027 67.328 8.43894 67.088C8.50294 66.8427 8.58027 66.64 8.67094 66.48C8.76694 66.32 8.88427 66.1947 9.02294 66.104C9.1616 66.0133 9.3376 65.9493 9.55094 65.912C9.7696 65.8747 10.0416 65.856 10.3669 65.856C10.7776 65.856 11.1003 65.8827 11.3349 65.936C11.5696 65.9893 11.7349 66.0827 11.8309 66.216C11.9269 66.344 11.9749 66.528 11.9749 66.768C11.9749 66.912 11.9589 67.0853 11.9269 67.288C11.9003 67.4853 11.8576 67.712 11.7989 67.968C11.7296 68.3093 11.6603 68.6027 11.5909 68.848C11.5269 69.088 11.4496 69.288 11.3589 69.448C11.2683 69.608 11.1536 69.7333 11.0149 69.824C10.8763 69.9147 10.6976 69.976 10.4789 70.008C10.2656 70.0453 9.99894 70.064 9.67894 70.064ZM9.66294 69.656C9.91894 69.656 10.1323 69.6427 10.3029 69.616C10.4736 69.5893 10.6096 69.544 10.7109 69.48C10.8176 69.4107 10.9029 69.312 10.9669 69.184C11.0363 69.056 11.0949 68.8933 11.1429 68.696C11.1963 68.4933 11.2523 68.2507 11.3109 67.968C11.3696 67.7173 11.4149 67.5013 11.4469 67.32C11.4789 67.1333 11.4949 66.976 11.4949 66.848C11.4949 66.688 11.4603 66.568 11.3909 66.488C11.3269 66.4027 11.2123 66.344 11.0469 66.312C10.8869 66.28 10.6656 66.264 10.3829 66.264C10.0629 66.264 9.80694 66.2853 9.61494 66.328C9.42827 66.3707 9.28427 66.4533 9.18294 66.576C9.0816 66.6933 8.99894 66.864 8.93494 67.088C8.87094 67.312 8.8016 67.6053 8.72694 67.968C8.67894 68.2187 8.63627 68.4347 8.59894 68.616C8.5616 68.7973 8.54294 68.952 8.54294 69.08C8.54294 69.2347 8.5776 69.3547 8.64694 69.44C8.71627 69.52 8.83094 69.576 8.99094 69.608C9.15627 69.64 9.38027 69.656 9.66294 69.656ZM12.6639 70L13.9199 64.056H14.4079L13.1519 70H12.6639ZM16.0487 70.064C15.7234 70.064 15.4594 70.0347 15.2567 69.976C15.054 69.9173 14.9074 69.816 14.8167 69.672C14.726 69.5227 14.6807 69.3173 14.6807 69.056C14.6807 68.9173 14.6914 68.7573 14.7127 68.576C14.7394 68.3893 14.7794 68.1787 14.8327 67.944C14.9234 67.5227 15.014 67.1787 15.1047 66.912C15.2007 66.64 15.318 66.4267 15.4567 66.272C15.5954 66.1173 15.766 66.0107 15.9687 65.952C16.1767 65.888 16.4354 65.856 16.7447 65.856C17.0007 65.856 17.222 65.8747 17.4087 65.912C17.6007 65.9493 17.7554 66.016 17.8727 66.112C17.99 66.2027 18.0674 66.3253 18.1047 66.48H18.1447L18.3207 65.92H18.7527L17.8887 70H17.4567L17.5527 69.376H17.5127C17.4114 69.568 17.2914 69.7147 17.1527 69.816C17.014 69.9173 16.854 69.984 16.6727 70.016C16.4914 70.048 16.2834 70.064 16.0487 70.064ZM16.2167 69.648C16.446 69.648 16.6354 69.6293 16.7847 69.592C16.934 69.5493 17.0594 69.488 17.1607 69.408C17.262 69.328 17.3527 69.224 17.4327 69.096C17.4914 69.0053 17.5474 68.888 17.6007 68.744C17.654 68.6 17.702 68.448 17.7447 68.288C17.7927 68.1227 17.8327 67.9627 17.8647 67.808C17.902 67.648 17.9287 67.504 17.9447 67.376C17.9607 67.2427 17.9687 67.1387 17.9687 67.064C17.9687 66.7813 17.886 66.5813 17.7207 66.464C17.5607 66.3413 17.2887 66.28 16.9047 66.28C16.638 66.28 16.4194 66.2987 16.2487 66.336C16.078 66.3733 15.9367 66.4507 15.8247 66.568C15.718 66.68 15.6247 66.848 15.5447 67.072C15.47 67.2907 15.3927 67.5867 15.3127 67.96C15.2647 68.184 15.2274 68.3813 15.2007 68.552C15.174 68.7227 15.1607 68.8667 15.1607 68.984C15.1607 69.1707 15.1954 69.312 15.2647 69.408C15.334 69.504 15.446 69.568 15.6007 69.6C15.7607 69.632 15.966 69.648 16.2167 69.648ZM21.2655 70.064C21.0095 70.064 20.7855 70.0453 20.5935 70.008C20.4068 69.9707 20.2522 69.904 20.1295 69.808C20.0122 69.712 19.9348 69.584 19.8975 69.424H19.8575L19.6895 70H19.2655L20.5295 64.056H21.0175L20.4815 66.528H20.5135C20.6148 66.3413 20.7322 66.2 20.8655 66.104C20.9988 66.0027 21.1562 65.936 21.3375 65.904C21.5188 65.872 21.7268 65.856 21.9615 65.856C22.2975 65.856 22.5642 65.8853 22.7615 65.944C22.9588 66.0027 23.1028 66.1067 23.1935 66.256C23.2895 66.4 23.3375 66.6027 23.3375 66.864C23.3375 67.0027 23.3242 67.1653 23.2975 67.352C23.2708 67.5333 23.2335 67.7413 23.1855 67.976C23.1002 68.3973 23.0068 68.744 22.9055 69.016C22.8095 69.288 22.6922 69.5013 22.5535 69.656C22.4148 69.8053 22.2415 69.912 22.0335 69.976C21.8308 70.0347 21.5748 70.064 21.2655 70.064ZM21.1055 69.648C21.3775 69.648 21.5988 69.6293 21.7695 69.592C21.9402 69.5493 22.0788 69.472 22.1855 69.36C22.2975 69.248 22.3908 69.08 22.4655 68.856C22.5402 68.632 22.6175 68.3333 22.6975 67.96C22.7455 67.736 22.7828 67.5413 22.8095 67.376C22.8362 67.2053 22.8495 67.0587 22.8495 66.936C22.8495 66.7493 22.8148 66.608 22.7455 66.512C22.6762 66.416 22.5642 66.3547 22.4095 66.328C22.2548 66.296 22.0495 66.28 21.7935 66.28C21.5695 66.28 21.3828 66.2987 21.2335 66.336C21.0895 66.368 20.9668 66.424 20.8655 66.504C20.7642 66.584 20.6708 66.688 20.5855 66.816C20.5268 66.9013 20.4682 67.016 20.4095 67.16C20.3562 67.2987 20.3055 67.4507 20.2575 67.616C20.2148 67.776 20.1775 67.9387 20.1455 68.104C20.1135 68.264 20.0868 68.4107 20.0655 68.544C20.0495 68.6773 20.0415 68.784 20.0415 68.864C20.0415 69.1467 20.1242 69.3493 20.2895 69.472C20.4548 69.5893 20.7268 69.648 21.1055 69.648ZM25.7024 70.064C25.2917 70.064 24.9664 70.04 24.7264 69.992C24.4917 69.9387 24.3237 69.8453 24.2224 69.712C24.1264 69.5787 24.0784 69.3947 24.0784 69.16C24.0784 69.016 24.0944 68.8453 24.1264 68.648C24.1637 68.4507 24.209 68.224 24.2624 67.968C24.337 67.6213 24.4037 67.328 24.4624 67.088C24.5264 66.8427 24.6037 66.64 24.6944 66.48C24.7904 66.32 24.9077 66.1947 25.0464 66.104C25.185 66.0133 25.361 65.9493 25.5744 65.912C25.793 65.8747 26.065 65.856 26.3904 65.856C26.801 65.856 27.1237 65.8827 27.3584 65.936C27.593 65.9893 27.7584 66.0827 27.8544 66.216C27.9504 66.344 27.9984 66.528 27.9984 66.768C27.9984 66.912 27.9824 67.0853 27.9504 67.288C27.9237 67.4853 27.881 67.712 27.8224 67.968C27.753 68.3093 27.6837 68.6027 27.6144 68.848C27.5504 69.088 27.473 69.288 27.3824 69.448C27.2917 69.608 27.177 69.7333 27.0384 69.824C26.8997 69.9147 26.721 69.976 26.5024 70.008C26.289 70.0453 26.0224 70.064 25.7024 70.064ZM25.6864 69.656C25.9424 69.656 26.1557 69.6427 26.3264 69.616C26.497 69.5893 26.633 69.544 26.7344 69.48C26.841 69.4107 26.9264 69.312 26.9904 69.184C27.0597 69.056 27.1184 68.8933 27.1664 68.696C27.2197 68.4933 27.2757 68.2507 27.3344 67.968C27.393 67.7173 27.4384 67.5013 27.4704 67.32C27.5024 67.1333 27.5184 66.976 27.5184 66.848C27.5184 66.688 27.4837 66.568 27.4144 66.488C27.3504 66.4027 27.2357 66.344 27.0704 66.312C26.9104 66.28 26.689 66.264 26.4064 66.264C26.0864 66.264 25.8304 66.2853 25.6384 66.328C25.4517 66.3707 25.3077 66.4533 25.2064 66.576C25.105 66.6933 25.0224 66.864 24.9584 67.088C24.8944 67.312 24.825 67.6053 24.7504 67.968C24.7024 68.2187 24.6597 68.4347 24.6224 68.616C24.585 68.7973 24.5664 68.952 24.5664 69.08C24.5664 69.2347 24.601 69.3547 24.6704 69.44C24.7397 69.52 24.8544 69.576 25.0144 69.608C25.1797 69.64 25.4037 69.656 25.6864 69.656ZM28.6874 70L29.5514 65.92H29.9754L29.8314 66.76H29.8714C29.9834 66.5093 30.114 66.32 30.2634 66.192C30.4127 66.064 30.586 65.976 30.7834 65.928C30.986 65.88 31.21 65.856 31.4554 65.856L31.3594 66.336C31.0554 66.336 30.7994 66.3787 30.5914 66.464C30.3887 66.544 30.2234 66.664 30.0954 66.824C29.9674 66.9787 29.8634 67.1627 29.7834 67.376C29.7087 67.5893 29.642 67.8213 29.5834 68.072L29.1674 70H28.6874ZM32.9784 70.064C32.653 70.064 32.389 70.0347 32.1864 69.976C31.9837 69.9173 31.837 69.816 31.7464 69.672C31.6557 69.5227 31.6104 69.3173 31.6104 69.056C31.6104 68.9173 31.621 68.7573 31.6424 68.576C31.669 68.3893 31.709 68.1787 31.7624 67.944C31.853 67.5227 31.9437 67.1787 32.0344 66.912C32.1304 66.64 32.2477 66.4267 32.3864 66.272C32.525 66.1173 32.6957 66.0107 32.8984 65.952C33.1064 65.888 33.365 65.856 33.6744 65.856C33.9304 65.856 34.1517 65.8747 34.3384 65.912C34.5304 65.9493 34.685 66.016 34.8024 66.112C34.9197 66.2027 34.997 66.3253 35.0344 66.48H35.0744L35.2504 65.92H35.6824L34.8184 70H34.3864L34.4824 69.376H34.4424C34.341 69.568 34.221 69.7147 34.0824 69.816C33.9437 69.9173 33.7837 69.984 33.6024 70.016C33.421 70.048 33.213 70.064 32.9784 70.064ZM33.1464 69.648C33.3757 69.648 33.565 69.6293 33.7144 69.592C33.8637 69.5493 33.989 69.488 34.0904 69.408C34.1917 69.328 34.2824 69.224 34.3624 69.096C34.421 69.0053 34.477 68.888 34.5304 68.744C34.5837 68.6 34.6317 68.448 34.6744 68.288C34.7224 68.1227 34.7624 67.9627 34.7944 67.808C34.8317 67.648 34.8584 67.504 34.8744 67.376C34.8904 67.2427 34.8984 67.1387 34.8984 67.064C34.8984 66.7813 34.8157 66.5813 34.6504 66.464C34.4904 66.3413 34.2184 66.28 33.8344 66.28C33.5677 66.28 33.349 66.2987 33.1784 66.336C33.0077 66.3733 32.8664 66.4507 32.7544 66.568C32.6477 66.68 32.5544 66.848 32.4744 67.072C32.3997 67.2907 32.3224 67.5867 32.2424 67.96C32.1944 68.184 32.157 68.3813 32.1304 68.552C32.1037 68.7227 32.0904 68.8667 32.0904 68.984C32.0904 69.1707 32.125 69.312 32.1944 69.408C32.2637 69.504 32.3757 69.568 32.5304 69.6C32.6904 69.632 32.8957 69.648 33.1464 69.648ZM37.9712 70C37.7419 70 37.5392 69.992 37.3632 69.976C37.1925 69.96 37.0485 69.928 36.9312 69.88C36.8192 69.8267 36.7339 69.7547 36.6752 69.664C36.6219 69.5733 36.5952 69.4507 36.5952 69.296C36.5952 69.2533 36.5979 69.2107 36.6032 69.168C36.6085 69.12 36.6139 69.0693 36.6192 69.016C36.6299 68.9627 36.6432 68.9067 36.6592 68.848L37.1872 66.328H36.3392L36.4272 65.92H37.2752L37.5232 64.736H38.0112L37.7632 65.92H38.7632L38.6752 66.328H37.6752L37.1312 68.912C37.1259 68.9387 37.1179 68.9707 37.1072 69.008C37.1019 69.0453 37.0965 69.0853 37.0912 69.128C37.0859 69.1653 37.0832 69.1947 37.0832 69.216C37.0832 69.3333 37.1179 69.4213 37.1872 69.48C37.2565 69.5387 37.3605 69.5787 37.4992 69.6C37.6432 69.616 37.8272 69.624 38.0512 69.624L37.9712 70ZM40.0961 64.664L40.2241 64.056H40.7601L40.6321 64.664H40.0961ZM38.9921 70L39.8561 65.92H40.3441L39.4801 70H38.9921ZM42.6086 70.064C42.198 70.064 41.8726 70.04 41.6326 69.992C41.398 69.9387 41.23 69.8453 41.1286 69.712C41.0326 69.5787 40.9846 69.3947 40.9846 69.16C40.9846 69.016 41.0006 68.8453 41.0326 68.648C41.07 68.4507 41.1153 68.224 41.1686 67.968C41.2433 67.6213 41.31 67.328 41.3686 67.088C41.4326 66.8427 41.51 66.64 41.6006 66.48C41.6966 66.32 41.814 66.1947 41.9526 66.104C42.0913 66.0133 42.2673 65.9493 42.4806 65.912C42.6993 65.8747 42.9713 65.856 43.2966 65.856C43.7073 65.856 44.03 65.8827 44.2646 65.936C44.4993 65.9893 44.6646 66.0827 44.7606 66.216C44.8566 66.344 44.9046 66.528 44.9046 66.768C44.9046 66.912 44.8886 67.0853 44.8566 67.288C44.83 67.4853 44.7873 67.712 44.7286 67.968C44.6593 68.3093 44.59 68.6027 44.5206 68.848C44.4566 69.088 44.3793 69.288 44.2886 69.448C44.198 69.608 44.0833 69.7333 43.9446 69.824C43.806 69.9147 43.6273 69.976 43.4086 70.008C43.1953 70.0453 42.9286 70.064 42.6086 70.064ZM42.5926 69.656C42.8486 69.656 43.062 69.6427 43.2326 69.616C43.4033 69.5893 43.5393 69.544 43.6406 69.48C43.7473 69.4107 43.8326 69.312 43.8966 69.184C43.966 69.056 44.0246 68.8933 44.0726 68.696C44.126 68.4933 44.182 68.2507 44.2406 67.968C44.2993 67.7173 44.3446 67.5013 44.3766 67.32C44.4086 67.1333 44.4246 66.976 44.4246 66.848C44.4246 66.688 44.39 66.568 44.3206 66.488C44.2566 66.4027 44.142 66.344 43.9766 66.312C43.8166 66.28 43.5953 66.264 43.3126 66.264C42.9926 66.264 42.7366 66.2853 42.5446 66.328C42.358 66.3707 42.214 66.4533 42.1126 66.576C42.0113 66.6933 41.9286 66.864 41.8646 67.088C41.8006 67.312 41.7313 67.6053 41.6566 67.968C41.6086 68.2187 41.566 68.4347 41.5286 68.616C41.4913 68.7973 41.4726 68.952 41.4726 69.08C41.4726 69.2347 41.5073 69.3547 41.5766 69.44C41.646 69.52 41.7606 69.576 41.9206 69.608C42.086 69.64 42.31 69.656 42.5926 69.656ZM45.5936 70L46.4576 65.92H46.8816L46.7856 66.544H46.8336C46.9083 66.4107 47.0016 66.2933 47.1136 66.192C47.231 66.0907 47.383 66.0107 47.5696 65.952C47.7616 65.888 48.0043 65.856 48.2976 65.856C48.6283 65.856 48.887 65.888 49.0736 65.952C49.2656 66.0107 49.399 66.104 49.4736 66.232C49.5483 66.36 49.5856 66.528 49.5856 66.736C49.5856 66.8373 49.5776 66.952 49.5616 67.08C49.5456 67.208 49.5216 67.344 49.4896 67.488L48.9536 70H48.4736L48.9856 67.568C49.0176 67.4187 49.0416 67.2827 49.0576 67.16C49.079 67.0373 49.0896 66.9333 49.0896 66.848C49.0896 66.688 49.0576 66.568 48.9936 66.488C48.9296 66.4027 48.8256 66.3467 48.6816 66.32C48.543 66.2933 48.359 66.28 48.1296 66.28C47.815 66.28 47.5616 66.3253 47.3696 66.416C47.183 66.5013 47.0363 66.6213 46.9296 66.776C46.823 66.9253 46.7403 67.0987 46.6816 67.296C46.6283 67.488 46.5776 67.688 46.5296 67.896L46.0736 70H45.5936ZM53.2002 70L52.7122 65.92H53.1922L53.5762 69.368H53.6242L55.4402 65.92H55.9202L56.2802 69.368H56.3362L58.1762 65.92H58.6962L56.4642 70H55.9202L55.5602 66.712H55.5042L53.7442 70H53.2002ZM59.9789 64.664L60.1069 64.056H60.6429L60.5149 64.664H59.9789ZM58.8749 70L59.7389 65.92H60.2269L59.3629 70H58.8749ZM62.6274 70C62.3981 70 62.1954 69.992 62.0194 69.976C61.8488 69.96 61.7048 69.928 61.5874 69.88C61.4754 69.8267 61.3901 69.7547 61.3314 69.664C61.2781 69.5733 61.2514 69.4507 61.2514 69.296C61.2514 69.2533 61.2541 69.2107 61.2594 69.168C61.2648 69.12 61.2701 69.0693 61.2754 69.016C61.2861 68.9627 61.2994 68.9067 61.3154 68.848L61.8434 66.328H60.9954L61.0834 65.92H61.9314L62.1794 64.736H62.6674L62.4194 65.92H63.4194L63.3314 66.328H62.3314L61.7874 68.912C61.7821 68.9387 61.7741 68.9707 61.7634 69.008C61.7581 69.0453 61.7528 69.0853 61.7474 69.128C61.7421 69.1653 61.7394 69.1947 61.7394 69.216C61.7394 69.3333 61.7741 69.4213 61.8434 69.48C61.9128 69.5387 62.0168 69.5787 62.1554 69.6C62.2994 69.616 62.4834 69.624 62.7074 69.624L62.6274 70ZM63.6483 70L64.9043 64.056H65.3843L64.8643 66.512H64.9043C64.9736 66.3947 65.0643 66.288 65.1763 66.192C65.2883 66.0907 65.4376 66.0107 65.6243 65.952C65.8163 65.888 66.0563 65.856 66.3443 65.856C66.6803 65.856 66.9416 65.888 67.1283 65.952C67.315 66.0107 67.4456 66.1067 67.5203 66.24C67.6003 66.368 67.6403 66.536 67.6403 66.744C67.6403 66.8453 67.6323 66.96 67.6163 67.088C67.6003 67.2107 67.5763 67.344 67.5443 67.488L67.0083 70H66.5283L67.0403 67.568C67.067 67.4187 67.091 67.2827 67.1123 67.16C67.1336 67.0373 67.1443 66.9333 67.1443 66.848C67.1443 66.6027 67.0696 66.448 66.9203 66.384C66.7763 66.3147 66.5283 66.28 66.1763 66.28C65.8616 66.28 65.6083 66.3253 65.4163 66.416C65.2296 66.5067 65.083 66.6293 64.9763 66.784C64.8696 66.9387 64.787 67.112 64.7283 67.304C64.6696 67.496 64.619 67.6933 64.5763 67.896L64.1283 70H63.6483Z" fill="#0000FE"/>
<path d="M76.84 71V62.42H84.028C84.916 62.42 85.604 62.644 86.092 63.092C86.588 63.54 86.836 64.22 86.836 65.132C86.836 65.908 86.656 66.516 86.296 66.956C85.936 67.396 85.424 67.672 84.76 67.784L86.74 71H84.556L82.72 67.844H78.76V71H76.84ZM83.8 63.98H78.76V66.272L83.8 66.284C84.152 66.284 84.42 66.196 84.604 66.02C84.796 65.844 84.892 65.548 84.892 65.132C84.892 64.708 84.796 64.412 84.604 64.244C84.42 64.068 84.152 63.98 83.8 63.98ZM89.7415 71C89.0935 71 88.5975 70.836 88.2535 70.508C87.9095 70.18 87.7375 69.712 87.7375 69.104C87.7375 68.504 87.9095 68.04 88.2535 67.712C88.5975 67.384 89.0935 67.22 89.7415 67.22H94.3495V66.932C94.3495 66.444 94.1095 66.2 93.6295 66.2H88.5415V64.82H94.0855C94.8135 64.82 95.3295 64.988 95.6335 65.324C95.9375 65.652 96.0895 66.116 96.0895 66.716V71H89.7415ZM90.0535 69.62H94.3495V68.6H90.0535C89.9015 68.6 89.7815 68.648 89.6935 68.744C89.6135 68.832 89.5735 68.952 89.5735 69.104C89.5735 69.256 89.6135 69.38 89.6935 69.476C89.7815 69.572 89.9015 69.62 90.0535 69.62ZM97.4139 71V64.82H99.1539V71H97.4139ZM97.4019 63.8V62.444H99.1659V63.8H97.4019ZM100.293 68.192V66.812H103.965V68.192H100.293ZM108.317 71C107.621 71 107.109 70.828 106.781 70.484C106.453 70.132 106.289 69.672 106.289 69.104V66.2H104.501V64.82H106.289V62.924H108.029V64.82H110.597V66.2H108.029V68.888C108.029 69.376 108.269 69.62 108.749 69.62H110.933V71H108.317ZM114.996 71.06C113.924 71.06 113.088 70.796 112.488 70.268C111.888 69.732 111.588 68.948 111.588 67.916C111.588 66.876 111.888 66.092 112.488 65.564C113.088 65.028 113.924 64.76 114.996 64.76H117.216C118.288 64.76 119.124 65.028 119.724 65.564C120.324 66.092 120.624 66.876 120.624 67.916C120.624 68.948 120.324 69.732 119.724 70.268C119.124 70.796 118.288 71.06 117.216 71.06H114.996ZM114.996 69.68H117.216C117.736 69.68 118.132 69.536 118.404 69.248C118.684 68.96 118.824 68.516 118.824 67.916C118.824 67.308 118.684 66.86 118.404 66.572C118.132 66.284 117.736 66.14 117.216 66.14H114.996C114.476 66.14 114.076 66.284 113.796 66.572C113.524 66.86 113.388 67.308 113.388 67.916C113.388 68.516 113.524 68.96 113.796 69.248C114.076 69.536 114.476 69.68 114.996 69.68Z" fill="#0000FE"/>
<path d="M1.71 50V43.12H3.45V45.84H3.96L5.84 43.12H7.72L5.37 46.39L7.75 50H5.8L3.96 47.16H3.45V50H1.71ZM9.50063 50.08C9.18063 50.08 8.91063 50.03 8.69063 49.93C8.47063 49.83 8.30396 49.6667 8.19063 49.44C8.08396 49.2133 8.03063 48.9167 8.03063 48.55C8.03063 48.1633 8.07396 47.8567 8.16063 47.63C8.25396 47.3967 8.41729 47.23 8.65063 47.13C8.88396 47.03 9.21396 46.98 9.64063 46.98C9.70063 46.98 9.78396 46.9833 9.89063 46.99C10.004 46.99 10.1306 46.9933 10.2706 47C10.4106 47 10.5506 47.0033 10.6906 47.01C10.8306 47.01 10.9573 47.0133 11.0706 47.02V46.83C11.0706 46.6367 11.054 46.4867 11.0206 46.38C10.994 46.2733 10.9373 46.1967 10.8506 46.15C10.7706 46.0967 10.6473 46.0667 10.4806 46.06C10.314 46.0467 10.094 46.04 9.82063 46.04C9.66729 46.04 9.49729 46.0433 9.31063 46.05C9.13063 46.0567 8.95063 46.0667 8.77063 46.08C8.59729 46.0867 8.45063 46.0967 8.33063 46.11V44.98C8.60396 44.9333 8.91063 44.8967 9.25063 44.87C9.59729 44.8367 9.96063 44.82 10.3406 44.82C10.7673 44.82 11.1206 44.8467 11.4006 44.9C11.6873 44.9533 11.9173 45.0367 12.0906 45.15C12.264 45.2567 12.3906 45.3933 12.4706 45.56C12.5573 45.7267 12.614 45.9233 12.6406 46.15C12.6673 46.3767 12.6806 46.6333 12.6806 46.92V50H11.1406L11.1006 49.4H11.0206C10.894 49.6 10.7473 49.75 10.5806 49.85C10.414 49.95 10.2373 50.0133 10.0506 50.04C9.86396 50.0667 9.68063 50.08 9.50063 50.08ZM10.2606 48.94C10.3806 48.94 10.484 48.9333 10.5706 48.92C10.664 48.9 10.7406 48.87 10.8006 48.83C10.8673 48.7833 10.9206 48.7267 10.9606 48.66C10.994 48.5867 11.0206 48.4967 11.0406 48.39C11.0606 48.2833 11.0706 48.1567 11.0706 48.01V47.82H10.1406C9.97396 47.82 9.84729 47.8333 9.76063 47.86C9.67396 47.88 9.61396 47.9333 9.58063 48.02C9.55396 48.1 9.54063 48.2267 9.54063 48.4C9.54063 48.5467 9.55729 48.66 9.59063 48.74C9.62396 48.82 9.69063 48.8733 9.79063 48.9C9.89729 48.9267 10.054 48.94 10.2606 48.94ZM14.4447 50V46.12H13.5047V44.9H14.4447V44.55C14.4447 44.1633 14.468 43.85 14.5147 43.61C14.5614 43.3633 14.6447 43.17 14.7647 43.03C14.8847 42.89 15.0514 42.79 15.2647 42.73C15.4847 42.6633 15.758 42.6233 16.0847 42.61C16.418 42.59 16.8147 42.58 17.2747 42.58V43.68C17.0014 43.68 16.7814 43.6867 16.6147 43.7C16.4547 43.7133 16.3347 43.7433 16.2547 43.79C16.1747 43.83 16.1214 43.8933 16.0947 43.98C16.0747 44.06 16.0647 44.1767 16.0647 44.33V44.9H17.2747V46.12H16.0647V50H14.4447ZM19.6934 50.08C19.3534 50.08 19.0801 50.0367 18.8734 49.95C18.6668 49.8633 18.5101 49.7367 18.4034 49.57C18.2968 49.4033 18.2268 49.1967 18.1934 48.95C18.1601 48.7033 18.1434 48.4167 18.1434 48.09V44.9H19.7434V47.6C19.7434 47.8733 19.7501 48.09 19.7634 48.25C19.7834 48.4033 19.8168 48.5167 19.8634 48.59C19.9101 48.6633 19.9801 48.71 20.0734 48.73C20.1668 48.7433 20.2934 48.75 20.4534 48.75C20.6268 48.75 20.7634 48.7333 20.8634 48.7C20.9701 48.66 21.0468 48.5967 21.0934 48.51C21.1401 48.4233 21.1701 48.3033 21.1834 48.15C21.2034 47.99 21.2134 47.7933 21.2134 47.56V44.9H22.8234V50H21.2934L21.2534 49.38H21.1634C21.0701 49.5533 20.9501 49.6933 20.8034 49.8C20.6568 49.9 20.4901 49.97 20.3034 50.01C20.1168 50.0567 19.9134 50.08 19.6934 50.08Z" fill="#0000FE"/>
</svg>
