<svg width="94" height="8" viewBox="0 0 94 8" fill="none" xmlns="http://www.w3.org/2000/svg">
<path d="M0.656 6V0.496H1.792V2.744H3.984V0.496H5.12V6H3.984V3.72H1.792V6H0.656ZM11.5654 6.064C11.3628 6.064 11.1388 6.05867 10.8934 6.048C10.6534 6.03733 10.4188 6.02133 10.1894 6C9.9601 5.984 9.74944 5.96533 9.55744 5.944V5.04C9.75477 5.056 9.95477 5.072 10.1574 5.088C10.3654 5.104 10.5628 5.11733 10.7494 5.128C10.9361 5.13333 11.0961 5.136 11.2294 5.136C11.5014 5.136 11.7121 5.12533 11.8614 5.104C12.0108 5.07733 12.1228 5.04 12.1974 4.992C12.2561 4.94933 12.2961 4.904 12.3174 4.856C12.3388 4.80267 12.3521 4.74133 12.3574 4.672C12.3628 4.59733 12.3654 4.51467 12.3654 4.424C12.3654 4.30133 12.3574 4.2 12.3414 4.12C12.3308 4.04 12.3094 3.97867 12.2774 3.936C12.2454 3.888 12.1921 3.85333 12.1174 3.832C12.0481 3.81067 11.9574 3.79467 11.8454 3.784L10.6134 3.632C10.3681 3.6 10.1654 3.544 10.0054 3.464C9.85077 3.384 9.7281 3.27733 9.63744 3.144C9.54677 3.01067 9.48277 2.85333 9.44544 2.672C9.41344 2.49067 9.39744 2.28533 9.39744 2.056C9.39744 1.69333 9.4481 1.40533 9.54944 1.192C9.65077 0.978666 9.7921 0.816 9.97344 0.704C10.1601 0.592 10.3788 0.52 10.6294 0.488C10.8801 0.450666 11.1521 0.432 11.4454 0.432C11.6588 0.432 11.8774 0.44 12.1014 0.456C12.3254 0.466666 12.5361 0.482666 12.7334 0.504C12.9308 0.525333 13.0961 0.552 13.2294 0.584V1.464C13.0961 1.44267 12.9414 1.424 12.7654 1.408C12.5894 1.392 12.4054 1.38133 12.2134 1.376C12.0214 1.36533 11.8401 1.36 11.6694 1.36C11.4188 1.36 11.2188 1.37067 11.0694 1.392C10.9254 1.408 10.8134 1.43733 10.7334 1.48C10.6428 1.53333 10.5868 1.60267 10.5654 1.688C10.5494 1.77333 10.5414 1.88 10.5414 2.008C10.5414 2.168 10.5521 2.29067 10.5734 2.376C10.5948 2.456 10.6454 2.512 10.7254 2.544C10.8054 2.576 10.9308 2.60267 11.1014 2.624L12.3334 2.768C12.4828 2.784 12.6214 2.81067 12.7494 2.848C12.8774 2.88533 12.9921 2.944 13.0934 3.024C13.1948 3.104 13.2774 3.216 13.3414 3.36C13.3788 3.43467 13.4081 3.52267 13.4294 3.624C13.4508 3.72 13.4668 3.82933 13.4774 3.952C13.4934 4.07467 13.5014 4.21067 13.5014 4.36C13.5014 4.66933 13.4694 4.928 13.4054 5.136C13.3468 5.344 13.2614 5.50933 13.1494 5.632C13.0374 5.75467 12.8988 5.848 12.7334 5.912C12.5734 5.976 12.3948 6.016 12.1974 6.032C12.0001 6.05333 11.7894 6.064 11.5654 6.064ZM18.8944 6V1.456H17.3024V0.496H21.6224V1.456H20.0304V6H18.8944ZM25.6466 6V0.496H28.1986C28.54 0.496 28.8173 0.538666 29.0306 0.624C29.2493 0.709333 29.4173 0.832 29.5346 0.992C29.652 1.14667 29.732 1.336 29.7746 1.56C29.8226 1.784 29.8466 2.03733 29.8466 2.32C29.8466 2.58133 29.8253 2.824 29.7826 3.048C29.7453 3.26667 29.668 3.45867 29.5506 3.624C29.4333 3.78933 29.2626 3.91733 29.0386 4.008C28.82 4.09867 28.5293 4.144 28.1666 4.144H26.7826V6H25.6466ZM26.7826 3.216H27.7186C27.948 3.216 28.1293 3.20533 28.2626 3.184C28.396 3.15733 28.4946 3.112 28.5586 3.048C28.6226 2.984 28.6626 2.89333 28.6786 2.776C28.7 2.65867 28.7106 2.50667 28.7106 2.32C28.7106 2.13333 28.7 1.98133 28.6786 1.864C28.6626 1.74667 28.6226 1.656 28.5586 1.592C28.5 1.52267 28.4066 1.47733 28.2786 1.456C28.1506 1.42933 27.9746 1.416 27.7506 1.416H26.7826V3.216ZM41.4429 6.064C41.0215 6.064 40.6615 6.04 40.3629 5.992C40.0695 5.93867 39.8322 5.86667 39.6509 5.776C39.4749 5.68 39.3389 5.568 39.2429 5.44C39.1469 5.312 39.0802 5.17067 39.0429 5.016C39.0109 4.86133 38.9949 4.69867 38.9949 4.528C38.9949 4.22933 39.0322 3.99467 39.1069 3.824C39.1869 3.648 39.3015 3.51467 39.4509 3.424C39.6002 3.328 39.7815 3.256 39.9949 3.208V3.176C39.6749 3.10133 39.4349 2.968 39.2749 2.776C39.1202 2.57867 39.0429 2.28 39.0429 1.88C39.0429 1.68267 39.0749 1.496 39.1389 1.32C39.2082 1.144 39.3282 0.992 39.4989 0.864C39.6695 0.730666 39.9122 0.626666 40.2269 0.552C40.5415 0.472 40.9442 0.432 41.4349 0.432C41.6215 0.432 41.8242 0.44 42.0429 0.456C42.2669 0.472 42.4882 0.493333 42.7069 0.52C42.9309 0.541333 43.1309 0.570666 43.3069 0.608V1.416C43.1415 1.39467 42.9602 1.376 42.7629 1.36C42.5655 1.344 42.3709 1.33067 42.1789 1.32C41.9869 1.30933 41.8135 1.304 41.6589 1.304C41.3229 1.304 41.0535 1.31733 40.8509 1.344C40.6482 1.36533 40.4935 1.40533 40.3869 1.464C40.2802 1.51733 40.2109 1.59467 40.1789 1.696C40.1469 1.792 40.1309 1.91467 40.1309 2.064C40.1309 2.176 40.1389 2.27733 40.1549 2.368C40.1762 2.45867 40.2135 2.536 40.2669 2.6C40.3255 2.65867 40.4135 2.70667 40.5309 2.744C40.6482 2.776 40.8082 2.792 41.0109 2.792H41.5869V3.648H41.0109C40.8082 3.648 40.6455 3.66133 40.5229 3.688C40.4002 3.71467 40.3069 3.76 40.2429 3.824C40.1789 3.88267 40.1362 3.96267 40.1149 4.064C40.0935 4.16 40.0829 4.28 40.0829 4.424C40.0829 4.648 40.1255 4.816 40.2109 4.928C40.3015 5.04 40.4455 5.11467 40.6429 5.152C40.8455 5.184 41.1122 5.2 41.4429 5.2C41.5762 5.2 41.7042 5.19733 41.8269 5.192C41.9495 5.18667 42.0722 5.18133 42.1949 5.176C42.3175 5.16533 42.4375 5.15467 42.5549 5.144L42.2829 5.584V2.792H44.2109V3.648H43.3389V5.896C43.1575 5.928 42.9549 5.95733 42.7309 5.984C42.5122 6.00533 42.2909 6.024 42.0669 6.04C41.8429 6.056 41.6349 6.064 41.4429 6.064ZM47.6453 7.448V6.64H50.6693V7.448H47.6453ZM54.7808 6L56.8848 1.432H54.1568V0.496H58.1008V1.344L56.0368 6H54.7808ZM62.0474 4.176V3.272H64.1514V4.176H62.0474ZM68.7286 6V2.776H67.9446V1.92H68.7286V0.736H69.7926V1.92H70.7206V2.776H69.7926V6H68.7286ZM76.3338 7.648C76.1738 7.648 76.0084 7.64267 75.8378 7.632C75.6671 7.62667 75.5044 7.616 75.3498 7.6C75.1951 7.58933 75.0591 7.576 74.9418 7.56V6.776C75.1338 6.78133 75.2964 6.784 75.4298 6.784C75.5684 6.78933 75.6884 6.792 75.7898 6.792C75.8964 6.792 75.9924 6.792 76.0778 6.792C76.3498 6.792 76.5604 6.77867 76.7098 6.752C76.8644 6.72533 76.9764 6.67467 77.0458 6.6C77.1204 6.52533 77.1658 6.41867 77.1818 6.28C77.2031 6.14667 77.2138 5.97067 77.2138 5.752V5.48H77.1498C77.0911 5.59733 77.0058 5.696 76.8938 5.776C76.7871 5.856 76.6564 5.91733 76.5018 5.96C76.3471 5.99733 76.1631 6.016 75.9498 6.016C75.6724 6.016 75.4484 5.98133 75.2778 5.912C75.1071 5.84267 74.9764 5.74133 74.8858 5.608C74.8004 5.47467 74.7418 5.312 74.7098 5.12C74.6778 4.92267 74.6618 4.69333 74.6618 4.432V1.92H75.7178V4.04C75.7178 4.29067 75.7258 4.488 75.7418 4.632C75.7578 4.776 75.7898 4.88267 75.8378 4.952C75.8858 5.016 75.9578 5.05867 76.0538 5.08C76.1498 5.096 76.2778 5.104 76.4378 5.104C76.6084 5.104 76.7471 5.08533 76.8538 5.048C76.9604 5.00533 77.0378 4.94133 77.0858 4.856C77.1391 4.76533 77.1738 4.65067 77.1898 4.512C77.2058 4.368 77.2138 4.19467 77.2138 3.992V1.92H78.2698V5.536C78.2698 5.904 78.2511 6.22133 78.2138 6.488C78.1764 6.75467 78.0938 6.97333 77.9658 7.144C77.8431 7.31467 77.6511 7.44 77.3898 7.52C77.1284 7.60533 76.7764 7.648 76.3338 7.648ZM82.6039 7.592V1.92H83.5959L83.6279 2.432H83.6839C83.7693 2.272 83.8759 2.152 84.0039 2.072C84.1319 1.98667 84.2733 1.93067 84.4279 1.904C84.5826 1.872 84.7373 1.856 84.8919 1.856C85.1426 1.856 85.3559 1.89067 85.5319 1.96C85.7133 2.024 85.8599 2.136 85.9719 2.296C86.0839 2.45067 86.1639 2.664 86.2119 2.936C86.2653 3.208 86.2919 3.54667 86.2919 3.952C86.2919 4.35733 86.2653 4.696 86.2119 4.968C86.1639 5.24 86.0866 5.456 85.9799 5.616C85.8733 5.776 85.7319 5.89067 85.5559 5.96C85.3853 6.02933 85.1746 6.064 84.9239 6.064C84.7479 6.064 84.5826 6.048 84.4279 6.016C84.2786 5.98933 84.1453 5.94133 84.0279 5.872C83.9106 5.79733 83.8093 5.69067 83.7239 5.552H83.6599V7.592H82.6039ZM84.4439 5.144C84.6199 5.144 84.7613 5.13333 84.8679 5.112C84.9746 5.08533 85.0519 5.03467 85.0999 4.96C85.1533 4.88 85.1879 4.76267 85.2039 4.608C85.2199 4.448 85.2279 4.232 85.2279 3.96C85.2279 3.688 85.2199 3.472 85.2039 3.312C85.1879 3.152 85.1533 3.03467 85.0999 2.96C85.0519 2.88 84.9746 2.82933 84.8679 2.808C84.7613 2.78133 84.6199 2.768 84.4439 2.768C84.2519 2.768 84.1053 2.79467 84.0039 2.848C83.9026 2.896 83.8253 2.97333 83.7719 3.08C83.7239 3.176 83.6919 3.29867 83.6759 3.448C83.6653 3.592 83.6599 3.76267 83.6599 3.96C83.6599 4.16267 83.6653 4.336 83.6759 4.48C83.6919 4.61867 83.7213 4.736 83.7639 4.832C83.8173 4.944 83.8973 5.024 84.0039 5.072C84.1106 5.12 84.2573 5.144 84.4439 5.144ZM92.2996 6.064C91.937 6.064 91.6356 6.04 91.3956 5.992C91.1556 5.944 90.9636 5.86933 90.8196 5.768C90.681 5.66133 90.5743 5.528 90.4996 5.368C90.4303 5.20267 90.385 5.00533 90.3636 4.776C90.3476 4.54133 90.3396 4.272 90.3396 3.968C90.3396 3.60533 90.3583 3.29067 90.3956 3.024C90.433 2.75733 90.5103 2.53867 90.6276 2.368C90.7503 2.192 90.937 2.064 91.1876 1.984C91.4436 1.89867 91.7823 1.856 92.2036 1.856C92.545 1.856 92.8223 1.88267 93.0356 1.936C93.249 1.98933 93.417 2.06933 93.5396 2.176C93.6676 2.28267 93.7583 2.42133 93.8116 2.592C93.8703 2.75733 93.9076 2.95467 93.9236 3.184C93.9396 3.41333 93.9476 3.67467 93.9476 3.968V4.28H91.3956C91.3956 4.48267 91.4036 4.648 91.4196 4.776C91.441 4.89867 91.4863 4.992 91.5556 5.056C91.6303 5.12 91.745 5.16267 91.8996 5.184C92.0596 5.20533 92.2756 5.216 92.5476 5.216C92.6596 5.216 92.785 5.21333 92.9236 5.208C93.0676 5.20267 93.2143 5.19467 93.3636 5.184C93.5183 5.17333 93.6596 5.16267 93.7876 5.152V5.936C93.6703 5.96267 93.5263 5.984 93.3556 6C93.1903 6.02133 93.0143 6.03733 92.8276 6.048C92.6463 6.05867 92.4703 6.064 92.2996 6.064ZM92.9396 3.752V3.624C92.9396 3.416 92.9263 3.25067 92.8996 3.128C92.8783 3 92.8383 2.904 92.7796 2.84C92.7263 2.776 92.6516 2.736 92.5556 2.72C92.4596 2.69867 92.337 2.688 92.1876 2.688C92.0116 2.688 91.873 2.70133 91.7716 2.728C91.6703 2.74933 91.593 2.79467 91.5396 2.864C91.4863 2.928 91.449 3.024 91.4276 3.152C91.4063 3.27467 91.3956 3.432 91.3956 3.624H93.0836L92.9396 3.752Z" fill="#0C0CFF"/>
</svg>
