<svg width="30" height="25" viewBox="0 0 30 25" fill="none" xmlns="http://www.w3.org/2000/svg">
<path id="twitter-lg" d="M29.7179 2.86787C28.625 3.3393 27.4357 3.67859 26.2107 3.81073C27.4825 3.05514 28.435 1.86144 28.8893 0.453586C27.6958 1.16355 26.3884 1.66138 25.025 1.92501C24.4552 1.31582 23.766 0.830514 23.0004 0.499327C22.2348 0.16814 21.4092 -0.0018278 20.575 1.48229e-05C17.2 1.48229e-05 14.4857 2.73573 14.4857 6.09287C14.4857 6.5643 14.5429 7.03573 14.6357 7.4893C9.58214 7.22502 5.075 4.81073 2.07857 1.1143C1.53259 2.04686 1.24648 3.10868 1.25 4.1893C1.25 6.30359 2.325 8.16787 3.96429 9.2643C2.99823 9.22626 2.0548 8.96072 1.21071 8.4893V8.5643C1.21071 11.525 3.30357 13.9786 6.09286 14.5429C5.56914 14.6789 5.03038 14.7485 4.48929 14.75C4.09286 14.75 3.71786 14.7107 3.33929 14.6572C4.11071 17.0714 6.35714 18.825 9.03214 18.8822C6.93929 20.5214 4.31786 21.4857 1.47143 21.4857C0.960714 21.4857 0.489286 21.4679 0 21.4107C2.7 23.1429 5.90357 24.1429 9.35357 24.1429C20.5536 24.1429 26.6821 14.8643 26.6821 6.81073C26.6821 6.54644 26.6821 6.28216 26.6643 6.01787C27.85 5.15001 28.8893 4.07502 29.7179 2.86787Z" fill="#0000FE"/>
</svg>
