<svg width="20" height="20" viewBox="0 0 20 20" fill="none" xmlns="http://www.w3.org/2000/svg">
<path d="M20 4.55C19.9888 4.11857 19.9554 3.68801 19.9 3.26C19.8253 2.88512 19.7009 2.52191 19.53 2.18C19.3513 1.8091 19.1112 1.47103 18.82 1.18C18.5261 0.892204 18.1886 0.652591 17.82 0.47C17.4776 0.302444 17.1144 0.181373 16.74 0.11C16.3161 0.0464994 15.8886 0.0097601 15.46 0H4.55C4.11857 0.0112364 3.68801 0.0446136 3.26 0.0999999C2.88512 0.174668 2.52191 0.299103 2.18 0.47C1.8091 0.648737 1.47103 0.888773 1.18 1.18C0.892204 1.47391 0.652591 1.81139 0.47 2.18C0.302444 2.52236 0.181373 2.88558 0.11 3.26C0.0464994 3.68393 0.0097601 4.11145 0 4.54C0 4.73 0 5 0 5.08V14.92C0 15.03 0 15.27 0 15.45C0.0112364 15.8814 0.0446136 16.312 0.0999999 16.74C0.174668 17.1149 0.299103 17.4781 0.47 17.82C0.648737 18.1909 0.888773 18.529 1.18 18.82C1.47391 19.1078 1.81139 19.3474 2.18 19.53C2.52236 19.6976 2.88558 19.8186 3.26 19.89C3.68393 19.9535 4.11145 19.9902 4.54 20H15.45C15.8814 19.9888 16.312 19.9554 16.74 19.9C17.1149 19.8253 17.4781 19.7009 17.82 19.53C18.1909 19.3513 18.529 19.1112 18.82 18.82C19.1078 18.5261 19.3474 18.1886 19.53 17.82C19.6976 17.4776 19.8186 17.1144 19.89 16.74C19.9535 16.3161 19.9902 15.8886 20 15.46C20 15.27 20 15.03 20 14.92V5.08C20 5 20 4.73 20 4.55ZM10.23 17C9.02906 16.9941 7.84913 16.6845 6.8 16.1L3 17.1L4 13.38C3.35511 12.2965 3.00999 11.0609 3 9.8C3.00398 8.38293 3.4272 6.99872 4.21636 5.82171C5.00552 4.6447 6.12532 3.72753 7.43473 3.18572C8.74414 2.6439 10.1846 2.50167 11.5747 2.77694C12.9648 3.05221 14.2423 3.73266 15.2464 4.7326C16.2505 5.73255 16.9363 7.00725 17.2173 8.39619C17.4984 9.78512 17.3622 11.2262 16.8258 12.5378C16.2894 13.8495 15.3769 14.9731 14.2032 15.7671C13.0295 16.5612 11.647 16.9901 10.23 17V17ZM10.23 3.87C9.16981 3.88213 8.13177 4.17498 7.22156 4.71874C6.31135 5.26249 5.56148 6.03773 5.0483 6.96552C4.53512 7.89331 4.27695 8.94052 4.30008 10.0005C4.32322 11.0605 4.62683 12.0955 5.18 13L5.32 13.23L4.72 15.42L7 14.8L7.22 14.93C8.12957 15.4658 9.1644 15.7521 10.22 15.76V15.76C11.8113 15.76 13.3374 15.1279 14.4626 14.0026C15.5879 12.8774 16.22 11.3513 16.22 9.76C16.22 8.1687 15.5879 6.64258 14.4626 5.51736C13.3374 4.39214 11.8113 3.76 10.22 3.76L10.23 3.87ZM13.73 12.39C13.599 12.6085 13.4236 12.797 13.2152 12.9434C13.0068 13.0898 12.7699 13.1909 12.52 13.24C12.1465 13.3083 11.7621 13.2842 11.4 13.17C11.0593 13.0635 10.7254 12.9366 10.4 12.79C9.16374 12.1697 8.10944 11.2394 7.34 10.09C6.92188 9.55748 6.66819 8.91455 6.61 8.24C6.60405 7.95979 6.65705 7.68145 6.76558 7.42305C6.87412 7.16464 7.03575 6.93192 7.24 6.74C7.30016 6.67179 7.37397 6.61696 7.45665 6.57906C7.53934 6.54117 7.62905 6.52105 7.72 6.52H8C8.11 6.52 8.26 6.52 8.4 6.83C8.54 7.14 8.91 8.07 8.96 8.16C8.98457 8.20797 8.99739 8.2611 8.99739 8.315C8.99739 8.3689 8.98457 8.42203 8.96 8.47C8.91579 8.57867 8.85508 8.67986 8.78 8.77C8.69 8.88 8.59 9.01 8.51 9.09C8.43 9.17 8.33 9.27 8.43 9.45C8.70209 9.90919 9.03888 10.3268 9.43 10.69C9.85593 11.0664 10.3429 11.3673 10.87 11.58C11.05 11.67 11.16 11.66 11.26 11.58C11.36 11.5 11.71 11.06 11.83 10.88C11.95 10.7 12.07 10.73 12.23 10.79C12.39 10.85 13.28 11.28 13.46 11.37C13.64 11.46 13.75 11.5 13.8 11.58C13.8434 11.8417 13.8193 12.1102 13.73 12.36V12.39Z" fill="white"/>
</svg>
